<svg width="175" height="175" viewBox="0 0 175 175" fill="none" xmlns="http://www.w3.org/2000/svg">
<g clip-path="url(#clip0_15091_78511)">
<path fill-rule="evenodd" clip-rule="evenodd" d="M119.456 71.114C120.019 71.4789 120.392 72.1118 120.392 72.8322V86.5218C124.799 81.4048 129.556 76.9147 133.675 77.4986C135.016 77.6919 136.861 78.5056 138.037 81.2908C140.342 86.7473 136.257 93.6976 136.082 93.9911L125.695 114.173C125.538 114.504 121.062 123.676 108.922 131.21C108.598 131.411 108.225 131.518 107.843 131.518H66.2369C65.1079 131.518 64.1914 130.6 64.1914 129.472C64.1914 128.711 64.6086 128.046 65.2271 127.694C65.4425 114.365 65.97 101.167 65.97 87.8184V63.0955V54.3553C65.97 49.7585 69.7099 46.017 74.3066 46.017C75.8585 46.017 77.3125 46.4438 78.5583 47.1855C78.6892 42.7023 82.3768 39.0965 86.8906 39.0965C88.5496 39.0965 90.097 39.5833 91.3972 40.4216C92.3205 36.8239 95.5913 34.1562 99.4733 34.1562C103.356 34.1562 106.626 36.8239 107.549 40.4221C108.849 39.5837 110.396 39.0965 112.055 39.0965C116.41 39.0965 120.064 42.4986 120.371 46.8425C120.425 47.6055 120.052 48.3009 119.456 48.6947L119.456 71.114Z" fill="#FFDFCF"/>
<path fill-rule="evenodd" clip-rule="evenodd" d="M94.7958 163.201C93.2589 163.201 91.705 163.153 90.0473 163.055C89.4111 163.018 88.8268 162.684 88.4704 162.154C88.1157 161.625 88.0259 160.959 88.2317 160.353C88.5683 159.362 88.7471 158.309 88.7616 157.224C88.76 155.555 88.3351 153.96 87.496 152.509L59.9105 104.729C60.2322 105.255 60.7742 105.609 61.3882 105.69C61.4772 105.701 61.5654 105.708 61.6548 105.708C62.1952 105.708 62.7162 105.494 63.1012 105.109L131.29 36.9226C131.711 36.5018 131.928 35.9155 131.882 35.32C131.837 34.7237 131.533 34.1797 131.051 33.8261C120.475 26.0842 107.938 21.9935 94.7963 21.9935C60.9055 21.9935 33.3341 49.5649 33.3341 83.454C33.3341 87.3204 33.6993 91.2 34.4165 94.9826C34.5759 95.8205 35.2407 96.4724 36.0831 96.6174C36.9025 96.7571 37.7264 96.3854 38.1632 95.6812L25.9264 116.876C25.543 117.54 24.8198 117.927 24.0596 117.897C23.2958 117.862 22.6149 117.403 22.2956 116.708C17.4858 106.241 15.0469 95.0518 15.0469 83.4535C15.0469 39.4801 50.8209 3.70703 94.7942 3.70703C138.766 3.70703 174.541 39.4811 174.541 83.4535C174.542 127.427 138.768 163.201 94.7958 163.201ZM94.7958 144.915C90.9404 144.915 87.0772 144.554 83.3144 143.842C82.7293 143.732 82.2207 143.371 81.924 142.855L69.3513 121.079C68.8882 120.278 69.0219 119.265 69.6767 118.61L141.326 46.9622C141.749 46.539 142.335 46.3244 142.929 46.3699C143.525 46.4154 144.071 46.7194 144.424 47.201C152.164 57.7793 156.256 70.3165 156.256 83.4557C156.255 117.343 128.684 144.915 94.7958 144.915Z" fill="#FD697F"/>
<path fill-rule="evenodd" clip-rule="evenodd" d="M94.4772 163.2C93.0441 163.194 91.5909 163.145 90.0479 163.054C89.4117 163.017 88.8274 162.683 88.4711 162.154C88.1163 161.624 88.0265 160.958 88.2323 160.353C88.5689 159.361 88.7477 158.309 88.7622 157.223C88.7606 155.554 88.3358 153.959 87.4966 152.508L59.9111 104.728C60.2328 105.254 60.7748 105.608 61.3889 105.689C61.4779 105.701 61.566 105.707 61.6554 105.707C62.1958 105.707 62.7169 105.493 63.1018 105.108L66.2075 102.002L73.5565 114.731L69.6772 118.61C69.0225 119.264 68.8888 120.277 69.3519 121.078L81.9245 142.854C82.2213 143.37 82.7299 143.731 83.3149 143.841C85.8134 144.314 88.3562 144.631 90.9115 144.792L93.3992 149.1C94.8298 151.578 95.5953 154.404 95.5768 157.268C95.5631 159.377 95.1758 161.374 94.4772 163.2ZM33.6987 90.1563C33.8751 91.7766 34.1147 93.3876 34.4171 94.9818C34.5765 95.8197 35.2413 96.4716 36.0837 96.6166C36.9031 96.7563 37.727 96.3846 38.1638 95.6804L25.927 116.875C25.5436 117.539 24.8204 117.927 24.0602 117.896C23.2964 117.861 22.6155 117.402 22.2962 116.707C21.6688 115.342 21.0826 113.965 20.5361 112.576L32.2833 92.2291C32.7077 91.4943 33.1813 90.8026 33.6987 90.1563Z" fill="#FD5667"/>
<path fill-rule="evenodd" clip-rule="evenodd" d="M79.2606 170.844H13.5911C8.59973 170.782 4.20025 168.228 1.80003 164.01C-0.592179 159.809 -0.58815 154.619 1.81131 150.464L34.645 93.5932C37.0924 89.3544 41.4975 86.8232 46.4248 86.8232C51.3522 86.8232 55.7573 89.3544 58.203 93.5932L91.0367 150.464C92.2225 152.52 92.8491 154.866 92.8491 157.251C92.75 164.918 86.8971 170.752 79.2606 170.844C79.2691 170.844 79.2574 170.846 79.2606 170.844Z" fill="#FFD545"/>
<path fill-rule="evenodd" clip-rule="evenodd" d="M51.6085 140.118H41.2404C40.0985 140.118 38.9919 139.641 38.206 138.809C37.4449 138.005 37.0584 136.963 37.1196 135.879L38.4476 112.232C38.5728 109.984 40.3827 108.223 42.5688 108.223L50.2834 108.223C52.4682 108.223 54.2794 109.985 54.4046 112.233L55.7302 135.879C55.7914 136.963 55.4064 138.002 54.645 138.809C53.8574 139.64 52.7509 140.118 51.6085 140.118Z" fill="#FFFFE6"/>
<path fill-rule="evenodd" clip-rule="evenodd" d="M46.4235 163.243C41.2916 163.243 37.1152 159.067 37.1152 153.933C37.1152 148.8 41.29 144.625 46.4235 144.625C51.5555 144.625 55.7306 148.8 55.7306 153.933C55.7306 159.067 51.5555 163.243 46.4235 163.243Z" fill="#FFFFE6"/>
</g>
<defs>
<clipPath id="clip0_15091_78511">
<rect width="174.55" height="174.55" fill="white"/>
</clipPath>
</defs>
</svg>
