<svg width="32" height="32" viewBox="0 0 32 32" fill="none" xmlns="http://www.w3.org/2000/svg">
    <path d="M1.70711 0.351487C1.31658 -0.0390373 0.683418 -0.0390373 0.292893 0.351487C-0.0976311 0.742011 -0.0976311 1.37518 0.292893 1.7657L1.70711 0.351487ZM11.1588 12.2174C11.7111 12.2174 12.1588 11.7697 12.1588 11.2174L12.1588 2.21743C12.1588 1.66515 11.7111 1.21743 11.1588 1.21743C10.6066 1.21743 10.1588 1.66515 10.1588 2.21743V10.2174H2.15884C1.60655 10.2174 1.15884 10.6651 1.15884 11.2174C1.15884 11.7697 1.60655 12.2174 2.15884 12.2174L11.1588 12.2174ZM0.292893 1.7657L10.4517 11.9245L11.8659 10.5103L1.70711 0.351487L0.292893 1.7657Z" fill="#EF406A"/>
    <path d="M31.7071 1.70711C32.0976 1.31658 32.0976 0.683418 31.7071 0.292893C31.3166 -0.0976311 30.6834 -0.0976311 30.2929 0.292893L31.7071 1.70711ZM19.8412 11.1588C19.8412 11.7111 20.2889 12.1588 20.8412 12.1588L29.8412 12.1588C30.3934 12.1588 30.8412 11.7111 30.8412 11.1588C30.8412 10.6066 30.3934 10.1588 29.8412 10.1588H21.8412V2.15884C21.8412 1.60655 21.3934 1.15884 20.8412 1.15884C20.2889 1.15884 19.8412 1.60655 19.8412 2.15884L19.8412 11.1588ZM30.2929 0.292893L20.1341 10.4517L21.5483 11.8659L31.7071 1.70711L30.2929 0.292893Z" fill="#EF406A"/>
    <path d="M30.2929 31.6485C30.6834 32.039 31.3166 32.039 31.7071 31.6485C32.0976 31.258 32.0976 30.6248 31.7071 30.2343L30.2929 31.6485ZM20.8412 19.7826C20.2889 19.7826 19.8412 20.2303 19.8412 20.7826L19.8412 29.7826C19.8412 30.3349 20.2889 30.7826 20.8412 30.7826C21.3934 30.7826 21.8412 30.3349 21.8412 29.7826V21.7826H29.8412C30.3934 21.7826 30.8412 21.3349 30.8412 20.7826C30.8412 20.2303 30.3934 19.7826 29.8412 19.7826L20.8412 19.7826ZM31.7071 30.2343L21.5483 20.0755L20.1341 21.4897L30.2929 31.6485L31.7071 30.2343Z" fill="#EF406A"/>
    <path d="M0.318284 30.0312C-0.0722404 30.4217 -0.0722404 31.0549 0.318284 31.4454C0.708808 31.8359 1.34197 31.8359 1.7325 31.4454L0.318284 30.0312ZM12.1842 20.5794C12.1842 20.0272 11.7365 19.5794 11.1842 19.5794L2.18423 19.5794C1.63194 19.5794 1.18423 20.0272 1.18423 20.5794C1.18423 21.1317 1.63194 21.5794 2.18423 21.5794H10.1842V29.5794C10.1842 30.1317 10.6319 30.5794 11.1842 30.5794C11.7365 30.5794 12.1842 30.1317 12.1842 29.5794L12.1842 20.5794ZM1.7325 31.4454L11.8913 21.2866L10.4771 19.8723L0.318284 30.0312L1.7325 31.4454Z" fill="#EF406A"/>
    <circle cx="15.9998" cy="16.0013" r="3.33333" fill="#EF406A"/>
    </svg>
    