<svg width="20" height="20" viewBox="0 0 20 20" fill="none" xmlns="http://www.w3.org/2000/svg">
<path d="M5.52332 8.25649C5.52332 8.49766 5.54939 8.69322 5.59502 8.83662C5.64717 8.98002 5.71235 9.13646 5.80361 9.30594C5.8362 9.35809 5.84923 9.41023 5.84923 9.45586C5.84923 9.52105 5.81012 9.58623 5.72539 9.65141L5.31473 9.92518C5.25606 9.96429 5.1974 9.98385 5.14525 9.98385C5.08007 9.98385 5.01488 9.95126 4.9497 9.89259C4.85844 9.79482 4.78022 9.69052 4.71504 9.58623C4.64986 9.47542 4.58467 9.35157 4.51297 9.20165C4.00454 9.80134 3.36574 10.1012 2.59658 10.1012C2.04903 10.1012 1.6123 9.94474 1.29291 9.63186C0.973506 9.31898 0.810547 8.9018 0.810547 8.38033C0.810547 7.82627 1.0061 7.37651 1.40372 7.03755C1.80134 6.6986 2.32932 6.52912 3.00071 6.52912C3.22234 6.52912 3.45048 6.54868 3.69166 6.58127C3.93284 6.61386 4.18054 6.66601 4.44127 6.72467V6.24883C4.44127 5.75344 4.33698 5.40796 4.13491 5.2059C3.92632 5.00383 3.57433 4.90605 3.07242 4.90605C2.84427 4.90605 2.60961 4.93212 2.36843 4.99079C2.12725 5.04945 1.89259 5.12116 1.66445 5.21241C1.56016 5.25804 1.48194 5.28412 1.43631 5.29715C1.39068 5.31019 1.35809 5.31671 1.33202 5.31671C1.24076 5.31671 1.19513 5.25152 1.19513 5.11464V4.79524C1.19513 4.69095 1.20817 4.61273 1.24076 4.5671C1.27335 4.52147 1.33202 4.47584 1.42327 4.43021C1.65141 4.31288 1.92519 4.21511 2.24458 4.13689C2.56398 4.05215 2.90294 4.01304 3.26145 4.01304C4.03713 4.01304 4.60423 4.18903 4.96926 4.54102C5.32777 4.89301 5.51028 5.42752 5.51028 6.14454V8.25649H5.52332ZM2.87686 9.24728C3.09197 9.24728 3.31359 9.20817 3.54826 9.12995C3.78292 9.05172 3.9915 8.90832 4.1675 8.71277C4.27179 8.58892 4.35001 8.45204 4.38912 8.2956C4.42823 8.13916 4.45431 7.95012 4.45431 7.7285V7.45473C4.26527 7.4091 4.06321 7.36999 3.85462 7.34392C3.64603 7.31784 3.44396 7.30481 3.24189 7.30481C2.80516 7.30481 2.48576 7.38954 2.27066 7.56554C2.05555 7.74154 1.95126 7.98923 1.95126 8.31515C1.95126 8.62151 2.02948 8.84966 2.19244 9.0061C2.34888 9.16906 2.57702 9.24728 2.87686 9.24728V9.24728ZM8.1111 9.95126C7.99377 9.95126 7.91555 9.9317 7.86341 9.88607C7.81126 9.84696 7.76563 9.75571 7.72652 9.63186L6.19471 4.59317C6.1556 4.4628 6.13604 4.37806 6.13604 4.33244C6.13604 4.22814 6.18819 4.16948 6.29248 4.16948H6.93128C7.05513 4.16948 7.13987 4.18903 7.1855 4.23466C7.23764 4.27377 7.27675 4.36503 7.31586 4.48888L8.41095 8.80403L9.42781 4.48888C9.4604 4.35851 9.49951 4.27377 9.55166 4.23466C9.60381 4.19555 9.69506 4.16948 9.81239 4.16948H10.3339C10.4577 4.16948 10.5424 4.18903 10.5946 4.23466C10.6467 4.27377 10.6924 4.36503 10.7184 4.48888L11.7483 8.85617L12.876 4.48888C12.9151 4.35851 12.9608 4.27377 13.0064 4.23466C13.0585 4.19555 13.1433 4.16948 13.2606 4.16948H13.8668C13.9711 4.16948 14.0298 4.22162 14.0298 4.33244C14.0298 4.36503 14.0232 4.39762 14.0167 4.43673C14.0102 4.47584 13.9972 4.52799 13.9711 4.59969L12.4002 9.63838C12.3611 9.76874 12.3154 9.85348 12.2633 9.89259C12.2111 9.9317 12.1264 9.95778 12.0156 9.95778H11.455C11.3312 9.95778 11.2464 9.93822 11.1943 9.89259C11.1421 9.84696 11.0965 9.76223 11.0704 9.63186L10.0601 5.42752L9.05626 9.62534C9.02367 9.75571 8.98456 9.84045 8.93242 9.88607C8.88027 9.9317 8.78901 9.95126 8.67168 9.95126H8.1111ZM16.4872 10.1273C16.1482 10.1273 15.8093 10.0881 15.4834 10.0099C15.1574 9.9317 14.9032 9.84696 14.7337 9.74919C14.6295 9.69052 14.5578 9.62534 14.5317 9.56667C14.5056 9.50801 14.4926 9.44283 14.4926 9.38416V9.05172C14.4926 8.91484 14.5447 8.84966 14.6425 8.84966C14.6816 8.84966 14.7207 8.85617 14.7598 8.86921C14.7989 8.88225 14.8576 8.90832 14.9228 8.93439C15.1444 9.03217 15.3856 9.11039 15.6398 9.16254C15.9005 9.21468 16.1548 9.24076 16.4155 9.24076C16.8261 9.24076 17.1455 9.16905 17.3672 9.02565C17.5888 8.88225 17.7061 8.67366 17.7061 8.40641C17.7061 8.22389 17.6475 8.07397 17.5301 7.95012C17.4128 7.82627 17.1912 7.71546 16.8718 7.61117L15.9266 7.31784C15.4508 7.16792 15.0988 6.9463 14.8837 6.65297C14.6686 6.36616 14.5578 6.04676 14.5578 5.70781C14.5578 5.43404 14.6164 5.19286 14.7337 4.98427C14.8511 4.77568 15.0075 4.59317 15.2031 4.44977C15.3986 4.29984 15.6202 4.18903 15.881 4.11081C16.1417 4.03259 16.4155 4 16.7023 4C16.8457 4 16.9956 4.00652 17.139 4.02607C17.2889 4.04563 17.4258 4.0717 17.5627 4.09778C17.6931 4.13037 17.8169 4.16296 17.9343 4.20207C18.0516 4.24118 18.1428 4.28029 18.208 4.3194C18.2993 4.37155 18.3645 4.42369 18.4036 4.48236C18.4427 4.53451 18.4622 4.60621 18.4622 4.69746V5.00383C18.4622 5.14071 18.4101 5.21241 18.3123 5.21241C18.2602 5.21241 18.1754 5.18634 18.0646 5.13419C17.6931 4.96472 17.2759 4.87998 16.8131 4.87998C16.4416 4.87998 16.1482 4.93864 15.9462 5.06249C15.7441 5.18634 15.6398 5.37537 15.6398 5.64263C15.6398 5.82514 15.705 5.98158 15.8354 6.10543C15.9657 6.22928 16.2069 6.35313 16.5524 6.46394L17.478 6.75726C17.9473 6.90719 18.2863 7.11577 18.4883 7.38303C18.6904 7.65028 18.7882 7.95664 18.7882 8.2956C18.7882 8.57588 18.7295 8.8301 18.6187 9.05172C18.5014 9.27335 18.3449 9.4689 18.1428 9.62534C17.9408 9.7883 17.6996 9.90563 17.4193 9.99037C17.126 10.0816 16.8196 10.1273 16.4872 10.1273V10.1273Z" fill="#252F3E"/>
<path fill-rule="evenodd" clip-rule="evenodd" d="M17.719 13.2952C15.5744 14.8791 12.4587 15.72 9.77962 15.72C6.02505 15.72 2.64202 14.3316 0.0868256 12.0241C-0.115243 11.8416 0.0672705 11.5939 0.30845 11.7373C3.07223 13.3408 6.48133 14.312 10.0078 14.312C12.387 14.312 15.0008 13.8166 17.4061 12.7998C17.7646 12.6368 18.071 13.0344 17.719 13.2952V13.2952Z" fill="#FF9900"/>
<path fill-rule="evenodd" clip-rule="evenodd" d="M18.6122 12.2783C18.3384 11.9263 16.8001 12.1088 16.1026 12.1936C15.8941 12.2197 15.8615 12.0371 16.0505 11.9003C17.276 11.0398 19.2901 11.2875 19.5248 11.5743C19.7594 11.8677 19.4596 13.8818 18.3124 14.8466C18.1364 14.9965 17.9669 14.9183 18.0451 14.7227C18.3059 14.0774 18.886 12.6238 18.6122 12.2783V12.2783Z" fill="#FF9900"/>
</svg>
