<svg width="47" height="47" viewBox="0 0 47 47" fill="none" xmlns="http://www.w3.org/2000/svg">
    <g filter="url(#filter0_dddd_12036_4424)">
        <path
            d="M4 23C4 11.9543 12.9543 3 24 3C35.0457 3 44 11.9543 44 23V43H24C12.9543 43 4 34.0457 4 23Z"
            fill="#373295" />
        <path
            d="M4 23C4 11.9543 12.9543 3 24 3C35.0457 3 44 11.9543 44 23V43H24C12.9543 43 4 34.0457 4 23Z"
            stroke="white" />
    </g>
    <path
        d="M15.5541 26.0215C14.9864 26.0221 14.4142 26.0695 13.8523 26.0131C12.9507 25.9225 12.1967 25.2772 12 24.4372V24.286C12 24.286 12 21.8729 12 20.6662C12.1306 20.2358 12.315 19.8398 12.6456 19.518C13.0433 19.1311 13.5201 18.9497 14.062 18.9297C14.4654 18.9146 14.8694 18.921 15.2731 18.918C15.2894 18.9201 15.3053 18.9222 15.3216 18.9243L15.3435 18.9234L15.3655 18.9249C15.3405 18.9983 15.3162 19.0716 15.2909 19.1446C15.0295 19.9007 14.8589 20.6797 14.8198 21.476C14.7828 22.2254 14.8077 22.9779 14.8168 23.7291C14.8192 23.9362 14.858 24.1435 14.8875 24.3497C14.9747 24.9609 15.2566 25.4945 15.5541 26.0215Z"
        fill="#D7D5F1" />
    <path
        d="M15.5572 26.0207C15.2596 25.4937 14.9774 24.96 14.8905 24.3488C14.861 24.1427 14.8222 23.9356 14.8198 23.7283C14.8108 22.9773 14.7858 22.2245 14.8228 21.4751C14.8622 20.6789 15.0325 19.8996 15.2939 19.1438C15.3192 19.0707 15.3436 18.9971 15.3685 18.9237C15.6934 18.0608 16.1369 17.2643 16.6967 16.533C16.7121 16.5154 16.7274 16.4979 16.7428 16.4804C17.3306 15.772 17.984 15.1394 18.7464 14.6145C19.5225 14.08 20.3546 13.671 21.2511 13.3994C22.1449 13.1283 23.0601 12.9774 23.9984 13.0028C23.9969 14.537 23.9954 16.0712 23.9942 17.6054C23.6275 17.6066 23.2608 17.6041 22.894 17.6102C22.0845 17.6232 21.268 17.5791 20.4669 17.6699C19.2097 17.8124 18.2569 18.5117 17.5749 19.5612C17.0108 20.4293 16.8099 21.396 16.9726 22.4238C17.1555 23.578 17.713 24.5103 18.6555 25.2063C19.4443 25.7889 20.3381 26.0228 21.3038 26.024C22.2012 26.0252 23.0986 26.0258 23.9963 26.0264C23.9975 26.7303 23.999 27.4341 24.0002 28.1383C22.447 28.1389 20.8928 28.1751 19.3411 28.1295C17.8237 28.0852 16.5942 27.4211 15.6883 26.183C15.6471 26.1272 15.6011 26.075 15.5572 26.0207Z"
        fill="#D44FC7" />
    <path
        d="M24.0011 28.1391C23.9999 27.4352 23.9984 26.7314 23.9972 26.0272C23.9972 26.0272 24.002 26.0224 24.0017 26.0224C25.0135 26.0233 26.0252 26.0248 27.0372 26.0227C27.1031 26.0227 27.1687 25.9946 27.2346 25.9798C27.3281 25.9765 27.4235 25.9843 27.5146 25.968C28.5817 25.7773 29.4854 25.2931 30.156 24.4266C30.931 23.4251 31.2264 22.2942 31.0023 21.0374C30.8263 20.0501 30.3338 19.2406 29.5862 18.594C28.9072 18.0067 28.1067 17.6511 27.209 17.6194C26.1407 17.582 25.0703 17.6113 24.0008 17.6119L23.9954 17.6062C23.9969 16.072 23.9984 14.5378 23.9999 13.0036C25.5417 12.9743 26.9903 13.3446 28.3486 14.0615C29.3627 14.5966 30.2568 15.292 30.9912 16.1833C31.0751 16.2854 31.1668 16.381 31.255 16.4797C31.2712 16.4972 31.2875 16.5144 31.3037 16.5319C31.8461 17.2735 32.2884 18.071 32.6301 18.9246C32.9448 19.782 33.1274 20.673 33.1701 21.5794C33.2086 22.3965 33.1674 23.2187 33.1334 24.0375C33.1033 24.7625 32.8133 25.4069 32.437 26.0154C31.8001 26.9496 30.959 27.6181 29.8702 27.9339C29.4867 28.0452 29.0796 28.1249 28.6819 28.1303C27.1217 28.1527 25.5613 28.1394 24.0011 28.1391Z"
        fill="#C12FB3" />
    <path
        d="M32.433 26.0144C32.809 25.406 33.0993 24.7615 33.1294 24.0366C33.1634 23.2177 33.2046 22.3955 33.1661 21.5785C33.1234 20.6721 32.9408 19.7811 32.6261 18.9236L32.6478 18.9214L32.6697 18.9233C32.6857 18.9208 32.7016 18.9184 32.7176 18.916C33.0918 18.919 33.4664 18.9205 33.8406 18.9257C34.9011 18.9405 35.8243 19.6561 35.9465 20.7511C35.9645 20.9126 35.9889 21.075 35.9889 21.2371C35.9904 22.2232 35.9856 23.2095 35.9829 24.1956C35.8722 24.7006 35.6757 25.1645 35.2651 25.4962C35.056 25.6652 34.8105 25.7887 34.5813 25.9326C33.8698 26.0805 33.1502 26.0153 32.433 26.0144Z"
        fill="#D7D5F1" />
    <path
        d="M26.0082 33.4143C25.2254 33.4318 24.4896 32.6912 24.3536 31.9164C24.2017 31.0513 24.9041 29.975 25.8623 29.9219C26.5217 29.9228 27.1815 29.9234 27.8409 29.9243C28.4312 29.9726 28.8469 30.2913 29.1535 30.7782C29.2013 30.8542 29.2449 30.9333 29.2907 31.0112C29.4279 31.4712 29.4459 31.9272 29.2464 32.376C29.244 32.3881 29.2419 32.4002 29.2401 32.4123C28.97 32.8973 28.5795 33.232 28.0368 33.3712C27.942 33.3956 27.8421 33.4005 27.745 33.4143C27.1661 33.4143 26.5873 33.4143 26.0082 33.4143Z"
        fill="#FAC7D3" />
    <path
        d="M29.2501 32.3759C29.4496 31.9268 29.4315 31.4707 29.2943 31.0111L29.2901 30.9951C30.1352 30.9966 30.9803 30.9981 31.8253 30.9993C33.1668 30.8538 34.2621 29.9574 34.5299 28.5937C34.6111 28.1802 34.5795 27.7432 34.5864 27.3167C34.5939 26.8561 34.5858 26.3952 34.5846 25.9343C34.8136 25.7903 35.0593 25.6669 35.2684 25.4978C35.6791 25.1661 35.8752 24.7022 35.9862 24.1973C35.9886 25.528 36.0178 26.8597 35.985 28.1899C35.9543 29.4385 35.4333 30.4895 34.4968 31.309C33.831 31.8915 33.0512 32.2603 32.1638 32.3726C32.0666 32.385 31.9691 32.3971 31.8719 32.4091C31.8217 32.3965 31.7712 32.3726 31.7209 32.3726C30.8969 32.3717 30.0735 32.3741 29.2501 32.3759Z"
        fill="#B2AFE4" />
    <path
        d="M32.6687 18.9236L32.6468 18.9218C32.6468 18.9218 32.6248 18.9239 32.6251 18.9239C32.2833 18.0703 31.8411 17.2729 31.2987 16.5313C31.2972 15.933 31.2957 15.3345 31.2939 14.7363C31.3294 14.4677 31.5514 14.2057 31.7665 14.1782C32.1985 14.1233 32.4819 14.254 32.6146 14.5691C32.632 14.6107 32.6507 14.6521 32.6687 14.6934C32.6687 16.1033 32.6687 17.5134 32.6687 18.9236Z"
        fill="#F8AFC1" />
    <path
        d="M16.6959 16.5336C16.1358 17.265 15.6923 18.0615 15.3677 18.9244L15.3457 18.9229L15.3238 18.9238C15.3238 17.514 15.3235 16.1038 15.3235 14.694C15.377 14.4299 15.5966 14.1935 15.8108 14.1785C16.288 14.1449 16.458 14.2343 16.6376 14.5654C16.6661 14.6179 16.6782 14.6795 16.6977 14.7371C16.6971 15.336 16.6965 15.9348 16.6959 16.5336Z"
        fill="#F8AFC1" />
    <path
        d="M23.9909 26.0265C23.0935 26.0256 22.1961 26.0253 21.2984 26.0241C20.3324 26.0229 19.4389 25.7887 18.6501 25.2064C17.7072 24.5101 17.1498 23.5778 16.9672 22.4239C16.8044 21.3961 17.0054 20.4294 17.5694 19.5613C18.2515 18.5119 19.2042 17.8125 20.4614 17.6701C21.2626 17.5792 22.079 17.6233 22.8886 17.6103C23.2553 17.6046 23.622 17.607 23.9888 17.6055L23.9942 17.6112C23.9915 18.0627 23.9888 18.5146 23.9864 18.9661C23.0628 18.9685 22.1392 18.9697 21.2159 18.9746C21.126 18.9752 21.036 18.9987 20.9464 19.0117C20.7072 19.0606 20.4608 19.0865 20.2304 19.162C19.1483 19.5164 18.5385 20.3099 18.3387 21.3943C18.2241 22.017 18.3498 22.6445 18.6952 23.2011C19.2057 24.0236 19.9307 24.5089 20.9018 24.6022C21.0724 24.6049 21.2427 24.6088 21.4133 24.6097C22.2734 24.6142 23.1338 24.6179 23.9939 24.6221C23.9948 25.0733 23.9957 25.5246 23.9963 25.9761C23.9945 25.9912 23.9942 26.0066 23.9957 26.0217L23.9909 26.0265Z"
        fill="#D7E7FE" />
    <path
        d="M23.9907 18.9659C23.9934 18.5144 23.9961 18.0625 23.9988 17.611C25.0683 17.6107 26.1387 17.5811 27.207 17.6185C28.1047 17.6499 28.9055 18.0058 29.5842 18.5931C30.3318 19.24 30.8243 20.0495 31.0003 21.0365C31.2244 22.2933 30.929 23.4242 30.154 24.4257C29.4835 25.2922 28.5797 25.7764 27.5127 25.9671C27.4215 25.9834 27.3258 25.9756 27.2326 25.9789C26.1553 25.978 25.078 25.9768 24.0006 25.9759C23.9997 25.5247 23.9988 25.0734 23.9982 24.6219C23.9973 24.614 23.9967 24.6062 23.9967 24.5983C24.9327 24.6029 25.8683 24.6098 26.8042 24.6095C26.9883 24.6095 27.1754 24.5971 27.3562 24.5636C29.1002 24.2392 30.1637 22.4167 29.4383 20.7069C28.9988 19.6707 28.1697 19.1138 27.0467 19.0112C26.9955 18.9985 26.9441 18.975 26.8929 18.975C25.9299 18.9747 24.9669 18.9768 24.0037 18.9786L23.9907 18.9659Z"
        fill="#D7D5F1" />
    <path
        d="M23.997 25.9766C25.0744 25.9775 26.1517 25.9787 27.229 25.9796C27.1631 25.9947 27.0975 26.0224 27.0316 26.0227C26.0199 26.0249 25.0082 26.0233 23.9961 26.0224C23.9949 26.007 23.9952 25.9917 23.997 25.9766Z"
        fill="#AEC2E1" />
    <path
        d="M20.9046 24.6022C19.9335 24.5086 19.2085 24.0236 18.698 23.2011C18.3523 22.6445 18.2266 22.017 18.3415 21.3944C18.5412 20.3096 19.1514 19.5164 20.2332 19.162C20.4636 19.0866 20.71 19.0606 20.9492 19.0117C21.9651 19.0153 22.9813 19.019 23.9973 19.0226C23.997 20.8701 23.997 22.7179 23.9967 24.5654C23.0481 24.5654 22.0993 24.5648 21.1507 24.5672C21.0689 24.5672 20.9868 24.5898 20.9046 24.6022ZM21.9522 21.819C21.9338 21.6268 21.9492 21.423 21.8899 21.2447C21.7915 20.9495 21.4465 20.7952 21.1222 20.8574C20.8279 20.9138 20.5903 21.1894 20.5758 21.5057C20.5668 21.7004 20.5716 21.896 20.5746 22.0913C20.5794 22.4239 20.7777 22.6165 21.0602 22.7363C21.3108 22.8425 21.525 22.7438 21.7265 22.5947C22.0003 22.3913 21.9299 22.0961 21.9522 21.819Z"
        fill="#00429D" />
    <path
        d="M20.9016 24.6017C20.9837 24.5893 21.0659 24.5667 21.148 24.5664C22.0965 24.5637 23.0454 24.5646 23.9939 24.5646C23.9951 24.5758 23.9945 24.5869 23.9921 24.5981C23.9921 24.6059 23.9927 24.6138 23.9936 24.6216C23.1335 24.6177 22.2731 24.6138 21.413 24.6093C21.2428 24.6084 21.0722 24.6041 20.9016 24.6017Z"
        fill="#22579E" />
    <path
        d="M23.9966 19.0232C22.9807 19.0196 21.9644 19.016 20.9485 19.0124C21.0384 18.9994 21.1281 18.9755 21.218 18.9752C22.1416 18.9701 23.0652 18.9689 23.9885 18.9668L24.0008 18.9798C23.9966 18.9912 23.9936 19.0033 23.9915 19.0154L23.9966 19.0232Z"
        fill="#9FB8DA" />
    <path
        d="M23.9981 24.5989C24.0005 24.5877 24.0011 24.5765 23.9999 24.5654C24.0002 22.7179 24.0002 20.8701 24.0005 19.0226L23.9954 19.0147C25.0129 19.0138 26.0303 19.0126 27.0477 19.0117C28.1708 19.1143 29.0002 19.6712 29.4394 20.7074C30.1647 22.4173 29.1013 24.2397 27.3573 24.5642C27.1765 24.5977 26.9894 24.61 26.8053 24.61C25.8697 24.61 24.9337 24.6031 23.9981 24.5989ZM27.4094 21.7973C27.4133 21.7973 27.4172 21.7973 27.4208 21.7973C27.4208 21.7034 27.4247 21.6093 27.4202 21.5157C27.4042 21.1976 27.1741 20.919 26.8811 20.8586C26.5598 20.7925 26.237 20.9356 26.104 21.2383C25.9443 21.6023 25.9641 21.9859 26.0911 22.353C26.1819 22.6156 26.5119 22.803 26.7595 22.7795C27.058 22.7511 27.3501 22.5096 27.4051 22.2174C27.4307 22.0825 27.4094 21.938 27.4094 21.7973Z"
        fill="#373295" />
    <path
        d="M27.0477 19.0109C26.0303 19.0118 25.0129 19.013 23.9954 19.0139C23.9975 19.0019 24.0005 18.9898 24.0047 18.9783C24.9677 18.9765 25.9307 18.9741 26.894 18.9747C26.9452 18.9747 26.9963 18.9982 27.0477 19.0109Z"
        fill="#577EB6" />
    <path
        d="M21.9507 21.8193C21.9285 22.0964 21.9992 22.3916 21.7245 22.5947C21.5229 22.7438 21.3087 22.8425 21.0581 22.7363C20.7756 22.6164 20.5774 22.4242 20.5726 22.0913C20.5699 21.8963 20.5651 21.7007 20.5738 21.5057C20.5882 21.1894 20.8259 20.9138 21.1201 20.8574C21.4444 20.7952 21.7895 20.9494 21.8878 21.2446C21.9477 21.4236 21.9324 21.627 21.9507 21.8193Z"
        fill="white" />
    <path
        d="M27.4131 21.8119C27.4131 21.8119 27.4239 22.0827 27.398 22.2186C27.3427 22.5104 27.0509 22.7522 26.7524 22.7806C26.5051 22.8041 26.1748 22.6167 26.084 22.3541C25.957 21.9871 25.9372 21.6034 26.0969 21.2394C26.2299 20.9367 26.5527 20.7933 26.874 20.8597C27.1673 20.9201 27.3974 21.1987 27.4131 21.5168C27.4176 21.6104 27.4137 21.7045 27.4137 21.7984C27.4141 21.7416 27.4131 21.8119 27.4131 21.8119Z"
        fill="white" />
    <defs>
        <filter id="filter0_dddd_12036_4424" x="0.5" y="0.5" width="46" height="46"
            filterUnits="userSpaceOnUse" color-interpolation-filters="sRGB">
            <feFlood flood-opacity="0" result="BackgroundImageFix" />
            <feColorMatrix in="SourceAlpha" type="matrix"
                values="0 0 0 0 0 0 0 0 0 0 0 0 0 0 0 0 0 0 127 0" result="hardAlpha" />
            <feOffset dx="-1" />
            <feGaussianBlur stdDeviation="1" />
            <feComposite in2="hardAlpha" operator="out" />
            <feColorMatrix type="matrix" values="0 0 0 0 0 0 0 0 0 0 0 0 0 0 0 0 0 0 0.08 0" />
            <feBlend mode="normal" in2="BackgroundImageFix" result="effect1_dropShadow_12036_4424" />
            <feColorMatrix in="SourceAlpha" type="matrix"
                values="0 0 0 0 0 0 0 0 0 0 0 0 0 0 0 0 0 0 127 0" result="hardAlpha" />
            <feOffset dx="1" />
            <feGaussianBlur stdDeviation="0.5" />
            <feComposite in2="hardAlpha" operator="out" />
            <feColorMatrix type="matrix" values="0 0 0 0 0 0 0 0 0 0 0 0 0 0 0 0 0 0 0.08 0" />
            <feBlend mode="normal" in2="effect1_dropShadow_12036_4424"
                result="effect2_dropShadow_12036_4424" />
            <feColorMatrix in="SourceAlpha" type="matrix"
                values="0 0 0 0 0 0 0 0 0 0 0 0 0 0 0 0 0 0 127 0" result="hardAlpha" />
            <feOffset dy="-1" />
            <feGaussianBlur stdDeviation="0.5" />
            <feComposite in2="hardAlpha" operator="out" />
            <feColorMatrix type="matrix" values="0 0 0 0 0 0 0 0 0 0 0 0 0 0 0 0 0 0 0.08 0" />
            <feBlend mode="normal" in2="effect2_dropShadow_12036_4424"
                result="effect3_dropShadow_12036_4424" />
            <feColorMatrix in="SourceAlpha" type="matrix"
                values="0 0 0 0 0 0 0 0 0 0 0 0 0 0 0 0 0 0 127 0" result="hardAlpha" />
            <feOffset dy="1" />
            <feGaussianBlur stdDeviation="1" />
            <feComposite in2="hardAlpha" operator="out" />
            <feColorMatrix type="matrix" values="0 0 0 0 0 0 0 0 0 0 0 0 0 0 0 0 0 0 0.08 0" />
            <feBlend mode="normal" in2="effect3_dropShadow_12036_4424"
                result="effect4_dropShadow_12036_4424" />
            <feBlend mode="normal" in="SourceGraphic" in2="effect4_dropShadow_12036_4424"
                result="shape" />
        </filter>
    </defs>
</svg>
    