<svg width="55" height="55" viewBox="0 0 55 55" fill="none" xmlns="http://www.w3.org/2000/svg">
<g filter="url(#filter0_dddd_11564_348574)">
<path d="M4 27C4 13.7452 14.7452 3 28 3C41.2548 3 52 13.7452 52 27V51H28C14.7452 51 4 40.2548 4 27Z" fill="#373295"/>
<path d="M4 27C4 13.7452 14.7452 3 28 3C41.2548 3 52 13.7452 52 27V51H28C14.7452 51 4 40.2548 4 27Z" stroke="white"/>
</g>
<path d="M16.7393 32.863C15.9823 32.8638 15.2193 32.927 14.47 32.8517C13.2677 32.731 12.2624 31.8705 12 30.7504V30.5487C12 30.5487 12 27.3309 12 25.7218C12.1741 25.1479 12.42 24.6198 12.8609 24.1908C13.3912 23.6748 14.0271 23.4329 14.7496 23.4063C15.2875 23.3862 15.8263 23.3946 16.3646 23.3906C16.3863 23.3934 16.4076 23.3963 16.4292 23.3991L16.4585 23.3979L16.4878 23.3999C16.4545 23.4977 16.422 23.5955 16.3883 23.6929C16.0397 24.7011 15.8122 25.7399 15.7601 26.8017C15.7107 27.801 15.744 28.8044 15.7561 29.8062C15.7593 30.0823 15.811 30.3588 15.8503 30.6337C15.9667 31.4487 16.3426 32.1603 16.7393 32.863Z" fill="#D7D5F1"/>
<path d="M16.7393 32.8627C16.3426 32.16 15.9663 31.4484 15.8503 30.6333C15.811 30.3584 15.7593 30.0823 15.7561 29.8058C15.744 28.8045 15.7107 27.8007 15.7601 26.8013C15.8126 25.7396 16.0397 24.7004 16.3883 23.6926C16.422 23.5952 16.4545 23.4969 16.4878 23.3991C16.921 22.2485 17.5124 21.1863 18.2589 20.2111C18.2794 20.1877 18.2998 20.1644 18.3203 20.1411C19.1042 19.1964 19.9755 18.3528 20.992 17.6529C22.027 16.9401 23.1366 16.3948 24.3321 16.0325C25.5239 15.6711 26.7443 15.4699 27.9955 15.5037C27.9935 17.5495 27.9915 19.5953 27.9899 21.6411C27.5009 21.6427 27.0119 21.6395 26.5228 21.6475C25.4433 21.6649 24.3546 21.6061 23.2863 21.7272C21.6098 21.9172 20.3393 22.8498 19.4299 24.2492C18.6777 25.4067 18.4098 26.6959 18.6268 28.0663C18.8707 29.6054 19.614 30.8487 20.8709 31.7768C21.9227 32.5536 23.1146 32.8655 24.4023 32.8671C25.599 32.8687 26.7956 32.8695 27.9927 32.8703C27.9943 33.8089 27.9963 34.7475 27.9979 35.6865C25.9267 35.6873 23.8543 35.7356 21.7851 35.6748C19.7617 35.6157 18.1221 34.7302 16.9142 33.0792C16.8593 33.0048 16.7979 32.9351 16.7393 32.8627Z" fill="#D44FC7"/>
<path d="M27.9979 35.6869C27.9963 34.7483 27.9942 33.8097 27.9926 32.8708C27.9926 32.8708 27.9991 32.8643 27.9987 32.8643C29.3478 32.8655 30.6969 32.8675 32.0464 32.8647C32.1342 32.8647 32.2217 32.8273 32.3095 32.8076C32.4343 32.8031 32.5615 32.8136 32.683 32.7919C34.1059 32.5375 35.311 31.8919 36.2052 30.7364C37.2386 29.401 37.6325 27.8929 37.3337 26.2169C37.099 24.9004 36.4423 23.821 35.4454 22.9589C34.54 22.1756 33.4725 21.7015 32.2754 21.6592C30.8509 21.6093 29.4236 21.6484 27.9975 21.6492L27.9902 21.6415C27.9922 19.5957 27.9942 17.5499 27.9963 15.5041C30.0522 15.4651 31.9838 15.9589 33.795 16.9148C35.1474 17.6284 36.3396 18.5557 37.3188 19.7442C37.4308 19.8803 37.5531 20.0079 37.6707 20.1395C37.6923 20.1628 37.714 20.1858 37.7356 20.2091C38.4589 21.198 39.0486 22.2614 39.5044 23.3996C39.924 24.543 40.1675 25.7311 40.2245 26.9398C40.2758 28.0293 40.2208 29.1257 40.1755 30.2176C40.1354 31.1844 39.7487 32.0437 39.2468 32.8551C38.3976 34.1007 37.2759 34.9922 35.8241 35.4132C35.3126 35.5617 34.7699 35.668 34.2395 35.6752C32.1591 35.705 30.0783 35.6873 27.9979 35.6869Z" fill="#C12FB3"/>
<path d="M39.2466 32.8562C39.748 32.0448 40.1352 31.1855 40.1753 30.2187C40.2206 29.1268 40.2756 28.0304 40.2242 26.9409C40.1672 25.7323 39.9237 24.5441 39.5041 23.4007L39.533 23.3979L39.5623 23.4003C39.5836 23.3971 39.6048 23.3938 39.6261 23.3906C40.1251 23.3946 40.6246 23.3967 41.1236 23.4035C42.5377 23.4232 43.7689 24.3775 43.9317 25.8377C43.9558 26.053 43.9883 26.2696 43.9883 26.4857C43.9903 27.8006 43.9839 29.1159 43.9803 30.4308C43.8327 31.1042 43.5707 31.7228 43.0231 32.1651C42.7443 32.3905 42.417 32.5551 42.1113 32.7471C41.1625 32.9443 40.203 32.8574 39.2466 32.8562Z" fill="#D7D5F1"/>
<path d="M30.6803 42.7216C29.6365 42.7449 28.6552 41.7572 28.4739 40.724C28.2713 39.5705 29.208 38.1353 30.4857 38.0645C31.3651 38.0657 32.2448 38.0665 33.1242 38.0677C33.9112 38.1321 34.4656 38.5571 34.8744 39.2063C34.9382 39.3077 34.9964 39.4132 35.0574 39.517C35.2403 40.1304 35.2644 40.7385 34.9984 41.337C34.9952 41.3531 34.9924 41.3692 34.99 41.3853C34.6297 42.0321 34.109 42.4785 33.3853 42.664C33.2589 42.6966 33.1258 42.703 32.9962 42.7216C32.2244 42.7216 31.4525 42.7216 30.6803 42.7216Z" fill="#FAC7D3"/>
<path d="M34.9985 41.3357C35.2645 40.7368 35.2404 40.1287 35.0575 39.5157L35.0519 39.4944C36.1788 39.4964 37.3056 39.4984 38.4325 39.5C40.2213 39.306 41.6819 38.1106 42.0389 36.2922C42.1472 35.7408 42.1051 35.158 42.1143 34.5893C42.1244 33.9751 42.1135 33.3606 42.1119 32.746C42.4172 32.554 42.745 32.3894 43.0238 32.164C43.5714 31.7217 43.8329 31.103 43.9809 30.4297C43.9841 32.2042 44.0231 33.98 43.9793 35.7537C43.9384 37.4188 43.2436 38.8202 41.9948 39.9129C41.107 40.6897 40.0672 41.1816 38.8838 41.3313C38.7542 41.3478 38.6242 41.3639 38.4947 41.38C38.4277 41.3631 38.3603 41.3313 38.2933 41.3313C37.1945 41.3301 36.0965 41.3333 34.9985 41.3357Z" fill="#B2AFE4"/>
<path d="M39.5623 23.3988L39.533 23.3963C39.533 23.3963 39.5037 23.3992 39.5041 23.3992C39.0484 22.2609 38.4587 21.1976 37.7354 20.2087C37.7334 19.411 37.7314 18.6129 37.729 17.8151C37.7763 17.4569 38.0724 17.1076 38.3592 17.071C38.9353 16.9977 39.3132 17.172 39.4901 17.5922C39.5134 17.6477 39.5382 17.7028 39.5623 17.758C39.5623 19.638 39.5623 21.5184 39.5623 23.3988Z" fill="#FAC7D3"/>
<path d="M18.2593 20.2118C17.5123 21.187 16.921 22.2492 16.4882 23.3999L16.4589 23.3979L16.4296 23.3991C16.4296 21.5191 16.4292 19.6387 16.4292 17.7587C16.5006 17.4065 16.7935 17.0914 17.0791 17.0713C17.7153 17.0266 17.942 17.1457 18.1815 17.5873C18.2196 17.6573 18.2356 17.7394 18.2617 17.8163C18.2609 18.6148 18.2601 19.4133 18.2593 20.2118Z" fill="#FAC7D3"/>
<path d="M27.993 32.8698C26.7963 32.8686 25.5996 32.8682 24.4026 32.8666C23.1144 32.865 21.923 32.5527 20.8711 31.7763C19.6139 30.8478 18.8705 29.6045 18.627 28.0658C18.41 26.6954 18.678 25.4062 19.4302 24.2487C20.3396 22.8493 21.6101 21.9167 23.2865 21.7268C24.3548 21.6056 25.4436 21.6644 26.5231 21.6471C27.0121 21.6394 27.5011 21.6426 27.9901 21.6406L27.9974 21.6483C27.9938 22.2504 27.9901 22.8529 27.9869 23.455C26.7554 23.4582 25.5238 23.4598 24.2926 23.4663C24.1727 23.4671 24.0528 23.4985 23.9332 23.5158C23.6143 23.581 23.2857 23.6156 22.9784 23.7162C21.5355 24.1887 20.7223 25.2469 20.4559 26.693C20.3031 27.5233 20.4708 28.36 20.9313 29.1022C21.6121 30.199 22.5789 30.8462 23.8738 30.9705C24.1013 30.9742 24.3283 30.9794 24.5558 30.9806C25.7027 30.9866 26.85 30.9915 27.997 30.9971C27.9982 31.5988 27.9994 32.2005 28.0002 32.8026C27.9978 32.8228 27.9974 32.8433 27.9994 32.8634L27.993 32.8698Z" fill="#D7E7FE"/>
<path d="M27.9873 23.4547C27.9909 22.8526 27.9945 22.2501 27.9981 21.648C29.4243 21.6476 30.8516 21.6081 32.2761 21.6581C33.4732 21.6999 34.5411 22.1744 35.4461 22.9577C36.443 23.8202 37.0997 24.8996 37.3344 26.2157C37.6332 27.8917 37.2393 29.3998 36.2059 30.7352C35.3117 31.8907 34.1066 32.5363 32.6837 32.7907C32.5621 32.8124 32.4346 32.8019 32.3102 32.8064C30.8737 32.8052 29.4371 32.8036 28.0005 32.8023C27.9993 32.2006 27.9981 31.5989 27.9973 30.9968C27.9961 30.9864 27.9953 30.9759 27.9953 30.9654C29.2433 30.9715 30.491 30.9807 31.739 30.9803C31.9845 30.9803 32.234 30.9638 32.4751 30.9191C34.8006 30.4865 36.2187 28.0563 35.2515 25.7762C34.6654 24.3945 33.5598 23.6519 32.0623 23.5151C31.9941 23.4982 31.9255 23.4668 31.8573 23.4668C30.5732 23.4664 29.2891 23.4692 28.0046 23.4716L27.9873 23.4547Z" fill="#D7D5F1"/>
<path d="M28.0002 32.8027C29.4368 32.8039 30.8733 32.8056 32.3099 32.8068C32.222 32.8269 32.1346 32.8639 32.0467 32.8643C30.6976 32.8671 29.3485 32.8651 27.999 32.8639C27.9974 32.8434 27.9978 32.8229 28.0002 32.8027Z" fill="#AEC2E1"/>
<path d="M23.8731 30.9723C22.5781 30.8476 21.6113 30.2008 20.9305 29.104C20.4696 28.3618 20.3019 27.5251 20.4552 26.6948C20.7215 25.2482 21.5351 24.1905 22.9777 23.718C23.285 23.6174 23.6135 23.5828 23.9324 23.5176C25.2872 23.5224 26.6423 23.5272 27.997 23.5321C27.9966 25.9957 27.9966 28.4596 27.9962 30.9232C26.7313 30.9232 25.4661 30.9224 24.2012 30.9256C24.0921 30.9256 23.9826 30.9558 23.8731 30.9723ZM25.2699 27.2611C25.2454 27.0047 25.2659 26.733 25.1869 26.4951C25.0557 26.1015 24.5956 25.8958 24.1631 25.9787C23.7708 26.054 23.4538 26.4215 23.4346 26.8433C23.4226 27.1029 23.429 27.3637 23.433 27.6241C23.4394 28.0676 23.7038 28.3244 24.0805 28.4842C24.4146 28.6259 24.7003 28.4943 24.969 28.2954C25.3341 28.0242 25.2402 27.6305 25.2699 27.2611Z" fill="#00429D"/>
<path d="M23.873 30.9716C23.9826 30.9551 24.0921 30.9249 24.2016 30.9245C25.4665 30.9209 26.7317 30.9221 27.9966 30.9221C27.9982 30.937 27.9974 30.9519 27.9942 30.9667C27.9942 30.9772 27.995 30.9877 27.9962 30.9981C26.8493 30.9929 25.7019 30.9877 24.555 30.9816C24.328 30.9804 24.1005 30.9748 23.873 30.9716Z" fill="#22579E"/>
<path d="M27.9977 23.5303C26.6429 23.5255 25.2878 23.5207 23.9331 23.5159C24.0531 23.4985 24.1726 23.4668 24.2925 23.4663C25.5241 23.4595 26.7557 23.4579 27.9868 23.4551L28.0033 23.4724C27.9977 23.4877 27.9937 23.5038 27.9909 23.5199L27.9977 23.5303Z" fill="#9FB8DA"/>
<path d="M27.9948 30.9679C27.998 30.953 27.9988 30.9381 27.9972 30.9232C27.9976 28.4596 27.9976 25.9957 27.998 23.5321L27.9912 23.5216C29.3479 23.5204 30.7047 23.5188 32.0614 23.5176C33.5589 23.6544 34.6649 24.397 35.2506 25.7787C36.2178 28.0588 34.7997 30.489 32.4742 30.9216C32.2331 30.9663 31.9836 30.9828 31.7381 30.9828C30.4904 30.9828 29.2424 30.9735 27.9948 30.9679ZM32.5436 27.2321C32.5488 27.2321 32.554 27.2321 32.5588 27.2321C32.5588 27.1069 32.5641 26.9813 32.558 26.8566C32.5368 26.4323 32.2299 26.0609 31.8392 25.9804C31.4107 25.8922 30.9803 26.083 30.803 26.4867C30.5899 26.9721 30.6164 27.4836 30.7857 27.973C30.9069 28.3232 31.3469 28.5731 31.6771 28.5417C32.075 28.5039 32.4646 28.1819 32.538 27.7923C32.5721 27.6124 32.5436 27.4196 32.5436 27.2321Z" fill="#373295"/>
<path d="M32.0614 23.5172C30.7047 23.5184 29.3479 23.52 27.9912 23.5212C27.994 23.5051 27.998 23.489 28.0036 23.4737C29.2878 23.4713 30.5719 23.4681 31.8564 23.4689C31.9246 23.4689 31.9928 23.5003 32.0614 23.5172Z" fill="#577EB6"/>
<path d="M25.27 27.2599C25.2403 27.6293 25.3346 28.023 24.9683 28.2938C24.6996 28.4927 24.4139 28.6243 24.0798 28.4826C23.7031 28.3228 23.4387 28.0664 23.4323 27.6225C23.4287 27.3625 23.4223 27.1017 23.4339 26.8417C23.4532 26.4199 23.7701 26.0524 24.1624 25.9772C24.5949 25.8942 25.055 26.0999 25.1862 26.4935C25.266 26.7322 25.2455 27.0035 25.27 27.2599Z" fill="white"/>
<path d="M32.5575 27.25C32.5575 27.25 32.5719 27.6111 32.5374 27.7922C32.4636 28.1814 32.0745 28.5038 31.6765 28.5417C31.3468 28.5731 30.9063 28.3231 30.7852 27.973C30.6159 27.4835 30.5894 26.972 30.8024 26.4866C30.9797 26.0829 31.4102 25.8917 31.8386 25.9803C32.2297 26.0608 32.5366 26.4323 32.5575 26.8565C32.5635 26.9812 32.5583 27.1068 32.5583 27.232C32.5588 27.1562 32.5575 27.25 32.5575 27.25Z" fill="white"/>
<defs>
<filter id="filter0_dddd_11564_348574" x="0.5" y="0.5" width="54" height="54" filterUnits="userSpaceOnUse" color-interpolation-filters="sRGB">
<feFlood flood-opacity="0" result="BackgroundImageFix"/>
<feColorMatrix in="SourceAlpha" type="matrix" values="0 0 0 0 0 0 0 0 0 0 0 0 0 0 0 0 0 0 127 0" result="hardAlpha"/>
<feOffset dx="-1"/>
<feGaussianBlur stdDeviation="1"/>
<feComposite in2="hardAlpha" operator="out"/>
<feColorMatrix type="matrix" values="0 0 0 0 0 0 0 0 0 0 0 0 0 0 0 0 0 0 0.08 0"/>
<feBlend mode="normal" in2="BackgroundImageFix" result="effect1_dropShadow_11564_348574"/>
<feColorMatrix in="SourceAlpha" type="matrix" values="0 0 0 0 0 0 0 0 0 0 0 0 0 0 0 0 0 0 127 0" result="hardAlpha"/>
<feOffset dx="1"/>
<feGaussianBlur stdDeviation="0.5"/>
<feComposite in2="hardAlpha" operator="out"/>
<feColorMatrix type="matrix" values="0 0 0 0 0 0 0 0 0 0 0 0 0 0 0 0 0 0 0.08 0"/>
<feBlend mode="normal" in2="effect1_dropShadow_11564_348574" result="effect2_dropShadow_11564_348574"/>
<feColorMatrix in="SourceAlpha" type="matrix" values="0 0 0 0 0 0 0 0 0 0 0 0 0 0 0 0 0 0 127 0" result="hardAlpha"/>
<feOffset dy="-1"/>
<feGaussianBlur stdDeviation="0.5"/>
<feComposite in2="hardAlpha" operator="out"/>
<feColorMatrix type="matrix" values="0 0 0 0 0 0 0 0 0 0 0 0 0 0 0 0 0 0 0.08 0"/>
<feBlend mode="normal" in2="effect2_dropShadow_11564_348574" result="effect3_dropShadow_11564_348574"/>
<feColorMatrix in="SourceAlpha" type="matrix" values="0 0 0 0 0 0 0 0 0 0 0 0 0 0 0 0 0 0 127 0" result="hardAlpha"/>
<feOffset dy="1"/>
<feGaussianBlur stdDeviation="1"/>
<feComposite in2="hardAlpha" operator="out"/>
<feColorMatrix type="matrix" values="0 0 0 0 0 0 0 0 0 0 0 0 0 0 0 0 0 0 0.08 0"/>
<feBlend mode="normal" in2="effect3_dropShadow_11564_348574" result="effect4_dropShadow_11564_348574"/>
<feBlend mode="normal" in="SourceGraphic" in2="effect4_dropShadow_11564_348574" result="shape"/>
</filter>
</defs>
</svg>
