<svg width="91" height="91" viewBox="0 0 91 91" fill="none" xmlns="http://www.w3.org/2000/svg">
<ellipse cx="45.0867" cy="45.0867" rx="45.0867" ry="45.0867" fill="#ECEBFF"/>
<g clip-path="url(#clip0_15759_7006)">
<path d="M64.5286 26.4712C59.9004 21.8429 52.3707 21.8429 47.7424 26.4712L40.8457 33.3679C39.6422 34.5713 38.667 36.1068 38.0385 37.9814C38.028 37.9849 38.0178 37.9903 38.0073 37.9938C36.5778 42.294 37.6619 46.9703 40.8457 50.154C41.7969 51.1052 42.9161 51.8885 44.1283 52.4668L44.5759 52.0191C46.124 50.471 46.124 47.9719 44.5759 46.4237C42.0021 43.8498 42.0021 39.6718 44.5759 37.098L51.4726 30.2013C54.0465 27.6275 58.2244 27.6275 60.7983 30.2013C63.3721 32.7752 63.3721 36.9531 60.7983 39.527L55.5616 44.7637C56.2598 46.9227 56.4078 49.209 56.0698 51.4343C56.6213 51.0499 57.152 50.6338 57.6318 50.154L64.5285 43.2573C69.1568 38.6291 69.1568 31.0993 64.5286 26.4712Z" fill="#29256E"/>
<path d="M50.1712 40.8284C49.22 39.8771 48.101 39.0938 46.8701 38.5342L46.441 38.9633C44.893 40.5113 44.8929 43.0105 46.441 44.5587C49.0149 47.1326 49.0149 51.3106 46.441 53.8844C44.2623 56.063 41.6044 58.7214 39.5271 60.7986C36.9533 63.3725 32.7754 63.3725 30.2015 60.7986C27.6276 58.2248 27.6276 54.0469 30.2015 51.473L35.4554 46.2187C34.7571 44.0597 34.6092 41.7733 34.9472 39.548C34.3956 39.9326 33.8649 40.3486 33.385 40.8284L26.4712 47.7427C21.8429 52.3709 21.8429 59.9006 26.4712 64.5289C31.0994 69.1572 38.6291 69.1571 43.2574 64.5289L50.1712 57.6146C51.3747 56.411 52.3499 54.8757 52.9784 53.0011C52.9889 52.9975 52.9991 52.9922 53.0097 52.9887C54.4391 48.6884 53.355 44.0121 50.1712 40.8284Z" fill="#29256E"/>
<path d="M61.362 59.4796L59.4969 57.6145C58.9814 57.099 58.1471 57.099 57.6317 57.6145C57.1162 58.13 57.1162 58.9643 57.6317 59.4796L59.4969 61.3448C60.0123 61.8602 60.8466 61.8602 61.362 61.3448C61.8774 60.8293 61.8774 59.9951 61.362 59.4796Z" fill="#29256E"/>
<path d="M33.3855 31.5026L31.5203 29.6375C31.0048 29.122 30.1706 29.122 29.6552 29.6375C29.1397 30.1529 29.1397 30.9872 29.6552 31.5026L31.5203 33.3677C32.0358 33.8832 32.87 33.8832 33.3855 33.3677C33.901 32.8522 33.901 32.018 33.3855 31.5026Z" fill="#29256E"/>
<path d="M66.2323 49.6785L63.6841 48.9954C62.98 48.8068 62.257 49.224 62.0684 49.928C61.8798 50.6363 62.3018 51.3565 63.0011 51.5437L65.5493 52.2267C66.2533 52.4152 66.9763 51.9981 67.1649 51.2941C67.3515 50.5901 66.9362 49.8634 66.2323 49.6785Z" fill="#29256E"/>
<path d="M28.0155 39.4386L25.4673 38.7555C24.7633 38.567 24.0402 38.9841 23.8517 39.6881C23.663 40.3962 24.0849 41.1165 24.7843 41.3037L27.3325 41.9868C28.0365 42.1753 28.7596 41.7582 28.9481 41.0542C29.1357 40.3493 28.7168 39.6225 28.0155 39.4386Z" fill="#29256E"/>
<path d="M52.2443 65.5322L51.5613 62.9839C51.3719 62.2772 50.6497 61.8628 49.9457 62.0513C49.2417 62.2399 48.8245 62.9629 49.0131 63.6669L49.6962 66.2152C49.8834 66.9145 50.6036 67.3364 51.3118 67.1478C52.0158 66.9592 52.4328 66.2362 52.2443 65.5322Z" fill="#29256E"/>
<path d="M42.0041 27.3152L41.321 24.767C41.1334 24.0603 40.4094 23.6477 39.7054 23.8344C39.0014 24.0229 38.5843 24.746 38.7728 25.45L39.4559 27.9982C39.5178 28.2295 39.6381 28.4299 39.7965 28.5884C40.1189 28.9108 40.5997 29.0565 41.0714 28.9308C41.7755 28.7424 42.1927 28.0192 42.0041 27.3152Z" fill="#29256E"/>
</g>
<defs>
<clipPath id="clip0_15759_7006">
<rect width="45" height="45" fill="white" transform="translate(23 23)"/>
</clipPath>
</defs>
</svg>
