<svg width="281" height="200" viewBox="0 0 281 200" fill="none" xmlns="http://www.w3.org/2000/svg">
<path fill-rule="evenodd" clip-rule="evenodd" d="M54.5691 156.112C39.4519 148.421 25.888 130.221 28.9856 113.556C32.1845 96.3456 58.9303 95.6721 68.5225 81.0419C78.6464 65.6006 66.9 35.7107 84.2191 29.3121C101.377 22.973 112.648 50.5642 129.07 58.6724C141.477 64.7984 156.889 62.0108 167.769 70.565C180.776 80.7917 201.949 95.5376 195.071 110.564C186.725 128.802 157.648 121.39 140.083 131.057C133.231 134.827 132.616 145.312 125.611 148.791C118.15 152.496 109.558 149.477 101.268 150.332C85.2734 151.98 68.9132 163.41 54.5691 156.112Z" fill="#EF406A" fill-opacity="0.14"/>
<path fill-rule="evenodd" clip-rule="evenodd" d="M205.365 83.3287C204.063 91.9749 213.749 100.677 210.04 108.593C206.465 116.223 196.527 120.693 188.141 120.09C179.837 119.492 175.631 109.746 168.412 105.596C163.297 102.656 153.621 105.174 152.208 99.4369C150.474 92.3982 163.741 87.7499 162.267 80.6517C160.576 72.5048 145.406 71.9067 144.771 63.6091C144.271 57.085 154.61 55.5782 160.072 51.9898C165.683 48.3038 170.596 43.1678 177.244 42.2762C184.349 41.3234 191.293 43.9 197.789 46.9315C205.171 50.3762 215.557 52.9422 217.22 60.9321C218.977 69.3723 206.65 74.8013 205.365 83.3287Z" fill="#FAC2CF" fill-opacity="0.48"/>
<path d="M148.58 68.746V69.8052H165.527V68.746C165.527 66.4987 164.635 64.3433 163.046 62.7542C161.456 61.1651 159.301 60.2723 157.054 60.2723C154.806 60.2723 152.651 61.1651 151.062 62.7542C149.473 64.3433 148.58 66.4987 148.58 68.746V68.746ZM143.284 69.8052V68.746C143.284 65.094 144.735 61.5916 147.317 59.0093C149.899 56.4269 153.402 54.9762 157.054 54.9762C160.706 54.9762 164.208 56.4269 166.79 59.0093C169.373 61.5916 170.824 65.094 170.824 68.746V69.8052H194.656C195.358 69.8052 196.032 70.0842 196.528 70.5808C197.025 71.0774 197.304 71.751 197.304 72.4533C197.304 73.1556 197.025 73.8291 196.528 74.3257C196.032 74.8223 195.358 75.1013 194.656 75.1013H188.476L184.24 125.639C183.918 129.477 182.166 133.053 179.331 135.66C176.496 138.267 172.785 139.714 168.934 139.714H145.174C141.323 139.713 137.612 138.266 134.778 135.659C131.944 133.053 130.192 129.476 129.87 125.639L125.633 75.1013H119.452C118.749 75.1013 118.076 74.8223 117.579 74.3257C117.082 73.8291 116.803 73.1556 116.803 72.4533C116.803 71.751 117.082 71.0774 117.579 70.5808C118.076 70.0842 118.749 69.8052 119.452 69.8052H143.284ZM135.147 125.196C135.358 127.71 136.506 130.053 138.363 131.761C140.22 133.469 142.651 134.417 145.174 134.418H168.934C171.457 134.418 173.889 133.47 175.746 131.762C177.604 130.054 178.752 127.711 178.963 125.196L183.161 75.1013H130.946L135.147 125.196V125.196ZM151.758 89.4008C151.758 89.053 151.689 88.7087 151.556 88.3874C151.423 88.0661 151.228 87.7742 150.982 87.5283C150.736 87.2824 150.444 87.0874 150.123 86.9543C149.802 86.8212 149.457 86.7527 149.11 86.7527C148.762 86.7527 148.418 86.8212 148.096 86.9543C147.775 87.0874 147.483 87.2824 147.237 87.5283C146.991 87.7742 146.796 88.0661 146.663 88.3874C146.53 88.7087 146.462 89.053 146.462 89.4008V120.118C146.462 120.466 146.53 120.81 146.663 121.131C146.796 121.453 146.991 121.745 147.237 121.991C147.483 122.236 147.775 122.431 148.096 122.565C148.418 122.698 148.762 122.766 149.11 122.766C149.457 122.766 149.802 122.698 150.123 122.565C150.444 122.431 150.736 122.236 150.982 121.991C151.228 121.745 151.423 121.453 151.556 121.131C151.689 120.81 151.758 120.466 151.758 120.118V89.4008ZM164.998 86.7527C166.46 86.7527 167.646 87.9391 167.646 89.4008V120.118C167.646 120.82 167.367 121.494 166.87 121.991C166.374 122.487 165.7 122.766 164.998 122.766C164.296 122.766 163.622 122.487 163.125 121.991C162.629 121.494 162.35 120.82 162.35 120.118V89.4008C162.35 87.9391 163.536 86.7527 164.998 86.7527Z" fill="#EF406A"/>
</svg>
