<svg width="29" height="35" viewBox="0 0 29 35" fill="none" xmlns="http://www.w3.org/2000/svg">
<path d="M27.6004 1.67794L27.9427 1.33596L27.6004 1.67794ZM27.6004 1.67794C27.3828 1.46063 27.0884 1.33776 26.781 1.33596H26.7761H6.77638C6.46703 1.33637 6.17042 1.45945 5.95152 1.6781C5.73288 1.89699 5.60979 2.19359 5.60938 2.50294V19.7249C5.60938 19.7555 5.63428 19.7804 5.66493 19.7804C5.69558 19.7804 5.72049 19.7555 5.72049 19.7249V2.50264V2.50224C5.72096 1.91962 6.19302 1.44756 6.77564 1.44709L6.77604 1.44709L26.776 1.44709H26.7764C27.3591 1.44756 27.8311 1.91962 27.8316 2.50224V2.50264V29.1693V29.1697C27.8311 29.7523 27.3591 30.2244 26.7764 30.2249H26.776H15.1094C15.0787 30.2249 15.0538 30.2498 15.0538 30.2804C15.0538 30.3111 15.0787 30.336 15.1094 30.336H26.7755C27.0849 30.3356 27.3816 30.2125 27.6006 29.9938C27.8193 29.7749 27.9424 29.4782 27.9427 29.1687V2.50318C27.9424 2.19382 27.8193 1.89717 27.6007 1.67822C27.6006 1.67813 27.6005 1.67803 27.6004 1.67794ZM27.9654 1.33596H27.9427H27.9654ZM27.9654 1.33596C28.2706 1.64732 28.4422 2.06603 28.4427 2.50262L27.9654 1.33596Z" fill="#EF406A" stroke="#EF406A"/>
<path d="M9.00087 4.17188H24.5564C24.8632 4.17188 25.112 4.47867 25.112 4.72743V8.06076C25.112 8.36756 24.8632 8.61632 24.5564 8.61632H9.00087C8.69407 8.61632 8.44531 8.30952 8.44531 8.06076V4.72743C8.44531 4.42064 8.69407 4.17188 9.00087 4.17188Z" fill="#EF406A"/>
<path d="M24.5512 10.2812H12.329C12.0222 10.2812 11.7734 10.53 11.7734 10.8368C11.7734 11.1436 12.0222 11.3924 12.329 11.3924H24.5512C24.858 11.3924 25.1068 11.1436 25.1068 10.8368C25.1068 10.53 24.858 10.2812 24.5512 10.2812Z" fill="#EF406A"/>
<path d="M9.00087 13.6111H24.5564C24.8632 13.6111 25.112 13.3623 25.112 13.0556C25.112 12.7488 24.8632 12.5 24.5564 12.5H9.00087C8.69407 12.5 8.44531 12.7488 8.44531 13.0556C8.44531 13.3623 8.69407 13.6111 9.00087 13.6111Z" fill="#EF406A"/>
<path d="M9.00087 15.8377H24.5564C24.8632 15.8377 25.112 15.5889 25.112 15.2821C25.112 14.9753 24.8632 14.7266 24.5564 14.7266H9.00087C8.69407 14.7266 8.44531 14.9753 8.44531 15.2821C8.44531 15.5889 8.69407 15.8377 9.00087 15.8377Z" fill="#EF406A"/>
<path d="M10.6658 10.8368C10.6658 11.1436 10.417 11.3924 10.1102 11.3924C9.80345 11.3924 9.55469 11.1436 9.55469 10.8368C9.55469 10.53 9.80345 10.2812 10.1102 10.2812C10.417 10.2812 10.6658 10.53 10.6658 10.8368Z" fill="#EF406A"/>
<path d="M9.00087 18.0564H21.7786C22.0854 18.0564 22.3342 17.8077 22.3342 17.5009C22.3342 17.1941 22.0854 16.9453 21.7786 16.9453H9.00087C8.69407 16.9453 8.44531 17.1941 8.44531 17.5009C8.44531 17.8077 8.69407 18.0564 9.00087 18.0564Z" fill="#EF406A"/>
<path d="M16.7734 25.8351C16.7734 25.9824 16.832 26.1238 16.9361 26.2279C17.0403 26.3321 17.1817 26.3906 17.329 26.3906C18.0844 26.3879 18.8317 26.2366 19.5287 25.945C20.1123 26.2215 20.8576 26.3906 21.7734 26.3906H22.8845C23.1913 26.3906 23.4401 26.1419 23.4401 25.8351C23.4401 25.5283 23.1913 25.2795 22.8845 25.2795H21.7734C21.3984 25.2805 21.0247 25.2371 20.6598 25.1506C21.0306 24.7252 21.2295 24.1771 21.2179 23.6128C21.2179 22.9767 21.0594 22.4293 20.7595 22.0295C20.455 21.6235 20.0145 21.3906 19.5512 21.3906C19.0879 21.3906 18.6475 21.6235 18.3429 22.0295C18.0431 22.4293 17.8846 22.9767 17.8846 23.6128C17.8898 24.1711 18.0917 24.7095 18.4545 25.1337C18.085 25.2205 17.7075 25.2693 17.328 25.2795C17.0217 25.28 16.7735 25.5285 16.7735 25.8351L16.7734 25.8351ZM19.5512 22.5017C19.8206 22.5017 20.1068 22.8911 20.1068 23.6129C20.1068 23.7959 20.1068 24.2607 19.5631 24.6624C19.2139 24.3963 18.9957 24.0454 18.9957 23.6129C18.9957 22.8911 19.2819 22.5017 19.5512 22.5017Z" fill="#EF406A"/>
<path d="M25.1111 25.8368C25.1111 26.1436 24.8623 26.3924 24.5556 26.3924C24.2488 26.3924 24 26.1436 24 25.8368C24 25.53 24.2488 25.2812 24.5556 25.2812C24.8623 25.2812 25.1111 25.53 25.1111 25.8368Z" fill="#EF406A"/>
<path d="M7.33073 20.8359C5.5626 20.8359 3.86692 21.5383 2.6167 22.7886C1.36647 24.0389 0.664062 25.7345 0.664062 27.5026C0.664062 29.2707 1.36641 30.9664 2.6167 32.2166C3.86698 33.4669 5.5626 34.1693 7.33073 34.1693C9.09885 34.1693 10.7945 33.4669 12.0448 32.2166C13.295 30.9663 13.9974 29.2707 13.9974 27.5026C13.9954 25.735 13.2923 24.0406 12.0425 22.7908C10.7928 21.541 9.09834 20.8379 7.33073 20.8359ZM11.0569 26.2288L7.16806 30.1177C7.06389 30.2219 6.92252 30.2804 6.7752 30.2804C6.62788 30.2804 6.48651 30.2219 6.38235 30.1177L4.71568 28.451C4.49866 28.234 4.49866 27.8823 4.71568 27.6653C4.9327 27.4483 5.28438 27.4483 5.50139 27.6653L6.77517 28.9391L10.2712 25.4431C10.4882 25.2261 10.8399 25.2261 11.0569 25.4431C11.2739 25.6601 11.2739 26.0118 11.0569 26.2288H11.0569Z" fill="#EF406A"/>
</svg>
