<svg width="29" height="37" viewBox="0 0 29 37" fill="none" xmlns="http://www.w3.org/2000/svg">
<path d="M13.5943 27.0304C13.4056 26.4268 13.4812 25.8611 13.6319 25.4084H3.48424C2.84297 25.4084 2.31487 24.8803 2.31487 24.2391V3.90596C2.31487 3.26469 2.84299 2.73659 3.48424 2.73659H13.5188C13.8206 2.73659 14.0845 3.00078 14.0845 3.30234V7.07472C14.0845 7.9423 14.7634 8.62146 15.6313 8.62146H19.4036C19.7055 8.62146 19.9694 8.88565 19.9694 9.18721V17.1092C20.2336 16.9961 20.5351 16.9205 20.9125 16.9205C21.403 16.9205 21.8179 17.0713 22.1574 17.26V8.73441C22.1574 7.82897 21.8179 6.99898 21.1766 6.3956L16.3477 1.56669C15.7064 0.925418 14.8765 0.585938 13.971 0.585938H3.48382C1.63529 0.585938 0.164062 2.09475 0.164062 3.9057V24.2011C0.164062 26.0496 1.67288 27.5585 3.52148 27.5585H13.8578C13.7446 27.4075 13.6315 27.2567 13.5936 27.0301L13.5943 27.0304Z" fill="#EF406A"/>
<path d="M4.84391 21.7501C4.84391 22.3538 5.33439 22.844 5.93776 22.844H13.4825C13.4825 22.6553 13.5201 22.4666 13.5957 22.2782C13.8975 21.3728 14.6143 20.9202 15.1045 20.6562H5.93761C5.33396 20.6562 4.84375 21.1465 4.84375 21.7501L4.84391 21.7501Z" fill="#EF406A"/>
<path d="M17.4809 17.0314C17.4809 16.4277 16.9905 15.9375 16.3871 15.9375H5.93761C5.33396 15.9375 4.84375 16.428 4.84375 17.0314C4.84375 17.635 5.33424 18.1252 5.93761 18.1252H16.3871C16.9907 18.0876 17.4809 17.5971 17.4809 17.0314Z" fill="#EF406A"/>
<path d="M16.3871 11.1875H5.9376C5.33396 11.1875 4.84375 11.678 4.84375 12.2814C4.84375 12.885 5.33424 13.3752 5.9376 13.3752H16.3871C16.9907 13.3752 17.4809 12.8847 17.4809 12.2814C17.4809 11.678 16.9907 11.1875 16.3871 11.1875Z" fill="#EF406A"/>
<path d="M5.9376 8.65672H10.8038C11.4075 8.65672 11.8977 8.16623 11.8977 7.56287C11.8977 6.95923 11.4072 6.46901 10.8038 6.46901L5.9376 6.46875C5.33396 6.46875 4.84375 6.95924 4.84375 7.5626C4.84375 8.16625 5.33398 8.65673 5.9376 8.65673V8.65672Z" fill="#EF406A"/>
<path d="M17.8942 31.367C17.3285 31.367 16.8003 31.2163 16.3854 30.9144C15.9704 30.5747 15.7062 30.1976 15.5555 29.8203L13.4051 33.7059C13.1788 34.1208 13.4806 34.5734 13.9332 34.5358L15.857 34.385L16.7625 36.0825C16.9511 36.4975 17.5548 36.4975 17.7432 36.0825L19.9691 32.1591C19.441 31.9328 19.026 31.5178 18.7618 31.2537C18.4979 31.2916 18.2337 31.3671 17.8943 31.3671L17.8942 31.367Z" fill="#EF406A"/>
<path d="M28.417 33.7434L26.2666 29.8203C26.1158 30.1977 25.8516 30.5747 25.4367 30.8766C24.9841 31.1784 24.4936 31.3292 23.9278 31.3292C23.626 31.3292 23.3242 31.2916 23.0979 31.2537C22.8337 31.5179 22.419 31.9326 21.8906 32.1591L24.0786 36.1202C24.3049 36.5351 24.8709 36.4975 25.0594 36.1202L25.9648 34.4227L27.8886 34.5734C28.3039 34.6113 28.6055 34.1208 28.417 33.7435L28.417 33.7434Z" fill="#EF406A"/>
<path d="M22.4572 29.3657C22.9853 29.1771 23.8908 29.7052 24.3434 29.3657C24.796 29.0263 24.6076 28.0077 24.9471 27.5551C25.2865 27.1024 26.3051 26.9893 26.4938 26.4233C26.6825 25.8952 25.928 25.216 25.928 24.6126C25.928 24.0469 26.6825 23.3301 26.4938 22.8019C26.3051 22.2738 25.2865 22.123 24.9471 21.6702C24.6076 21.2175 24.8339 20.1989 24.3434 19.8595C23.8908 19.52 22.9854 20.0482 22.4572 19.8595C21.9291 19.6708 21.5141 18.7656 20.9105 18.7656C20.3447 18.7656 19.8919 19.7087 19.3637 19.8595C18.8356 20.0482 17.9302 19.52 17.4775 19.8595C17.0249 20.1989 17.2134 21.2175 16.8739 21.6702C16.5345 22.1228 15.5159 22.2359 15.3272 22.8019C15.1385 23.3301 15.8929 24.0092 15.8929 24.6126C15.8929 25.1784 15.1385 25.8952 15.3272 26.4233C15.5158 26.9514 16.5345 27.1022 16.8739 27.5551C17.2134 28.0077 16.9871 29.0263 17.4775 29.3657C17.9302 29.7052 18.8356 29.1771 19.3637 29.3657C19.8919 29.5544 20.3068 30.4596 20.9105 30.4596C21.4762 30.4972 21.9291 29.5542 22.4572 29.3657ZM21.4386 27.2909V27.8566C21.4386 27.9698 21.3255 28.0829 21.2123 28.0829H20.571C20.4579 28.0829 20.3447 27.9698 20.3447 27.8566V27.2909C19.7035 27.2153 19.1754 26.6872 19.0999 26.046C19.0999 25.9705 19.0999 25.9328 19.1375 25.8952C19.1751 25.8576 19.2506 25.8197 19.2883 25.8197H19.9295C20.0427 25.8197 20.1182 25.8952 20.1182 25.9705C20.1558 26.1212 20.3069 26.2347 20.4577 26.2347H21.0992C21.401 26.2347 21.6649 26.0083 21.6649 25.7442C21.6649 25.5934 21.6273 25.4423 21.5142 25.3292C21.401 25.216 21.25 25.1405 21.0992 25.1405H20.7218C19.8543 25.1405 19.1374 24.4992 19.0619 23.7069C18.9864 22.877 19.5524 22.1225 20.3824 21.9715V21.4058C20.3824 21.2926 20.4955 21.1795 20.6087 21.1795H21.25C21.3631 21.1795 21.4763 21.2926 21.4763 21.4058V21.9715C22.1175 22.047 22.6456 22.5752 22.7212 23.2164C22.7212 23.254 22.7212 23.3295 22.6835 23.3672C22.6459 23.4048 22.5704 23.4427 22.5327 23.4427H21.8915C21.7783 23.4427 21.7028 23.3672 21.7028 23.2919C21.6652 23.1411 21.5141 23.0277 21.3633 23.0277L20.7218 23.028C20.42 23.028 20.1561 23.2543 20.1561 23.5185C20.1561 23.6693 20.1937 23.8203 20.3068 23.9335C20.42 24.0466 20.571 24.1221 20.7218 24.1221H21.2123C21.6649 24.1221 22.0799 24.3108 22.3817 24.6502C22.6835 24.9897 22.8343 25.4426 22.7967 25.8951C22.6835 26.574 22.1554 27.1398 21.4386 27.2908L21.4386 27.2909Z" fill="#EF406A"/>
</svg>
