<svg width="20" height="20" viewBox="0 0 20 20" fill="none" xmlns="http://www.w3.org/2000/svg">
<g clip-path="url(#clip0_470_968)">
<path d="M18.9909 10.3823C18.9909 9.62765 18.9297 9.07695 18.7971 8.50586H10.1797V11.912H15.2379C15.136 12.7585 14.5853 14.0333 13.3615 14.8899L13.3443 15.0039L16.069 17.1147L16.2578 17.1335C17.9914 15.5324 18.9909 13.1766 18.9909 10.3823" fill="#4285F4"/>
<path d="M10.1788 19.3567C12.657 19.3567 14.7374 18.5408 16.2569 17.1335L13.3606 14.8898C12.5856 15.4304 11.5454 15.8077 10.1788 15.8077C7.75169 15.8077 5.69168 14.2066 4.95734 11.9936L4.8497 12.0028L2.01654 14.1954L1.97949 14.2984C3.48881 17.2966 6.58906 19.3567 10.1788 19.3567Z" fill="#34A853"/>
<path d="M4.95783 11.9936C4.76406 11.4225 4.65193 10.8106 4.65193 10.1784C4.65193 9.54603 4.76407 8.93416 4.94763 8.36307L4.9425 8.24144L2.07383 6.01361L1.97998 6.05825C1.35792 7.30245 1.00098 8.69962 1.00098 10.1784C1.00098 11.6571 1.35792 13.0542 1.97998 14.2984L4.95783 11.9936" fill="#FBBC05"/>
<path d="M10.1788 4.54894C11.9023 4.54894 13.0649 5.2934 13.7278 5.91553L16.3181 3.38637C14.7272 1.90764 12.657 1 10.1788 1C6.58906 1 3.48881 3.06001 1.97949 6.05825L4.94715 8.36307C5.69168 6.15007 7.75169 4.54894 10.1788 4.54894" fill="#EB4335"/>
</g>
<defs>
<clipPath id="clip0_470_968">
<rect width="18" height="18.42" fill="white" transform="translate(1 1)"/>
</clipPath>
</defs>
</svg>
