<svg width="218" height="32" viewBox="0 0 218 32" fill="none" xmlns="http://www.w3.org/2000/svg">
<path d="M4.37854 15.9766C1.76547 17.4423 0 20.2333 0 23.4412C0 28.1662 3.83064 31.9969 8.55572 31.9969H20.3708L4.67825 16.3044C4.57054 16.2013 4.4722 16.0936 4.37854 15.9766Z" fill="url(#paint0_linear_3191_51077)"/>
<path d="M40.6013 6.32811C36.9252 2.03386 31.198 -0.551112 24.7777 0.0998158C16.9994 0.886548 10.757 6.63718 9.13672 13.9753L20.9752 25.6031L40.6013 6.32811Z" fill="url(#paint1_linear_3191_51077)"/>
<path d="M51.0365 16.4141C50.3808 16.4141 49.6925 16.475 48.9713 16.6015H48.9619C48.976 16.4844 48.9853 16.3673 48.9947 16.2502C49.2148 12.9347 47.4259 9.947 44.6677 8.47656L26.9334 26.2108L21.1406 32.0036H51.0365C55.3401 32.0036 58.8335 28.5148 58.8335 24.2065C58.8335 19.9029 55.3401 16.4141 51.0365 16.4141Z" fill="url(#paint2_linear_3191_51077)"/>
<path d="M75.3199 30.0368C73.1423 29.4046 71.3909 28.5851 70.0703 27.5689L72.3884 22.427C73.6528 23.3542 75.156 24.0988 76.898 24.6608C78.6401 25.2227 80.3821 25.5037 82.1242 25.5037C84.0629 25.5037 85.4959 25.218 86.4231 24.642C87.3503 24.066 87.8139 23.3027 87.8139 22.3427C87.8139 21.6403 87.5423 21.0549 86.9897 20.596C86.4418 20.1324 85.7394 19.7624 84.8824 19.4768C84.0254 19.1958 82.8641 18.8867 81.4077 18.5495C79.1599 18.0157 77.3195 17.4818 75.8865 16.948C74.4535 16.4141 73.2219 15.5572 72.1964 14.3771C71.1708 13.197 70.6557 11.6235 70.6557 9.65666C70.6557 7.94271 71.1193 6.38798 72.0465 5.00183C72.9737 3.611 74.3692 2.51051 76.2424 1.691C78.1109 0.876165 80.3915 0.46875 83.0889 0.46875C84.9714 0.46875 86.8118 0.693532 88.61 1.14309C90.4083 1.59265 91.9817 2.2389 93.3304 3.08183L91.2231 8.26583C88.4976 6.72047 85.7722 5.94778 83.0467 5.94778C81.1361 5.94778 79.7218 6.25686 78.8087 6.875C77.8955 7.49315 77.4412 8.30798 77.4412 9.31949C77.4412 10.331 77.9657 11.085 79.0241 11.572C80.0777 12.0637 81.684 12.5507 83.8522 13.0284C86.1 13.5622 87.9404 14.0961 89.3734 14.6299C90.8063 15.1638 92.0333 16.0067 93.0635 17.1587C94.0891 18.3107 94.5995 19.8701 94.5995 21.837C94.5995 23.5228 94.1265 25.0635 93.1853 26.4497C92.244 27.8405 90.8297 28.9457 88.9519 29.7605C87.0693 30.5753 84.7794 30.9827 82.082 30.9827C79.7546 30.9827 77.4974 30.669 75.3199 30.0368Z" fill="url(#paint3_linear_3191_51077)"/>
<path d="M113.529 9.97414C115.411 11.6459 116.352 14.17 116.352 17.5418V30.4807H110.199V27.6569C108.963 29.7642 106.659 30.8179 103.287 30.8179C101.545 30.8179 100.032 30.5228 98.7587 29.9328C97.4802 29.3427 96.5062 28.5279 95.8318 27.4883C95.1575 26.4487 94.8203 25.2686 94.8203 23.948C94.8203 21.8407 95.6117 20.1829 97.1992 18.9747C98.7868 17.7665 101.236 17.1624 104.556 17.1624H109.782C109.782 15.7295 109.347 14.629 108.476 13.8563C107.605 13.0836 106.298 12.6949 104.556 12.6949C103.348 12.6949 102.158 12.8822 100.997 13.2616C99.831 13.6409 98.8383 14.156 98.0234 14.8022L95.6632 10.2083C96.8995 9.33726 98.384 8.66292 100.112 8.18526C101.84 7.7076 103.615 7.46877 105.441 7.46877C108.949 7.46409 111.646 8.30233 113.529 9.97414ZM107.923 25.6104C108.794 25.0906 109.412 24.3226 109.778 23.3158V20.9931H105.268C102.571 20.9931 101.222 21.8782 101.222 23.6483C101.222 24.4912 101.55 25.1609 102.215 25.6479C102.875 26.1396 103.779 26.3878 104.935 26.3878C106.055 26.3878 107.052 26.1303 107.923 25.6104Z" fill="url(#paint4_linear_3191_51077)"/>
<path d="M137.005 9.97414C138.888 11.6459 139.829 14.17 139.829 17.5418V30.4807H133.676V27.6569C132.439 29.7642 130.135 30.8179 126.764 30.8179C125.022 30.8179 123.509 30.5228 122.235 29.9328C120.957 29.3427 119.983 28.5279 119.308 27.4883C118.634 26.4487 118.297 25.2686 118.297 23.948C118.297 21.8407 119.088 20.1829 120.676 18.9747C122.263 17.7665 124.712 17.1624 128.033 17.1624H133.259C133.259 15.7295 132.823 14.629 131.952 13.8563C131.081 13.0836 129.775 12.6949 128.033 12.6949C126.824 12.6949 125.635 12.8822 124.474 13.2616C123.308 13.6409 122.315 14.156 121.5 14.8022L119.14 10.2083C120.376 9.33726 121.861 8.66292 123.589 8.18526C125.317 7.7076 127.091 7.46877 128.918 7.46877C132.425 7.46409 135.123 8.30233 137.005 9.97414ZM131.4 25.6104C132.271 25.0906 132.889 24.3226 133.254 23.3158V20.9931H128.744C126.047 20.9931 124.698 21.8782 124.698 23.6483C124.698 24.4912 125.026 25.1609 125.691 25.6479C126.352 26.1396 127.255 26.3878 128.412 26.3878C129.531 26.3878 130.529 26.1303 131.4 25.6104Z" fill="url(#paint5_linear_3191_51077)"/>
<path d="M146.632 30.0368C144.455 29.4046 142.703 28.5851 141.383 27.5689L143.701 22.427C144.965 23.3542 146.468 24.0988 148.211 24.6608C149.953 25.2227 151.695 25.5037 153.437 25.5037C155.375 25.5037 156.808 25.218 157.736 24.642C158.663 24.066 159.126 23.3027 159.126 22.3427C159.126 21.6403 158.855 21.0549 158.302 20.596C157.754 20.1324 157.052 19.7624 156.195 19.4768C155.338 19.1958 154.177 18.8867 152.72 18.5495C150.472 18.0157 148.632 17.4818 147.199 16.948C145.766 16.4141 144.534 15.5572 143.509 14.3771C142.483 13.197 141.968 11.6235 141.968 9.65666C141.968 7.94271 142.432 6.38798 143.359 5.00183C144.286 3.611 145.682 2.51051 147.555 1.691C149.423 0.876165 151.704 0.46875 154.401 0.46875C156.284 0.46875 158.124 0.693532 159.923 1.14309C161.721 1.59265 163.294 2.2389 164.643 3.08183L162.536 8.26583C159.81 6.72047 157.085 5.94778 154.359 5.94778C152.449 5.94778 151.034 6.25686 150.121 6.875C149.208 7.49315 148.754 8.30798 148.754 9.31949C148.754 10.331 149.278 11.085 150.337 11.572C151.39 12.0637 152.996 12.5507 155.165 13.0284C157.412 13.5622 159.253 14.0961 160.686 14.6299C162.119 15.1638 163.346 16.0067 164.376 17.1587C165.402 18.3107 165.917 19.8701 165.917 21.837C165.917 23.5228 165.444 25.0635 164.502 26.4497C163.561 27.8405 162.147 28.9457 160.269 29.7605C158.387 30.5753 156.097 30.9827 153.399 30.9827C151.062 30.9827 148.81 30.669 146.632 30.0368Z" fill="url(#paint6_linear_3191_51077)"/>
<path d="M187.642 2.2831C189.567 3.15412 191.046 4.39042 192.086 5.99198C193.126 7.59355 193.645 9.49013 193.645 11.6817C193.645 13.8453 193.126 15.7372 192.086 17.3481C191.046 18.9637 189.562 20.2 187.642 21.057C185.717 21.9139 183.446 22.3448 180.833 22.3448H174.89V30.479H168.062V0.976562H180.833C183.446 0.976563 185.717 1.41207 187.642 2.2831ZM185.132 15.4562C186.199 14.5711 186.733 13.3161 186.733 11.6817C186.733 10.024 186.199 8.75491 185.132 7.86516C184.064 6.98008 182.505 6.53989 180.454 6.53989H174.89V16.7815H180.454C182.505 16.7815 184.064 16.3413 185.132 15.4562Z" fill="url(#paint7_linear_3191_51077)"/>
<path d="M217.54 20.9946H200.387C200.696 22.3995 201.426 23.5093 202.578 24.3242C203.73 25.139 205.163 25.5464 206.877 25.5464C208.057 25.5464 209.101 25.3732 210.019 25.0219C210.932 24.6707 211.78 24.1134 212.567 23.3548L216.065 27.148C213.93 29.5925 210.811 30.8147 206.708 30.8147C204.152 30.8147 201.89 30.3183 199.923 29.3162C197.956 28.3187 196.439 26.9372 195.371 25.1671C194.303 23.397 193.77 21.388 193.77 19.1402C193.77 16.9205 194.294 14.9208 195.352 13.132C196.406 11.3478 197.853 9.95694 199.693 8.95947C201.534 7.96201 203.59 7.46094 205.866 7.46094C208.085 7.46094 210.094 7.9386 211.892 8.89391C213.691 9.84923 215.1 11.2213 216.126 13.0008C217.151 14.785 217.667 16.8596 217.667 19.2198C217.667 19.3088 217.624 19.8988 217.54 20.9946ZM202.157 13.7033C201.145 14.5462 200.527 15.6982 200.302 17.1593H211.471C211.246 15.7263 210.628 14.5837 209.617 13.7267C208.605 12.8697 207.369 12.4389 205.908 12.4389C204.419 12.4389 203.168 12.8604 202.157 13.7033Z" fill="url(#paint8_linear_3191_51077)"/>
<defs>
<linearGradient id="paint0_linear_3191_51077" x1="1.28865" y1="23.9893" x2="57.7942" y2="23.9893" gradientUnits="userSpaceOnUse">
<stop stop-color="#29256E"/>
<stop offset="0.3128" stop-color="#1363DF"/>
<stop offset="0.7039" stop-color="#98258D"/>
<stop offset="1" stop-color="#EF406A"/>
</linearGradient>
<linearGradient id="paint1_linear_3191_51077" x1="1.28897" y1="12.8048" x2="57.7945" y2="12.8048" gradientUnits="userSpaceOnUse">
<stop stop-color="#29256E"/>
<stop offset="0.3128" stop-color="#1363DF"/>
<stop offset="0.7039" stop-color="#98258D"/>
<stop offset="1" stop-color="#EF406A"/>
</linearGradient>
<linearGradient id="paint2_linear_3191_51077" x1="1.29052" y1="20.2402" x2="57.7961" y2="20.2402" gradientUnits="userSpaceOnUse">
<stop stop-color="#29256E"/>
<stop offset="0.3128" stop-color="#1363DF"/>
<stop offset="0.7039" stop-color="#98258D"/>
<stop offset="1" stop-color="#EF406A"/>
</linearGradient>
<linearGradient id="paint3_linear_3191_51077" x1="65.1634" y1="15.7266" x2="229.055" y2="15.7266" gradientUnits="userSpaceOnUse">
<stop stop-color="#29256E"/>
<stop offset="0.3128" stop-color="#1363DF"/>
<stop offset="0.7039" stop-color="#98258D"/>
<stop offset="1" stop-color="#EF406A"/>
</linearGradient>
<linearGradient id="paint4_linear_3191_51077" x1="65.1641" y1="19.1395" x2="229.056" y2="19.1395" gradientUnits="userSpaceOnUse">
<stop stop-color="#29256E"/>
<stop offset="0.3128" stop-color="#1363DF"/>
<stop offset="0.7039" stop-color="#98258D"/>
<stop offset="1" stop-color="#EF406A"/>
</linearGradient>
<linearGradient id="paint5_linear_3191_51077" x1="65.1651" y1="19.1395" x2="229.057" y2="19.1395" gradientUnits="userSpaceOnUse">
<stop stop-color="#29256E"/>
<stop offset="0.3128" stop-color="#1363DF"/>
<stop offset="0.7039" stop-color="#98258D"/>
<stop offset="1" stop-color="#EF406A"/>
</linearGradient>
<linearGradient id="paint6_linear_3191_51077" x1="65.1641" y1="15.7266" x2="229.056" y2="15.7266" gradientUnits="userSpaceOnUse">
<stop stop-color="#29256E"/>
<stop offset="0.3128" stop-color="#1363DF"/>
<stop offset="0.7039" stop-color="#98258D"/>
<stop offset="1" stop-color="#EF406A"/>
</linearGradient>
<linearGradient id="paint7_linear_3191_51077" x1="65.1652" y1="15.7286" x2="229.057" y2="15.7286" gradientUnits="userSpaceOnUse">
<stop stop-color="#29256E"/>
<stop offset="0.3128" stop-color="#1363DF"/>
<stop offset="0.7039" stop-color="#98258D"/>
<stop offset="1" stop-color="#EF406A"/>
</linearGradient>
<linearGradient id="paint8_linear_3191_51077" x1="65.1629" y1="19.1411" x2="229.055" y2="19.1411" gradientUnits="userSpaceOnUse">
<stop stop-color="#29256E"/>
<stop offset="0.3128" stop-color="#1363DF"/>
<stop offset="0.7039" stop-color="#98258D"/>
<stop offset="1" stop-color="#EF406A"/>
</linearGradient>
</defs>
</svg>
