<svg width="28" height="42" viewBox="0 0 28 42" fill="none" xmlns="http://www.w3.org/2000/svg">
    <path fill-rule="evenodd" clip-rule="evenodd" d="M6.33395 2.38774C8.57945 0.838619 11.2416 0.00614268 13.9696 0C16.6976 0.00614268 19.3598 0.838619 21.6053 2.38774C23.8508 3.93686 25.5743 6.12993 26.5487 8.67799C27.5231 11.2261 27.7027 14.0095 27.0637 16.6617C26.4248 19.3138 24.9974 21.7102 22.9696 23.535V42L13.9696 36L4.96961 42V23.535C2.94177 21.7102 1.51437 19.3138 0.875462 16.6617C0.236559 14.0095 0.416139 11.2261 1.39054 8.67799C2.36494 6.12993 4.08844 3.93686 6.33395 2.38774ZM15.6346 33.51L19.9696 36.39V25.575C18.1089 26.5138 16.0538 27.0029 13.9696 27.0029C11.8854 27.0029 9.83035 26.5138 7.96961 25.575V36.39L12.3046 33.51L13.9696 32.4L15.6346 33.51ZM14.8874 23.9466C17.3025 23.7347 19.5699 22.6936 21.3046 21C22.3048 20.0235 23.1 18.8571 23.6435 17.5692C24.187 16.2813 24.4679 14.8979 24.4696 13.5C24.4726 11.0756 23.6366 8.72487 22.1035 6.8468C20.5704 4.96873 18.4346 3.67907 16.0586 3.19673C13.6827 2.71438 11.2131 3.06908 9.06895 4.20062C6.92482 5.33215 5.23832 7.17079 4.29572 9.40444C3.35313 11.6381 3.21252 14.1291 3.89776 16.4546C4.58301 18.7802 6.05189 20.7969 8.05507 22.1625C10.0582 23.5282 12.4723 24.1585 14.8874 23.9466ZM19.4185 9.84785C19.8868 9.34057 19.8551 8.54975 19.3479 8.0815C18.8406 7.61324 18.0498 7.64487 17.5815 8.15215L11.0522 15.2256L8.88388 13.0573C8.39573 12.5691 7.60427 12.5691 7.11612 13.0573C6.62796 13.5454 6.62796 14.3369 7.11612 14.8251L10.2044 17.9133C10.4449 18.1538 10.7731 18.286 11.1132 18.2792C11.4533 18.2724 11.776 18.1272 12.0067 17.8773L19.4185 9.84785Z" fill="#EF406A"/>
    </svg>
    