<svg width="40" height="27" viewBox="0 0 40 27" fill="none" xmlns="http://www.w3.org/2000/svg">
    <path d="M35.5556 0.375C38.0069 0.375 40 2.3335 40 4.75V22.25C40 24.6631 38.0069 26.625 35.5556 26.625H4.44444C1.98958 26.625 0 24.6631 0 22.25V4.75C0 2.3335 1.98958 0.375 4.44444 0.375H35.5556ZM18.8889 9.125C18.2778 9.125 17.7778 9.61719 17.7778 10.2188C17.7778 10.8203 18.2778 11.3125 18.8889 11.3125H34.4444C35.0556 11.3125 35.5556 10.8203 35.5556 10.2188C35.5556 9.61719 35.0556 9.125 34.4444 9.125H18.8889ZM18.8889 17.875H34.4444C35.0556 17.875 35.5556 17.3828 35.5556 16.7812C35.5556 16.1797 35.0556 15.6875 34.4444 15.6875H18.8889C18.2778 15.6875 17.7778 16.1797 17.7778 16.7812C17.7778 17.3828 18.2778 17.875 18.8889 17.875ZM11.3958 6.9375C11.3958 6.17871 10.7708 5.56348 9.9375 5.56348C9.22917 5.56348 8.60417 6.17871 8.60417 6.9375V7.34766C8.21528 7.42969 7.78472 7.5459 7.5 7.69629C6.4625 8.16113 5.56042 9.02246 5.34097 10.2734C5.21806 10.9707 5.28333 11.6475 5.57778 12.2559C5.86597 12.8574 6.31944 13.2812 6.77986 13.5889C7.58333 14.1289 8.64583 14.4434 9.45833 14.6826L9.61111 14.7236C10.5833 15.0176 11.2361 15.2295 11.6458 15.5234C11.8194 15.6465 11.8819 15.7422 11.9028 15.8037C11.9306 15.8584 11.9722 15.9814 11.9236 16.2549C11.8819 16.4941 11.75 16.6992 11.3681 16.8564C10.9444 17.0342 10.2569 17.123 9.36806 16.9863C8.95139 16.918 8.20833 16.6719 7.54861 16.4531C7.39583 16.3984 7.24306 16.3506 7.10417 16.3027C6.37778 16.0635 5.59097 16.4531 5.34861 17.1709C5.10625 17.8887 5.5 18.6611 6.22778 18.8389C6.31181 18.9277 6.41597 18.9619 6.53542 19.0029C7.02083 19.1875 7.94445 19.4746 8.60417 19.625V20.0625C8.60417 20.8213 9.22917 21.4365 9.9375 21.4365C10.7708 21.4365 11.3958 20.8213 11.3958 20.0625V19.6865C11.7639 19.6182 12.125 19.4541 12.4583 19.3721C13.5556 18.9141 14.4306 18.0254 14.6597 16.7266C14.7847 16.0156 14.7292 15.332 14.4514 14.71C14.1806 14.0947 13.7431 13.6436 13.2778 13.3154C12.4375 12.707 11.3125 12.3789 10.4722 12.126L10.3542 12.1123C9.43056 11.8184 8.76389 11.6133 8.34028 11.3262C8.15972 11.2031 8.10417 11.1211 8.09028 11.0869C8.07639 11.0596 8.03472 10.9775 8.07639 10.7451C8.10417 10.6084 8.20833 10.3828 8.64583 10.1914C9.03472 9.99316 9.78472 9.88379 10.6319 9.95215C10.9375 10.0615 11.875 10.2393 12.1458 10.3076C12.8819 10.5059 13.6458 10.0684 13.8403 9.33691C14.0417 8.6123 13.5972 7.86035 12.8542 7.66895C12.5486 7.58691 11.8542 7.4502 11.3958 7.36816V6.9375Z" fill="#EF406A" fill-opacity="0.88"/>
    </svg>
    