<svg width="122" height="163" viewBox="0 0 122 163" fill="none" xmlns="http://www.w3.org/2000/svg">
<path d="M47.8638 162.897C47.0474 162.893 46.231 162.897 45.4145 162.88C44.0395 162.85 42.6645 162.846 41.2937 162.757C39.0936 162.612 36.8936 162.442 34.7021 162.212C31.6512 161.893 28.6047 161.57 25.5667 161.149C20.6638 160.469 15.8254 159.47 11.1202 157.901C8.70098 157.093 6.33763 156.149 4.2321 154.695C3.42427 154.138 2.63362 153.513 1.96758 152.798C-0.662178 149.975 -0.580534 146.472 2.10939 143.703C2.33713 143.47 2.56917 143.236 2.8012 143.002C2.83128 142.781 2.88714 142.555 2.88714 142.334C2.89144 137.44 2.89144 132.551 2.89144 127.657C2.89144 127.176 2.88285 126.696 2.87855 126.215C3.10629 124.2 3.22231 122.167 3.57896 120.177C5.24619 110.84 9.3842 102.698 15.9371 95.7924C23.1303 88.2069 31.9306 83.4235 42.2519 81.4293C43.8332 81.1231 45.4532 81.0083 47.0603 80.8128C47.7435 80.7277 48.4396 80.715 49.11 80.5789C49.7975 80.4386 50.1713 79.8433 50.0897 79.214C49.9994 78.5507 49.4838 78.2148 48.7318 78.1425C46.9829 77.9809 45.2255 77.8279 43.4938 77.5387C33.1337 75.8209 24.2346 71.2586 16.8524 63.8772C10.4112 57.4312 6.17864 49.7479 4.0903 40.9166C3.56177 38.6928 3.18793 36.4435 3.03324 34.1645C2.96879 33.2333 2.93871 32.2979 2.89144 31.3625C2.89574 27.625 2.90003 23.8918 2.89574 20.1543C2.89574 19.9927 2.82269 19.8311 2.78401 19.6696C1.46913 18.5088 0.536685 17.1056 0.253083 15.3751C0.0296394 14.0102 0.485123 12.7601 1.04373 11.5016C2.24689 8.77605 4.57157 7.39841 7.12828 6.26739C10.8925 4.60487 14.8629 3.60141 18.8892 2.8148C21.3642 2.33433 23.8565 1.93889 26.3488 1.56472C27.8699 1.33512 29.4082 1.22882 30.9379 1.05874C32.6224 0.871652 34.3068 0.65055 35.9955 0.493227C36.9967 0.399684 38.0065 0.39118 39.012 0.352913C40.9027 0.276377 42.7934 0.212598 44.6883 0.136063C45.711 0.0977954 46.7294 0.0467716 47.7521 0C50.2487 0 52.7452 0.00425206 55.2375 0.00425206C56.6856 0.0467717 58.1379 0.0722835 59.586 0.131811C61.1673 0.19559 62.7529 0.25937 64.3299 0.36992C66.6202 0.531495 68.9105 0.718581 71.1965 0.931179C72.7305 1.07149 74.2689 1.22456 75.7943 1.44992C78.3682 1.82834 80.9421 2.20677 83.4945 2.69999C87.9892 3.56739 92.4323 4.63889 96.5961 6.6118C97.9883 7.27085 99.402 7.96817 100.373 9.16722C102.139 11.3442 103.334 13.7381 102.302 16.6507C101.86 17.9008 101.001 18.8659 100.064 19.7716C100.034 19.8779 99.9735 19.98 99.9735 20.0863C99.9692 22.0209 99.9692 23.9555 99.9735 25.8902C99.9735 26.0177 100.034 26.1453 100.064 26.2729C100.068 26.3026 100.068 26.3324 100.064 26.3622C100.034 26.528 99.9735 26.6938 99.9735 26.8639C99.9692 28.3606 99.9778 29.8573 99.9821 31.354C99.7759 33.718 99.7544 36.1119 99.3376 38.4377C96.5875 53.749 88.2341 65.123 74.4708 72.5895C69.9375 75.0471 65.0647 76.6246 59.9599 77.458C58.3915 77.7131 56.8059 77.8576 55.2246 78.0447C54.7648 78.1 54.3007 78.0958 53.8452 78.1595C53.3038 78.2361 53.0073 78.623 52.8269 79.0865C52.6421 79.5627 52.8612 79.9751 53.2093 80.2557C53.4757 80.4726 53.8495 80.6724 54.1804 80.6809C56.4191 80.749 58.6192 81.0849 60.8193 81.4803C64.8069 82.1989 68.6269 83.4107 72.2493 85.1795C86.1243 91.9571 94.9675 102.791 98.7016 117.656C99.2344 119.773 99.4106 121.98 99.7329 124.149C99.8532 124.952 99.9048 125.769 99.9864 126.581C99.9864 126.696 99.9907 126.815 99.9907 126.93C99.9821 127.006 99.9649 127.083 99.9649 127.159C99.9692 132.381 99.9735 137.606 99.9821 142.828C99.9821 142.972 100.034 143.121 100.064 143.266C100.128 143.338 100.184 143.414 100.253 143.482C101.765 144.979 102.655 146.688 102.457 148.908C102.337 150.247 101.813 151.349 101.013 152.356C99.9993 153.632 98.7188 154.614 97.2793 155.358C95.7496 156.145 94.164 156.825 92.5999 157.548C89.1881 158.679 85.7247 159.623 82.1882 160.269C80.014 160.665 77.8354 161.039 75.6482 161.349C73.6028 161.643 71.5446 161.881 69.482 162.063C66.7706 162.302 64.0506 162.48 61.3306 162.654C60.1919 162.727 59.0446 162.722 57.9016 162.765C56.8231 162.803 55.7402 162.854 54.6617 162.897C52.3843 162.897 50.124 162.897 47.8638 162.897ZM98.7448 26.8639C98.7792 26.6428 98.4572 25.7211 98.4572 25.5C98.4615 23.8077 98.9572 23.1923 98.9572 21.5C98.9572 21.2066 98.9572 21.3954 98.9572 21C96.9763 22.4924 95.7044 23.1964 93.5 24C91.9531 24.5613 90.5641 25.4855 89 26C88.9227 26.0085 87.5773 25.9787 87.5 26C79.2498 28.1855 71.4995 28.477 63 29C62.2695 29.0468 61.7305 29.4702 61 29.5C59.2683 29.5723 57.1889 29.432 55.4572 29.5C54.3271 29.5043 53.5873 29.5 52.4572 29.5C51.8728 29.5 51.0416 29.5 50.4572 29.5C49.8642 29.4702 49.5502 29.5043 48.9572 29.5C48.3814 29.5 47.533 29.4702 46.9572 29.5C46.1665 29.466 45.7478 29.5383 44.9572 29.5C43.3974 29.432 41.517 29.085 39.9572 29C34.7535 28.7109 29.6905 28.2327 24.5427 27.4079C19.8934 26.6638 14.9089 26.0562 10.4572 24.5C7.8661 23.5943 5.63577 22.2135 3.45719 20.5C3.37985 20.6233 3.26098 20.4902 3.26098 20.6135C3.24379 22.293 3.24809 23.9768 3.25239 25.6563C3.25239 25.8179 3.31684 25.9837 3.34692 26.1453C3.35981 27.0552 3.71646 27.8673 4.36101 28.4584C5.22471 29.2492 6.4945 29.9047 7.5 30.5C9.86765 31.9031 12.1343 32.8549 14.7726 33.6075C21.5662 35.5421 28.5002 36.2517 35.5 37C37.1758 37.1786 38.8156 36.9022 40.5 37C42.2446 37.0978 44.2597 37.5128 46 37.5C51.0833 37.4617 55.921 37.1106 61 37C62.8692 36.9575 64.6351 37.1701 66.5 37C69.061 36.7704 71.9519 36.3274 74.5 36C76.6915 35.7194 78.8343 35.438 81 35C83.4708 34.5025 85.5464 34.0825 88 33.5C89.9165 32.8282 92.0966 30.7994 93.9572 30C95.242 29.4472 95.8013 29.2951 96.9572 28.5C97.7822 27.9345 98.5128 27.9014 98.7448 26.8639ZM98.9572 136.5C98.4888 136.985 98.3879 137.13 97.8336 137.487C96.5746 138.308 95.2984 139.141 93.9233 139.736C92.0456 140.549 90.9294 141.811 89 142.5C87.9644 142.755 87.0356 144.253 86 144.5C81.6557 145.533 77.4259 145.943 73 146.5C70.8859 146.768 68.627 146.826 66.5 147C64.8414 147.136 63.1629 146.415 61.5 146.5C59.9144 146.581 59.0899 146.97 57.5 147C56.9371 147.013 55.5672 147.009 55 147C50.9657 147.128 45.6638 146.111 41.5 146C39.6695 145.953 37.8646 145.666 36.0427 145.5C33.5255 145.715 30.6338 144.832 28.0427 144.5C23.2215 143.879 18.7093 143.378 14.0427 142C11.1122 141.133 8.02234 139.765 5.5 138C4.69216 137.434 4.04733 136.858 3.32974 136.16C3 136.5 3.5 136.364 3.5 136.5C3.48711 139.532 3.25239 142.424 3.25668 145.455C3.25668 145.638 3.32114 145.821 3.35552 146.004C3.54888 146.948 4.19662 147.451 4.95719 148C6.16035 148.867 7.20992 150.086 8.54629 150.706C13.5007 153.02 18.5816 153.679 23.9572 154.5C27.9233 155.104 31.9696 155.083 35.9572 155.5C38.4967 155.764 39.4914 156.33 42.0395 156.479C43.0107 156.534 43.9818 156.496 44.9572 156.5C45.0904 156.521 46.824 156.5 46.9572 156.5C49.6342 156.509 51.2802 156.496 53.9572 156.5C55.6115 156.432 58.3028 156.077 59.9572 156C61.3451 155.936 62.5693 156.098 63.9572 156C65.8865 155.86 67.5321 155.674 69.4572 155.5C70.901 155.368 72.522 155.217 73.9572 155C76.2604 154.66 78.1755 154.463 80.4572 154C82.7389 153.541 85.1927 153.036 87.4572 152.5C89.408 151.82 90.5708 151.321 92.4572 150.5C93.8236 149.905 95.224 149.355 96.4572 148.5C97.2865 147.926 98.5169 147.318 98.7231 146.281C98.7575 146.098 98.9572 145.683 98.9572 145.5C98.9572 142.341 98.9658 139.659 98.9572 136.5C98.9916 136.649 98.9572 136.432 98.9572 136.5C98.9959 136.445 98.8627 136.628 98.9572 136.5ZM98.9572 134.5C98.9916 134.355 98.9572 134.145 98.9572 134C98.9615 131.606 98.9658 129.39 98.9572 127C98.9572 126.834 98.9916 126.166 98.9572 126C98.8025 124.457 98.6119 123.543 98.4572 122C98.3498 121.337 98.5646 120.163 98.4572 119.5C98.3412 118.943 98.0861 118.553 97.9572 118C94.0555 101.222 81.6338 88.428 64.9572 83.5C62.7099 82.8367 60.7604 82.4847 58.4572 82C57.0564 81.8512 55.35 81.8258 53.9572 81.5C52.956 81.398 52.2322 80.9992 51.9572 80C51.9572 79.7746 51.9572 79.2254 51.9572 79C52.2967 78.0135 53.4259 77.585 54.4572 77.5C56.4682 77.3342 58.4572 77 60.3982 76.8372C71.536 74.7537 80.0277 68.9869 87.4572 60.5C89.1029 58.6206 90.7239 57.1728 91.9572 55C92.3525 54.3027 92.5619 53.1973 92.9572 52.5C93.099 52.2746 93.8326 52.2339 93.9572 52C96.4838 47.1315 97.8169 41.9383 98.4572 36.5C98.6677 34.6887 98.8541 33.3241 98.9572 31.5C99.0131 30.5348 98.957 29.9439 99 29C98.2137 29.6846 98.0528 29.8105 97.2191 30.3377C95.9945 31.1073 94.7097 31.8217 93.369 32.3659C91.5041 33.1185 89.5662 33.6925 87.6583 34.3431C85.8278 34.7555 84.0102 35.219 82.171 35.5634C79.537 36.0566 77.1555 37.1513 74.5 37.5C71.982 37.8317 69.5352 37.7661 67 38C65.3113 38.1531 63.193 38.398 61.5 38.5C59.9961 38.5935 58.5125 38.4702 57 38.5C56.2824 38.5128 55.7176 38.4957 55 38.5C53.1265 38.4957 51.3735 38.4915 49.5 38.5C49.109 38.5 48.391 38.466 48 38.5C47.2695 38.466 46.7305 38.5255 46 38.5C44.8785 38.4575 43.6215 38.551 42.5 38.5C41.1379 38.4362 39.8621 38.0935 38.5 38C36.966 37.8937 35.534 37.6403 34 37.5C32.8699 37.398 31.6258 37.6318 30.5 37.5C28.7253 37.2917 26.7618 36.7891 25 36.5C23.0277 36.1769 20.9551 35.9167 19 35.5C15.5581 34.7687 12.2356 33.8989 9 32.5C6.83431 31.5646 4.94809 30.4602 3.5 28.5C3.47422 28.466 3.3727 28.3579 3.26957 28.3281C3.25668 28.4387 3.26528 28.5126 3.26957 28.5977C3.34262 30.0816 3.36841 31.4858 3.47583 32.9654C3.57037 34.241 3.63912 35.5251 3.86686 36.7795C4.25789 38.9352 4.67899 41.0909 5.25049 43.2042C6.15286 46.559 7.48493 49.7564 9.20803 52.7838C9.85687 53.8553 10.5014 54.9268 11.1503 55.9983C12.7187 58.5155 14.5922 60.7945 16.6461 62.929C21.0978 67.5551 26.2886 71.1565 32.2056 73.7162C37.4006 75.9655 42.8363 77.2411 48.4955 77.577C50.0166 77.6663 50.5838 78.2191 50.5795 79.7243C50.5752 79.7838 50.5709 79.8476 50.5666 79.9071C50.2873 80.6299 49.7846 81.0891 48.9853 81.1742C47.8509 81.2932 46.7036 81.357 45.5778 81.5356C43.5153 81.8587 41.4226 82.0883 39.4202 82.6368C23.8221 86.9016 12.912 96.4812 6.67709 111.248C5.49972 114.038 4.6747 116.946 4.17195 119.935C4.05163 120.73 3.93131 121.525 3.811 122.32C3.6606 123.847 3.43286 125.369 3.3813 126.9C3.30395 129.055 3.40708 131.215 3.32974 133.367C3.28247 134.719 4.00756 135.607 4.95719 136.5C6.29356 137.754 7.78566 138.307 9.45719 139C14.9659 141.296 20.5832 142.654 26.4572 143.5C29.3577 143.917 32.5395 143.715 35.4572 144C37.7518 144.225 39.654 144.881 41.9572 145C43.7619 145.094 45.691 144.953 47.5 145C47.6461 145.03 48.3966 145 48.5427 145C50.7815 145.004 52.7185 145.004 54.9572 145C55.1033 145 55.1898 144.66 55.4572 145C58.3405 144.881 61.0739 144.67 63.9572 144.5C69.5648 144.164 74.9398 143.567 80.4572 142.5C83.1987 141.969 85.7372 141.651 88.4572 141C88.8654 140.885 89.5533 140.632 89.9572 140.5C92.4065 139.696 94.3345 138.492 96.4572 137C97.5615 136.209 98.622 135.886 98.9572 134.5ZM54.6617 162.251C55.4523 162.221 56.1708 162.03 56.9572 162C58.6975 161.928 60.2212 161.598 61.9572 161.5C63.6545 161.406 65.7642 161.162 67.4572 161C69.9967 160.758 72.4348 160.853 74.9572 160.5C77.7373 160.109 80.2028 159.544 82.9572 159C86.8889 158.222 90.2833 157.129 93.9572 155.5C95.9553 154.611 97.9318 153.955 99.4572 152.356C100.527 151.238 101.461 150.103 101.457 148.5C101.578 146.91 101.006 144.917 99.9572 144.5C99.9572 144.895 99.9305 144.962 99.9606 145.34C100.064 146.569 100.325 147.654 99.5 148.5C99.0703 148.942 98.5028 149.639 98 150C96.4015 151.157 94.8477 152.328 93 153C87.0444 155.173 80.2478 156.094 74 157C71.9117 157.302 69.5584 157.796 67.4572 158C65.9232 158.149 64.5383 158.923 63 159C60.8171 159.106 58.1872 158.432 56 158.5C55.1234 158.526 54.3338 157.991 53.4572 158C51.8974 158 50.517 158 48.9572 158C45.6485 157.877 42.2616 157.649 38.9572 157.5C37.4189 157.432 35.9912 157.657 34.4572 157.5C32.0938 157.258 29.3077 156.836 26.9572 156.5C24.7872 156.194 22.5928 155.993 20.4572 155.5C17.488 154.811 14.8706 153.889 11.9572 153C9.23719 152.171 6.18304 150.837 3.95719 149C2.8056 148.048 2.4443 146.967 2.45719 145.5C2.46149 145.071 2.5 144.574 2.5 144C0.961675 145.518 0.879438 146.959 1.04272 149C1.59274 151.696 3.31258 153.148 5.54272 154.5C6.02399 154.789 6.53998 155.249 7.04273 155.5C10.9745 157.481 14.7715 158.073 19.0427 159C21.7026 159.578 24.8485 160.066 27.5427 160.5C28.7846 160.7 30.2923 160.868 31.5427 161C33.1584 161.17 34.4228 160.868 36.0427 161C37.7186 161.136 39.3626 161.902 41.0427 162C42.392 162.077 43.6935 161.957 45.0427 162C45.9881 162.03 46.5974 161.966 47.5427 162C49.8548 161.601 52.3628 162.251 54.6617 162.251ZM56.5 24.5C54.5578 24.5 52.4422 25 50.5 25C49.314 25 48.686 25.4957 47.5 25.5C45.9875 25.4575 43.9654 24.5808 42.4572 24.5C39.8704 24.3639 37.0397 24.2083 34.4572 24C32.227 23.8214 29.9257 23.5474 27.7128 23.2285C24.4642 22.7607 21.1756 22.625 17.9572 22C13.9825 21.2261 10.1268 19.7476 6.45719 18C4.19697 16.9243 2.36816 15.149 1.45719 12.5C1.00601 13.614 0.780608 14.4072 1.04272 15.5C1.5068 17.4559 2.97432 18.8605 4.54272 20C6.33028 21.3011 7.97587 22.2389 10.0427 23C14.6448 24.6923 19.7086 25.7389 24.5427 26.5C26.9276 26.8742 29.0543 26.8851 31.452 27.1828C33.1364 27.3954 34.8454 27.3724 36.5427 27.5C38.3518 27.6403 40.2294 27.915 42.0427 28C43.5725 28.0723 45.013 28.466 46.5427 28.5C47.0064 28.4226 47.4626 28.4957 48.0427 28.5C48.133 28.5298 48.4525 28.5 48.5427 28.5C50.4291 28.5043 52.1563 28.5043 54.0427 28.5C54.133 28.5 54.9141 28.0298 55 28C57.3805 27.9192 59.1708 28.1446 61.5427 28C64.5807 27.8172 67.9749 26.8061 71 26.5C73.6641 26.2321 76.8659 25.4677 79.5 25C82.6153 24.4472 84.4448 23.7994 87.5 23C91.7154 21.903 96.1567 21.9253 99.5427 19C101.313 17.4693 102.284 15.8301 101.957 13.5C101.91 13.1726 101.608 13.489 101.457 13C101.027 14.7433 100.154 15.1157 98.8907 15.9746C96.9656 17.2842 94.8257 18.1516 92.6257 18.8745C86.1888 20.9919 79.7205 22.2814 73 23C69.9964 23.3231 67.5165 23.8044 64.5 24C61.9734 24.1573 59.0395 24.415 56.5 24.5ZM49.5 22C49.6461 22.034 50.3539 23.0043 50.5 23C51.5227 22.9787 52.4773 22.5298 53.5 22.5C55.3778 22.4575 56.6222 23.0595 58.5 23C60.0426 22.949 61.9617 22.6148 63.5 22.5C66.7657 22.2491 69.7429 21.3444 73 21C78.1263 20.4557 83.0026 20.2926 88 19C91.1067 18.1921 93.1812 16.5732 96 15C97.1258 14.375 99.1708 14.5375 99.9572 13.5C100.89 12.2627 100.928 11.7033 99.9572 10.5C99.4544 9.87921 99.1447 8.89543 98.4572 8.5C96.9876 7.64961 95.0342 7.62504 93.4572 7C88.8379 5.16741 83.8986 4.75685 79 4C75.8933 3.51953 73.6282 3.8359 70.5 3.5C68.1152 3.24488 65.3977 2.63606 63 2.5C60.6968 2.36819 58.8075 2.08504 56.5 2C56.3883 1.97874 55.3492 1.83273 55.2375 1.83273C53.0503 1.81572 51.6872 1.4915 49.5 1.5C48.5547 1.50425 46.9453 1.46173 46 1.5C44.0878 1.58079 42.9122 1.91071 41 2C39.2769 2.08079 37.7188 2.84693 36 3C33.121 3.25937 30.3661 3.13433 27.5 3.5C22.0772 4.19732 17.2166 5.32048 12 7C9.55501 7.78661 7.10553 7.49055 5 9C3.9945 9.72283 2.16954 10.1537 1.84727 11.3995C1.76133 11.7397 1.75703 12.1393 1.84297 12.4838C2.22111 13.9762 3.35122 14.8691 4.56297 15.6685C6.22591 16.7655 8.05213 17.5266 9.92992 18.1771C14.2312 19.6738 18.5395 20.3835 23.0427 21C27.9714 21.6718 33.5585 20.9557 38.5 21.5C39.7504 21.6361 41.2453 21.9532 42.5 22C44.2059 22.0595 45.3368 22.9702 47.0427 23C48.0052 23.0043 48.5461 21.9872 49.5 22Z" fill="#312D76"/>
<path d="M99.8923 126.929C99.8923 126.815 99.888 126.696 99.888 126.581C103.158 127.431 106.376 128.426 109.505 129.702C112.624 130.977 115.624 132.474 118.206 134.655C119.972 136.143 121.459 137.866 121.863 140.251C122.207 142.279 121.588 144.039 120.385 145.651C118.765 147.815 116.595 149.316 114.266 150.617C109.836 153.092 105.057 154.682 100.154 155.928C97.7911 156.527 95.3977 157.004 93.0171 157.531C92.8495 157.569 92.6691 157.548 92.4972 157.552C94.0613 156.825 95.6469 156.149 97.1766 155.362C98.6161 154.618 99.9009 153.636 100.911 152.36C101.71 151.349 102.234 150.252 102.355 148.912C102.552 146.693 101.667 144.983 100.15 143.487C100.081 143.419 100.026 143.342 99.9611 143.27C99.9697 143.215 99.9826 143.155 99.9826 143.1C99.9826 137.84 99.9826 132.576 99.9783 127.316C99.9826 127.185 99.9267 127.057 99.8923 126.929Z" fill="#FAC7D3"/>
<path d="M47.7783 162.897C50.0385 162.897 52.3031 162.901 54.5633 162.901C54.0047 162.931 53.4504 162.982 52.8918 162.986C51.2976 162.995 49.7034 162.986 48.1049 162.982C47.9932 162.978 47.8857 162.922 47.7783 162.897Z" fill="#312D76"/>
<path d="M99.9739 26.2771C99.9439 26.1496 99.8837 26.022 99.8837 25.8944C99.8794 23.9598 99.8794 22.0252 99.8837 20.0905C99.8837 19.9842 99.9396 19.8822 99.9739 19.7759C99.9739 21.9401 99.9739 24.1086 99.9739 26.2771Z" fill="#312D76"/>
<path d="M99.888 31.3539C99.8837 29.8573 99.8794 28.3606 99.8837 26.8639C99.8837 26.698 99.9439 26.5322 99.974 26.3621C99.9783 27.9184 99.9869 29.4746 99.9869 31.0308C99.9869 31.1413 99.9224 31.2476 99.888 31.3539Z" fill="#312D76"/>
<path d="M56.2133 0.582508C58.5208 0.667548 60.8283 0.71432 63.1357 0.84613C65.5335 0.982193 67.9312 1.14802 70.316 1.40314C73.4399 1.73904 76.5682 2.10471 79.6749 2.58518C84.5735 3.34203 89.4248 4.33274 94.0483 6.16533C95.6253 6.79037 97.1336 7.6195 98.6032 8.4699C99.2864 8.86533 99.8837 9.48612 100.386 10.1069C101.362 11.3102 101.323 12.5815 100.386 13.8189C99.6001 14.8606 98.5387 15.775 97.4172 16.4C94.5984 17.9732 91.5389 18.7921 88.4322 19.6C83.4391 20.8968 78.3557 21.86 73.2251 22.4C71.4572 22.7005 66.698 22.8091 63.4322 23.06C61.8939 23.1791 60.347 23.2432 58.8044 23.29C56.9266 23.3538 54.8349 23.4575 52.9572 23.5C51.7884 23.5 52.1259 23.5043 50.9572 23.5C50.0032 23.4915 47.7525 23.3688 46.7986 23.3518C45.0927 23.322 41.9534 23.5588 41.6771 23.3C39.1311 23.3 39.5319 23.2339 37.4571 23C32.5156 22.4557 27.9571 22 23.0963 21.2896C17.9571 21 10.9571 19.0441 9.86156 18.2C7.45714 17.5441 6.45714 17.0528 4.49461 15.7C2.95714 15.0528 2.95715 14.5 1.77461 13C1.45716 12.5375 1.67122 11.7226 1.75716 11.3782C1.93541 10 2.99496 9.29478 4.00046 8.5762C6.10599 7.06675 8.49942 6.14407 10.9444 5.35746C16.161 3.67794 21.5365 2.70849 26.9593 2.00692C29.8254 1.63699 32.7001 1.36487 35.5791 1.10975C37.2979 0.956681 39.021 0.90991 40.7484 0.824871C42.6606 0.735579 44.577 0.659044 46.4892 0.578257C47.9572 0.499995 50.9572 -0.0825214 53.0163 0.499993C54.0777 0.508497 54.9572 0 56.2133 0.582508Z" fill="#463FBB"/>
<path d="M52.1999 79.6562C52.4792 80.6512 52.9733 81.0679 53.9745 81.1742C55.3753 81.3187 56.7762 81.4676 58.177 81.6164C58.3918 81.7482 58.5895 81.9225 58.8215 81.999C61.3525 82.8452 63.7416 83.9762 66.0018 85.3751C69.1085 87.3012 71.9489 89.5548 74.3036 92.3441C75.713 94.0193 77.1482 95.7031 78.3127 97.54C79.692 99.7085 80.8522 102.026 82.0081 104.326C83.366 107.026 84.234 109.922 85.1191 112.8C85.1621 112.945 85.0547 113.14 85.016 113.31C84.8441 113.281 84.6766 113.251 84.5047 113.217C83.091 112.932 81.673 112.651 80.2592 112.367C79.6276 111.895 79.1506 111.18 78.2654 111.104C77.0881 110.559 76.7701 110.619 75.7001 111.588C72.3957 111.227 69.0871 110.866 65.7827 110.508C65.744 110.445 65.6752 110.385 65.6666 110.317C65.353 108.132 65.0135 105.946 64.76 103.752C64.6869 103.119 64.4377 102.927 63.8576 102.889C63.0455 102.838 62.6759 103.029 62.5255 103.824C62.2849 105.1 62.1259 106.393 61.9025 107.677C61.8724 107.838 61.6575 108.068 61.5072 108.085C59.4145 108.348 57.0541 109.758 54.9572 110C54.8068 109.885 54.5775 109.64 54.4572 109.5C53.8685 108.837 53.4814 110.714 52.9572 110C52.0591 108.78 51.8725 108.907 50.9572 110C49.8916 111.271 48.0744 110.771 46.9572 112C45.5177 112.038 42.8967 110.462 41.4572 110.5C42.1576 109.352 43.3642 107.699 43.9572 106.5C45.1174 104.149 45.3928 101.564 45.4572 99C45.4787 98.2389 45.3225 97.7271 44.9572 97C44.39 95.8647 44.0502 94.6225 43.4572 93.5C43.2638 93.1343 43.0258 93.0329 42.6691 93.2115C42.407 93.339 42.2566 93.6919 42.0675 93.9513C42.0289 94.0066 42.0503 94.1001 42.0374 94.2617C41.8484 94.0321 41.741 93.8748 41.6077 93.7387C41.264 93.3943 40.873 93.3008 40.4604 93.6069C40.005 93.9386 40.122 94.0068 40.4572 94.5C40.6205 94.7381 40.7896 95.2661 40.9572 95.5C40.5662 95.3767 40.1339 95.1036 39.8331 94.9293C39.4249 94.6954 39.0296 94.7507 38.7417 95.1291C38.4538 95.5033 38.622 95.6726 38.9572 96C39.1076 96.1488 39.2896 96.3682 39.4572 96.5C40.1018 97.0102 41.4572 98 41.4572 98C41.4572 98.5 41.4572 98.5 40.2284 98.3861C39.571 98.4031 39.2401 98.6625 39.2659 99.177C39.2917 99.6745 40.9572 100 41.4572 100C41.3498 100.948 40.9288 101.796 40.903 102.647C40.8386 104.649 40.0823 106.346 38.6514 107.723C37.9467 108.404 37.1002 108.935 36.3224 109.547C35.5404 110.164 34.7583 110.751 33.6583 110.538C33.5079 110.508 33.1935 110.953 32.9572 111C33.0475 110.877 32.8928 110.56 32.9572 110.5C34.4096 109.135 34.8596 106.79 33.9572 105C33.5318 104.158 33.3611 103.35 32.9572 102.5C32.7596 102.083 32.0447 101.446 32.4572 101C32.6033 100.843 32.9615 100.738 32.9572 100.5C32.9572 99.5135 32.6571 98.688 31.7977 98.2713C29.7523 97.2806 27.6855 97.3019 25.7346 98.4754C23.7666 99.6574 22.8713 101.606 22.9572 104C23.0088 105.39 23.5935 106.39 24.4572 107.5C24.5603 107.636 24.2694 107.825 24.2479 107.974C24.4572 109 24.5076 109.466 25.4572 109.5C25.6635 109.509 26.1083 109.557 26.4572 110C27.0975 110.455 27.8299 111.024 28.4572 111.5C28.3885 111.53 28.055 111.44 27.982 111.448C26.0268 111.763 24.0674 112.039 22.1209 112.396C18.5071 113.055 14.9449 113.927 11.4815 115.164C10.9787 115.343 10.678 115.598 10.5405 116.125C10.2311 117.316 9.77129 118.477 9.54355 119.68C9.10955 121.942 8.79588 124.225 8.43063 126.496C8.34899 127.431 8.25015 128.362 8.19 129.298C8.15562 129.795 8.20719 130.301 8.16851 130.799C8.15992 130.939 7.94507 131.186 7.86343 131.173C7.68725 131.139 7.50678 130.994 7.38646 130.85C7.31771 130.769 7.36497 130.59 7.36927 130.454C7.44232 128.979 7.51966 127.508 7.59271 126.032C7.62709 125.845 7.66146 125.654 7.69584 125.467C8.13413 123.111 8.55524 120.756 9.02791 118.409C9.1955 117.571 9.50058 116.763 9.7627 115.857C7.54115 116.878 5.4657 117.932 4.08636 119.939C4.58911 116.95 5.41413 114.042 6.59151 111.253C12.8265 96.4855 23.7322 86.9101 39.3346 82.6411C41.337 82.0926 43.434 81.863 45.4922 81.5398C46.6181 81.3613 47.761 81.2975 48.8998 81.1784C49.7033 81.0934 50.2017 80.6384 50.4811 79.9113C50.5111 80.1324 50.5713 80.3578 50.5713 80.5789C50.5756 85.643 50.5756 90.7071 50.5799 95.7711C50.5799 95.9922 50.6443 96.2134 50.683 96.4345C51.0826 97.0893 51.4994 97.1275 51.985 96.5535C52.0237 96.3324 52.0924 96.1156 52.0924 95.8945C52.0967 90.7071 52.0967 85.5239 52.101 80.3365C52.1096 80.0984 52.1655 79.8773 52.1999 79.6562ZM51.9936 99.5341C51.9893 99.5341 51.9893 99.5341 51.9936 99.5341C51.9893 99.1897 51.985 98.8453 51.9936 98.5009C52.0022 98.1225 51.8045 97.9311 51.4436 97.8971C51.0611 97.8631 50.7475 98.0332 50.726 98.4031C50.6787 99.1472 50.6615 99.8998 50.7432 100.64C50.7647 100.839 51.1772 101.103 51.4393 101.141C51.8088 101.192 52.0194 100.916 51.9979 100.512C51.9764 100.185 51.9936 99.8615 51.9936 99.5341ZM51.9936 103.369C51.9893 103.369 51.9893 103.369 51.9936 103.369C51.9893 103.233 51.9807 103.102 51.9936 102.965C52.0237 102.545 51.8389 102.298 51.4049 102.281C50.9537 102.264 50.7217 102.511 50.6959 102.94C50.6787 103.246 50.61 103.595 50.7303 103.846C50.8463 104.084 51.1557 104.335 51.4178 104.381C51.7787 104.441 52.0194 104.182 51.9979 103.769C51.985 103.642 51.9936 103.505 51.9936 103.369Z" fill="#FDECF0"/>
<path d="M11.0734 55.9855C10.4246 54.9141 9.78001 53.8426 9.13116 52.7711C9.41477 51.117 10.5105 50.0583 11.8726 49.2377C12.702 48.7402 13.5571 48.2682 14.4423 47.8856C18.533 46.1082 22.8644 45.1771 27.2344 44.4372C33.912 43.3062 40.6496 42.813 47.4217 42.6642C49.9956 42.6642 52.5695 42.6642 55.1434 42.6642C56.4411 42.7067 57.7388 42.7152 59.0365 42.796C61.7092 42.9618 67.0504 43.3827 67.0504 43.3827C67.0504 43.3827 75.2598 43.4132 78.5427 44C81.2112 44.4762 82.6485 44.8707 85.2869 45.5C85.9423 44.373 85.1537 46.763 85.2869 46.8311C85.1709 46.9459 84.999 47.0394 84.9517 47.1755C84.3501 48.8337 84.2174 50.8715 83.5427 52.5C83.4213 54.3454 81.8849 55.8162 81.0427 57.5C80.4927 58.597 79.5676 59.4041 78.966 60.4714C78.9144 60.4969 79.0218 61.2635 78.966 61.272C75.6831 61.7908 72.2541 61.6449 68.9583 62.0701C66.3328 62.4103 63.6859 62.6016 61.0432 62.7674C58.6842 62.9162 56.3122 62.9885 53.9489 63.0055C51.3449 63.0268 48.7452 62.9503 46.1412 62.9077C44.6287 62.8822 43.1161 62.8354 41.5993 62.7844C41.002 62.7632 40.4004 62.7206 39.8031 62.6654C37.8609 62.4825 35.9144 62.3082 33.9764 62.0999C32.3049 61.9213 30.6205 61.7937 28.9747 61.4791C25.7305 60.8583 22.4905 60.1865 19.2764 59.4211C16.8572 58.8429 14.5368 57.9627 12.3711 56.7169C11.9414 56.4618 11.5074 56.2279 11.0734 55.9855ZM59.5 53C59.7879 52.9617 60.2164 53.0468 60.5 53C62.6313 52.6556 63.3816 51.4039 65.5 51C66.4239 50.8214 65.7953 52.2016 66.5 51.5C66.8524 51.1513 67.391 51.8061 67 51.5C66.6133 51.1939 65.9598 51.1786 65.5 51C63.5578 50.2517 63.5669 50.6913 61.5 50.5C59.3472 50.3044 58.1571 50.0298 56 50C51.0585 49.9277 46.9072 49.2219 42 50C40.1179 50.2976 37.8563 50.0706 36 50.5C35.5402 50.6063 36.3953 50.7364 36 51C35.364 51.4294 35.3898 51.545 36 52C36.2449 52.1828 37.2121 52.4235 37.5 52.5C39.1801 52.9337 38.307 53.1258 40 53.5C40.8035 53.6786 42.1793 53.3852 43 53.5C43.1934 53.5043 43.8066 53.4872 44 53.5C46.5094 53.6488 47.9906 53.4957 50.5 53.5C53.5938 53.5043 56.4019 53.1148 59.5 53Z" fill="#F26486"/>
<path d="M11.0734 55.9856C11.5074 56.228 11.9414 56.4618 12.3711 56.7084C14.5367 57.9543 16.8571 58.8387 19.2763 59.4127C22.4905 60.178 25.7261 60.8498 28.9747 61.4706C30.6204 61.7853 32.3048 61.9086 33.9764 62.0914C35.9186 62.2998 37.8609 62.4783 39.8031 62.6569C40.4004 62.7122 40.9977 62.759 41.5992 62.776C43.1118 62.827 44.6243 62.8738 46.1412 62.8993C48.7452 62.9461 51.3491 63.0183 53.9488 62.9971C56.3165 62.9801 58.6841 62.9078 61.0432 62.759C63.6858 62.5931 66.3328 62.4018 68.9582 62.0616C72.254 61.6365 75.524 61.0539 78.807 60.5352C78.8628 60.5267 78.9144 60.4884 78.966 60.4629C79.3441 60.3864 79.7222 60.3183 80.1003 60.2333C83.1211 59.5402 86.0947 58.6941 88.9178 57.3887C90.2627 56.768 91.4616 55.9303 92.5402 54.9226C91.3112 57.0954 89.8416 59.1065 88.1959 60.9859C80.7664 69.4728 71.4505 74.7367 60.3127 76.8245C58.3318 77.1944 56.3079 77.373 54.2969 77.5388C53.2656 77.6238 52.548 77.9767 52.2085 78.9632C52.1355 79.1673 51.998 79.3671 51.998 79.5712C51.9894 85.2221 51.9937 90.8772 51.9937 96.528C51.4572 97.5 49.4572 97 49.6917 96.409C49.6917 90.7029 50.6917 84.9967 50.6917 79.2906C50.6702 79.2906 50.6487 79.2906 50.6315 79.2906C50.5886 79.4267 50.5456 79.567 50.5026 79.703C50.5069 78.1978 49.9397 77.6493 48.4186 77.5558C42.7594 77.2156 37.3237 75.9443 32.1287 73.695C26.2117 71.1311 21.0209 67.5339 16.5692 62.9078C14.5153 60.7818 12.6418 58.5028 11.0734 55.9856Z" fill="#EF406A"/>
<path d="M7.59274 126.011C7.51969 127.487 7.44235 128.958 7.3693 130.433C7.3607 130.569 7.31773 130.744 7.38649 130.829C7.5068 130.977 7.68728 131.118 7.86345 131.152C7.9408 131.169 8.15565 130.918 8.16854 130.778C8.20721 130.28 8.15565 129.778 8.19002 129.277C8.25018 128.341 8.34901 127.41 8.43066 126.475C9.62522 126.976 12.2369 126.062 13.4572 126.5C16.8733 127.729 19.8692 127.456 23.4572 128C27.6769 128.638 31.7204 130.498 35.9572 131C38.1831 131.264 40.2142 130.898 42.4572 131C45.2288 131.123 47.1814 131.453 49.9572 131.5C51.3323 131.521 53.0779 131.538 54.4572 131.5C55.9139 131.462 57.5005 131.055 58.9572 131C60.5428 130.94 60.8716 131.106 62.4572 131C64.3479 130.872 66.9572 130.5 69.1945 132.13C71.9403 131.824 74.7243 129.891 77.4572 129.5C80.9464 129.003 84.35 129.876 87.7318 128.894C87.7704 128.894 87.8091 128.898 87.8478 128.898C87.8865 129.085 87.9509 129.272 87.9595 129.459C88.0454 131.679 88.1185 133.894 88.2001 136.114C88.2044 136.267 88.2302 136.42 88.2302 136.573C88.2431 137.776 88.299 138.984 88.2474 140.183C88.2302 140.6 88.2732 140.867 88.6642 141.029C85.9485 141.68 83.25 142.428 80.5085 142.959C74.9912 144.027 69.4051 144.622 63.7975 144.954C60.9142 145.124 58.0309 145.204 55.1433 145.324C52.6124 145.324 50.0772 145.328 47.5462 145.328C45.7372 145.285 43.9282 145.281 42.1234 145.183C39.8202 145.06 37.517 144.915 35.2224 144.69C32.3048 144.405 29.3828 144.095 26.4823 143.678C20.604 142.832 14.7945 141.697 9.28576 139.401C7.61423 138.703 6.01574 137.87 4.67938 136.62C3.72974 135.731 3.2098 134.702 3.25277 133.35C3.32582 131.194 3.22699 129.034 3.30434 126.883C3.3602 125.352 3.58794 123.83 3.73404 122.303C3.81138 122.41 3.91021 122.507 3.96178 122.627C4.68367 124.272 6.08879 125.195 7.59274 126.011Z" fill="#EF406A"/>
<path d="M87.9638 152.943C85.6993 153.479 83.4477 154.078 81.166 154.537C78.8843 154.997 76.5811 155.354 74.2736 155.698C72.8384 155.911 71.3903 156.03 69.9422 156.162C68.0172 156.336 66.0878 156.498 64.1585 156.638C62.7705 156.74 61.3826 156.804 59.9947 156.868C58.3403 156.944 56.686 157.008 55.0273 157.076C54.8426 157.042 54.6578 156.982 54.4773 156.982C53.6222 156.978 52.7671 156.987 51.9077 156.991C50.1374 156.995 48.367 156.995 46.5966 156.995C45.6255 156.991 44.6501 157.029 43.679 156.974C41.1309 156.825 38.5741 156.71 36.0346 156.447C32.0427 156.03 28.0508 155.605 24.089 155.001C18.7134 154.185 13.4066 153.02 8.45219 150.706C7.11582 150.081 5.89547 149.189 4.69231 148.321C3.92745 147.768 3.45478 146.948 3.26141 146.004C3.26571 142.84 3.27001 139.677 3.2786 136.513C3.2786 136.322 3.35165 136.131 3.39462 135.939C4.11222 136.632 4.75247 137.436 5.56031 138.002C8.08265 139.766 10.9788 140.744 13.9094 141.612C18.5759 142.993 23.3499 143.848 28.1711 144.465C30.7622 144.796 33.3662 145.047 35.9659 145.285C37.7878 145.451 39.6183 145.591 41.4445 145.638C45.6083 145.749 49.7764 145.8 53.9402 145.872C54.5031 145.88 55.0703 145.898 55.6332 145.885C57.2231 145.855 58.813 145.842 60.3986 145.761C62.0615 145.676 63.7245 145.528 65.3831 145.392C67.5101 145.217 69.6414 145.098 71.7555 144.83C76.1815 144.273 80.5988 143.631 84.943 142.598C85.9829 142.351 87.0142 142.088 88.0498 141.833C88.1013 141.909 89.0044 141.923 89.0001 142C88.9657 143.514 88.5344 144.986 88.5001 146.5C88.4614 148.613 88.0025 150.834 87.9638 152.943Z" fill="#514AC8"/>
<path d="M85.0427 46.5C82.4044 45.8665 80.9777 45.5545 78.0427 45C74.7306 44.3743 72.3692 44.5443 69.0427 44C66.5081 43.5853 65.603 43.7019 63.0427 43.5C60.3175 43.2851 58.2764 43 55.5428 43C54.957 43 54.0428 43 54.0428 43C51.761 42.9957 47.9572 43 47.9572 43H47.0428C47.0428 43 33.9205 43.2977 27.243 44.433C22.8686 45.1771 18.5373 46.104 14.4508 47.8813C13.5656 48.2682 12.7062 48.736 11.8812 49.2334C10.5191 50.0541 9.42333 51.1128 9.13973 52.7668C7.41663 49.7352 6.08457 46.5377 5.1822 43.1872C4.61499 41.0739 4.19389 38.9139 3.79856 36.7624C3.57082 35.5081 3.49777 34.224 3.40754 32.9484C3.30011 31.4645 3.24422 30.0035 3.17117 28.5195C3.16688 28.4345 3.15829 28.3137 3.17118 28.2031C3.27431 28.2329 3.37746 28.2458 3.40324 28.2798C4.85133 30.2399 6.94397 31.3029 9.10965 32.2384C12.3453 33.6373 15.7442 34.5387 19.1861 35.27C21.1412 35.6867 23.1007 36.0949 25.073 36.418C26.8391 36.7072 28.6223 36.8815 30.397 37.0898C31.5228 37.2217 32.6486 37.345 33.7787 37.447C35.3084 37.5831 36.8425 37.7106 38.3765 37.8169C39.7386 37.9105 41.1051 37.9743 42.4672 38.038C43.5845 38.0891 44.706 38.1188 45.8275 38.1613C46.558 38.1911 47.2885 38.2294 48.019 38.2591C49.5358 38.2676 51.0526 38.2889 52.5695 38.2804C53.3172 38.2761 54.0648 38.2124 54.8168 38.1741C55.5344 38.1698 56.2563 38.1741 56.9739 38.1571C58.4821 38.1273 59.9947 38.1273 61.5029 38.038C63.196 37.936 64.8804 37.7404 66.5734 37.5873C69.1043 37.3577 71.6482 37.2004 74.1705 36.8687C76.8303 36.5201 79.473 36.0439 82.107 35.5506C83.9505 35.2062 85.7681 34.7428 87.5943 34.3303C87.6459 34.4239 87.7533 34.5259 87.7404 34.6067C87.5599 35.759 87.4052 36.9155 87.156 38.055C86.5673 40.7465 85.9357 43.4295 85.2997 46.1125C85.2396 46.3081 85.1759 46.3342 85.0427 46.5Z" fill="#FDECF0"/>
<path d="M88.1916 33.5352C85.738 34.1135 83.2973 34.7598 80.8265 35.2573C78.6608 35.6952 76.4694 36.0184 74.2736 36.299C71.7255 36.6264 69.1645 36.8773 66.6078 37.1111C64.7429 37.2812 62.8737 37.4258 61.0045 37.4683C55.9211 37.5831 50.8378 37.6596 45.7544 37.6936C44.0098 37.7064 42.2653 37.5703 40.525 37.4725C38.8406 37.379 37.1518 37.3025 35.4717 37.1196C28.4719 36.3713 21.485 35.5464 14.6871 33.6118C12.0488 32.8592 9.43191 32.0173 7.06426 30.6141C6.05876 30.0189 5.1392 29.2535 4.27551 28.4626C3.63096 27.8716 3.2743 27.0637 3.26141 26.1496C3.2743 25.1461 3.2872 24.1469 3.30009 23.1434C4.52044 23.913 5.65093 24.4175 6.95721 25C9.03696 25.9269 11.27 26.8835 13.4572 27.5C16.3362 28.3121 19.0181 28.9345 21.9572 29.5C24.3979 29.9677 26.9864 30.1769 29.4572 30.5C31.4854 30.7636 33.4204 31.3087 35.4572 31.5C37.1116 31.6531 38.7986 31.415 40.4572 31.5C42.5885 31.6063 44.8259 31.9915 46.9572 32C50.2229 32.0128 53.6915 31.5638 56.9572 31.5C58.8565 31.4617 60.5622 31.6106 62.4572 31.5C64.5799 31.3767 66.8388 31.1998 68.9572 31C71.3206 30.7746 73.6068 30.3402 75.9572 30C78.5354 29.6258 80.8962 29.489 83.4572 29C85.0299 28.6981 86.8974 28.3657 88.4572 28C88.3326 29.62 88.0971 31.3625 87.9209 32.9782C87.8822 33.2971 87.9638 33.4119 88.1916 33.5352Z" fill="#514AC8"/>
<path d="M48.2467 28.5902C47.6623 28.5859 47.0779 28.5902 46.4978 28.5732C44.9638 28.5391 43.4341 28.5221 41.9043 28.4499C40.091 28.3648 38.282 28.2458 36.4729 28.1054C34.7799 27.9736 33.0783 27.8461 31.3939 27.6377C28.9961 27.3358 26.607 26.9872 24.2222 26.613C19.3881 25.8519 14.6141 24.8187 10.012 23.1264C7.94945 22.3653 5.95134 21.4596 4.16379 20.1585C2.59539 19.019 1.27621 17.6839 0.812132 15.728C0.550015 14.6352 1.00598 13.6183 1.45716 12.5C2.45716 15 4.22395 16.2935 6.48417 17.365C10.1538 19.1126 14.0684 20.1458 18.0388 20.9196C21.2573 21.5447 24.5015 22.0549 27.75 22.5226C29.963 22.8415 32.1974 23.0456 34.4275 23.2242C37.01 23.4325 39.5968 23.5771 42.1836 23.7132C43.6919 23.794 45.2044 23.8067 46.717 23.8492C46.8287 23.8748 46.9404 23.9173 47.0521 23.9173C49.0631 23.9343 51.0784 23.9555 53.0894 23.947C54.0906 23.9428 55.0918 23.8833 56.093 23.845C58.6325 23.7599 61.1764 23.7344 63.7116 23.5729C66.7281 23.3773 69.7403 23.1094 72.7439 22.7862C79.4601 22.0677 86.1118 20.9749 92.5487 18.8617C94.7488 18.1389 96.8887 17.2715 98.8138 15.9618C100.077 15.103 100.957 14 101.62 12.3689C101.766 12.8579 101.908 13.1726 101.955 13.5C102.277 15.83 101.452 17.7137 99.6818 19.2444C96.2957 22.1697 92.1534 23.5048 87.9338 24.6018C84.8743 25.397 81.7633 26.0135 78.6479 26.5662C76.0139 27.034 73.3455 27.3529 70.6813 27.625C67.6562 27.9311 64.6183 28.1437 61.5803 28.3266C59.204 28.4711 56.8235 28.5051 54.4473 28.5859C52.3761 28.5944 50.3093 28.5902 48.2467 28.5902Z" fill="#3D37A6"/>
<path d="M85.016 113.311C85.0547 113.14 85.1664 112.949 85.1192 112.8C84.234 109.922 83.366 107.03 82.0082 104.326C80.8523 102.026 79.6921 99.7085 78.3127 97.54C77.1439 95.7032 75.7131 94.0194 74.3036 92.3441C71.9489 89.5506 69.1086 87.3013 66.0018 85.3751C63.7416 83.9762 61.3525 82.841 58.8216 81.9991C58.5895 81.9225 58.4572 82 58.177 81.6164C60.4802 82.0969 62.8349 82.42 65.0823 83.0876C81.7632 88.0156 94.2718 101.273 98.1692 118.051C98.2981 118.604 98.4012 119.165 98.5129 119.722C98.4399 119.714 98.3367 119.731 98.3024 119.693C98.0102 119.361 97.7523 118.995 97.4344 118.685C96.1109 117.397 94.4909 116.568 92.8065 115.853C90.456 114.854 88.0325 114.059 85.5274 113.519C85.3598 113.447 85.1879 113.379 85.016 113.311Z" fill="#FAC7D3"/>
<path d="M88.3119 28.1139C86.7521 28.4796 85.2009 28.9006 83.6282 29.2024C81.0715 29.6914 78.5019 30.1549 75.9237 30.5291C73.5775 30.8692 71.2099 31.1158 68.8465 31.3412C66.7281 31.541 64.6054 31.6813 62.4827 31.8046C60.5877 31.9152 58.6884 31.996 56.7891 32.0343C53.5234 32.098 50.262 32.1533 46.9963 32.1406C44.865 32.1321 42.7337 32.0172 40.6023 31.9152C38.9394 31.8344 37.2808 31.7239 35.6264 31.5665C33.5896 31.3752 31.5529 31.1541 29.5247 30.8905C27.0539 30.5716 24.5745 30.2867 22.1338 29.8147C19.1947 29.2492 16.2556 28.6157 13.3809 27.8036C11.1894 27.187 9.04949 26.3409 6.97404 25.414C5.66775 24.8314 4.51615 23.9088 3.29581 23.1392C3.28721 22.5439 3.26573 21.9486 3.27862 21.3491C3.28721 20.9792 3.35167 20.6135 3.39034 20.2436C5.56892 21.9571 8.08266 23.0243 10.6738 23.93C15.1254 25.482 19.7232 26.4302 24.3726 27.1785C29.5204 28.0034 34.7026 28.5179 39.9062 28.8028C41.466 28.8878 43.0301 28.9473 44.59 29.0196C45.3806 29.0536 46.167 29.0834 46.9576 29.1174C48.1264 29.1174 49.2952 29.1217 50.464 29.1217C51.0483 29.1217 51.6284 29.1259 52.2128 29.1259C53.3429 29.1217 54.4731 29.1174 55.6032 29.1174C57.3349 29.0494 59.0708 28.9856 60.8025 28.9133C61.533 28.8836 62.2678 28.8453 62.9983 28.7985C71.4978 28.2755 79.9328 27.3103 88.183 25.1248C88.2561 25.1036 88.3377 25.1036 88.415 25.0951C88.4408 25.3247 88.4795 25.5543 88.4881 25.7839C88.5139 26.5195 88.5268 27.2551 88.5439 27.9906C88.4666 28.0374 88.3893 28.0757 88.3119 28.1139Z" fill="#615BCA"/>
<path d="M53.5105 157.701C54.3871 157.692 55.2594 157.701 56.136 157.675C58.3189 157.607 60.506 157.548 62.6889 157.437C64.2272 157.361 65.7656 157.242 67.2996 157.093C69.4008 156.889 71.5021 156.697 73.5904 156.396C79.8382 155.49 86.0474 154.406 92.003 152.233C93.8507 151.561 95.6426 150.762 97.2411 149.609C97.7395 149.248 98.2208 148.844 98.6505 148.402C99.4755 147.556 99.9912 146.569 99.888 145.34C99.858 144.962 99.8837 144.579 99.8837 144.184C100.932 144.601 101.985 146.956 101.865 148.546C101.607 148.219 101.538 148.521 101.439 148.678C100.361 150.422 98.7493 151.591 97.0005 152.56C93.9453 154.248 90.6409 155.303 87.2677 156.174C81.6988 157.612 76.0225 158.424 70.3161 159.049C67.9141 159.312 65.5034 159.465 63.0928 159.636C61.5287 159.746 59.9603 159.818 58.3919 159.869C56.411 159.933 54.4301 159.98 52.4492 159.984C50.6058 159.984 48.7624 159.92 46.9146 159.874C45.8103 159.848 44.706 159.806 43.6017 159.759C41.7239 159.687 39.8461 159.619 37.9683 159.521C36.9069 159.465 35.8456 159.389 34.7885 159.283C33.0998 159.113 31.4111 158.917 29.7224 158.717C28.1497 158.53 26.5727 158.368 25.0128 158.109C22.8214 157.739 20.6428 157.318 18.4685 156.868C14.1285 155.966 9.87882 154.771 5.94277 152.684C4.43882 151.884 2.99932 150.962 1.94226 149.584C1.51686 149.031 1.13443 148.444 0.794964 147.964C0.713321 148.262 0.605895 148.636 0.49847 149.01C0.339481 146.969 1.95715 144 2.69424 143.814C2.69424 144.384 2.69853 144.817 2.69424 145.247C2.67705 146.714 3.23136 147.9 4.38296 148.848C6.6045 150.685 9.1956 151.837 11.9156 152.667C14.829 153.555 17.7853 154.321 20.7502 155.009C22.8815 155.503 25.0601 155.83 27.2301 156.136C29.5806 156.472 31.9439 156.719 34.3073 156.961C35.837 157.118 37.3753 157.242 38.9136 157.314C42.218 157.463 45.5267 157.569 48.8354 157.692C49.0417 157.726 49.2479 157.782 49.4542 157.786C50.4854 157.794 51.5167 157.799 52.548 157.786C52.8617 157.782 53.184 157.731 53.5105 157.701Z" fill="#6F69CF"/>
<path d="M0.49408 149.006C0.601505 148.632 0.70463 148.253 0.79057 147.96C1.13003 148.44 1.51247 149.027 1.93787 149.58C2.99493 150.957 4.43443 151.88 5.93838 152.679C9.87013 154.767 14.1199 155.962 18.4641 156.863C20.6384 157.314 22.8213 157.735 25.0085 158.105C26.5683 158.369 28.1453 158.526 29.718 158.713C31.4067 158.913 33.0911 159.108 34.7841 159.278C35.8412 159.385 36.9025 159.466 37.9639 159.517C39.8417 159.61 41.7195 159.678 43.5973 159.755C44.7016 159.797 45.8059 159.84 46.9103 159.869C48.7537 159.916 50.5971 159.98 52.4448 159.98C54.4257 159.98 56.4066 159.929 58.3875 159.865C59.9559 159.814 61.5244 159.742 63.0885 159.631C65.4991 159.461 67.914 159.308 70.3117 159.045C76.0181 158.42 81.6945 157.607 87.2634 156.17C90.6322 155.303 93.9409 154.244 96.9961 152.556C98.7493 151.587 100.356 150.417 101.435 148.674C101.534 148.517 101.602 148.215 101.86 148.542C101.865 150.149 101.1 151.417 100.034 152.535C98.5086 154.134 96.6093 155.175 94.6112 156.064C90.9373 157.697 87.0743 158.726 83.1426 159.5C80.3882 160.044 77.6166 160.503 74.8364 160.894C72.3141 161.247 69.7703 161.481 67.2351 161.719C65.542 161.881 63.8447 161.978 62.1474 162.076C60.4114 162.174 58.6711 162.229 56.9352 162.302C56.1445 162.336 55.3582 162.361 54.5675 162.391C54.4214 162.357 54.2796 162.297 54.1335 162.297C52.101 162.293 50.0685 162.293 48.0404 162.297C47.9158 162.297 47.7911 162.357 47.6665 162.391C46.7212 162.357 45.7758 162.314 44.8305 162.289C43.477 162.251 42.1234 162.255 40.7741 162.174C39.094 162.076 37.4182 161.919 35.7424 161.783C34.1224 161.651 32.4981 161.536 30.8825 161.366C29.632 161.234 28.3816 161.051 27.1398 160.852C24.4455 160.418 21.7341 160.069 19.0743 159.491C14.8031 158.564 10.5662 157.488 6.63449 155.507C6.13174 155.256 5.63759 154.984 5.15632 154.695C2.92188 153.343 1.0441 151.706 0.49408 149.006Z" fill="#3D37A6"/>
<path d="M85.0427 46.5C85.1759 46.3342 85.2396 46.3081 85.2826 46.121C85.9185 43.438 86.5502 40.755 87.1389 38.0635C87.3881 36.924 87.5385 35.7675 87.7233 34.6152C87.7362 34.5344 87.6287 34.4324 87.5772 34.3388C89.485 33.6883 91.423 33.1143 93.2879 32.3617C94.6285 31.8174 95.9133 31.1073 97.138 30.3335C97.9716 29.8105 98.6548 29.0536 99.4412 28.3691C99.3939 29.313 99.3552 30.2782 99.2994 31.2434C99.1919 33.0675 99.1662 34.9001 98.9556 36.7114C98.3197 42.1497 96.6782 47.2945 94.1516 52.163C94.027 52.4012 93.8723 52.618 93.7305 52.8476C93.6059 52.7286 93.391 52.6265 93.3695 52.4947C93.2406 51.6528 92.8109 50.9767 92.205 50.4112C90.2456 48.5744 87.8092 47.6305 85.2955 46.8311C85.158 46.7588 85.1759 46.568 85.0427 46.5Z" fill="#FAC7D3"/>
<path d="M88.6599 141.029C88.2689 140.863 88.2259 140.6 88.2431 140.183C88.2904 138.98 86.97 139.703 86.9571 138.5C84.6883 139.927 84.9614 136.726 84.9571 136.573C84.8798 134.353 85.043 132.22 84.9571 130C84.9485 129.813 84.0707 126.602 87.457 127.5C88.3551 127.194 88.5633 127.315 89.457 127C91.8032 126.175 93.5234 124.103 95.457 122.5C96.3723 121.743 98.6977 122.933 98.8395 121.712C98.9942 123.256 99.1446 124.804 99.2993 126.347C99.2993 129.047 99.2993 131.751 99.2993 134.451C98.9641 135.837 97.9715 136.713 96.8672 137.487C94.7401 138.98 92.3295 139.877 89.8802 140.68C89.4849 140.816 89.0681 140.918 88.6599 141.029Z" fill="#EF406A"/>
<path d="M98.8438 121.712C98.6977 122.933 98.0145 123.843 97.1035 124.599C95.1698 126.202 92.8838 127.159 90.5377 127.984C89.6439 128.299 88.8552 128.698 87.9572 129C87.9185 129 83.4958 129 83.4572 129C83.4958 128.719 85.5575 128.26 85.5403 127.984C85.4887 127.185 85.652 126.295 85.5403 125.5C85.1836 123.03 85.331 122.966 84.9572 120.5C84.9271 120.504 83.9872 119.996 83.9571 120C83.9013 120.153 84.4571 119.693 85.9572 118.5C83.9571 119 83.9571 119.693 85.9572 118C85.9744 117.843 83.4872 117.645 83.4571 117.5C83.1864 116.318 82.2193 115.186 81.9572 114C81.9228 113.847 85.5016 113.685 85.5403 113.519C88.0454 114.059 90.4689 114.85 92.8194 115.853C94.4995 116.568 96.1238 117.397 97.4473 118.685C97.7652 118.991 98.0188 119.361 98.3153 119.693C98.3496 119.731 98.4528 119.714 98.5258 119.722C98.6246 120.386 98.7364 121.049 98.8438 121.712Z" fill="#F45279"/>
<path d="M87.4572 153C87.4958 150.891 87.9099 148.609 87.9571 146.5C87.9915 144.986 88.0215 143.624 88.0559 142.11C88.0559 142.034 88.1075 141.851 88.0559 141.774C89.9853 141.085 91.9619 140.49 93.8354 139.678C95.2104 139.083 96.4866 138.249 97.7456 137.429C98.2957 137.071 98.6996 136.48 99.1679 136C99.2066 136.213 99.2797 136.429 99.2797 136.642C99.2926 139.788 99.3011 142.931 99.3054 146.077C99.0992 147.115 98.4847 147.931 97.6554 148.505C96.4222 149.355 95.1588 150.219 93.7924 150.814C91.906 151.626 89.408 152.32 87.4572 153Z" fill="#463FBB"/>
<path d="M85.0362 46.431C87.5456 47.2304 90.2413 48.5701 92.2007 50.407C92.8023 50.9725 93.2974 51.4761 93.5976 52.3698C93.6585 52.5514 93.7261 52.8434 93.7261 52.8434C93.7261 52.8434 92.9355 54.2338 92.5402 54.9311C90.9221 57.7688 91.0803 57.5241 89.9572 59C88.0653 61.4861 86.6414 63.1678 84.5011 64.7874C70.1382 77.7449 57.0546 77.1285 56.6765 77.205C57.2781 76.1378 74.833 67.9823 80.7621 57.2612C81.8281 55.3335 82.4465 53.8893 83.1641 52.1545C83.8387 50.526 84.3501 48.8338 84.9517 47.1755C85.0032 47.0352 84.9201 46.5458 85.0362 46.431Z" fill="#EF406A"/>
<path d="M85.0427 46.5C86.5427 46.5 88.673 47.1856 90.5427 48.5C92.2408 49.6937 94.0427 52 94.0427 52.5C94.0427 53 93.1582 54.1005 92.9334 54.5229C92.5709 55.2041 91.6672 56.5397 91.6672 56.5397C91.6672 56.5397 89.7073 59.5054 88.5427 60.5C85.4796 63.116 83.7687 62.8233 80.2312 61.8808C79.5118 61.6891 78.0421 61.0094 78.0421 61.0094C78.0421 61.0094 79.8902 59.1165 80.497 57.8687C81.4334 55.9461 82.3498 54.293 83.173 52.302C83.9466 50.433 84.3354 48.9089 85.0427 47C85.1032 46.8385 84.9236 46.6271 85.0427 46.5Z" fill="#F45279"/>
<path d="M87.9572 28C88.0345 27.9617 88.4664 28.0374 88.5481 27.9992C88.9778 27.8844 89.4118 27.7781 89.8329 27.6505C92.7463 26.7491 95.6038 25.7159 98.1562 24.0023C98.5042 23.7685 98.8523 23.5431 99.2992 23.2455C99.2992 24.5636 99.2992 25.7669 99.2992 26.9744C99.0671 28.0119 98.3839 28.7773 97.5589 29.347C96.403 30.1464 95.2084 30.9415 93.9236 31.49C92.063 32.2894 90.1079 32.8677 88.1914 33.5395C87.9594 33.4162 87.8778 33.3014 87.9164 32.974C88.0926 31.354 87.8325 29.62 87.9572 28Z" fill="#463FBB"/>
<path d="M99.2995 26.9702C99.2995 25.7669 99.2995 24.5635 99.2995 23.2412C98.8483 23.5388 98.5002 23.7684 98.1565 23.998C95.604 25.7116 93.3706 27.0986 90.4572 28C90.0318 28.1318 88.6763 27.9598 88.2466 28.0746C88.2466 28.0746 88.4514 26.682 88.4195 25.8289C88.4109 25.5993 88 25.5 88.4195 25.0993C89.9836 24.5848 91.5606 24.1128 93.1075 23.5516C95.3161 22.748 97.4174 21.7317 99.3983 20.2393C99.3983 20.6347 99.3983 20.9324 99.3983 21.2258C99.3983 22.918 99.4069 24.6061 99.3983 26.2983C99.3983 26.5237 99.3338 26.7491 99.2995 26.9702Z" fill="#463FBB"/>
<path d="M7.59286 126.011C6.08461 125.195 4.67949 124.268 3.9576 122.627C3.90603 122.508 3.8072 122.41 3.72986 122.303C3.85017 121.508 3.97049 120.713 4.0908 119.918C5.47014 117.911 7.54559 116.852 9.76714 115.836C9.50073 116.742 9.19994 117.554 9.03235 118.387C8.55968 120.734 8.13858 123.094 7.70028 125.446C7.66161 125.637 7.62723 125.824 7.59286 126.011Z" fill="#F26486"/>
<path d="M51.9572 96.5C50.9572 91.5 51.4486 85.1509 51.4572 79.5C51.4572 79.2959 52.1354 79.18 52.2084 78.9759C52.2084 79.2013 52.2042 79.4309 52.2042 79.6562C52.1741 79.8773 52.1139 80.0984 52.1139 80.3238C52.1096 85.5112 52.1096 90.6943 52.1053 95.8817C52.0967 96.0986 51.9572 96.5 51.9572 96.5Z" fill="#EF406A"/>
<path d="M50.5027 79.7115C50.5456 79.5754 50.4143 79.1361 50.4572 79C50.4787 79 50.6745 79.2991 50.6917 79.2991C50.6917 85.0052 50.6917 90.7113 50.6917 96.4175C50.6573 96.1964 50.4572 96.2211 50.4572 96C50.4529 90.9359 50.4941 85.74 50.4898 80.6759C50.4898 80.4548 50.4873 80.2211 50.4572 80C50.4615 79.9405 50.4984 79.7753 50.5027 79.7115Z" fill="#FDECF0"/>
<path d="M3.39884 135.939C3.36017 136.131 3.28712 136.322 3.28282 136.513C3.26993 139.677 3.26993 142.84 3.26563 146.004C3.23126 145.821 3.1668 145.638 3.1668 145.455C3.16251 142.424 3.15821 139.388 3.1754 136.356C3.1754 136.22 2.94765 135.876 3.39884 135.939Z" fill="#514AC8"/>
<path d="M56.093 23.8535C55.0918 23.8875 54.0906 23.9513 53.0894 23.9555C51.0784 23.964 49.0631 23.9385 47.0521 23.9257C46.9404 23.9257 46.8286 23.879 46.7169 23.8577C47.9029 23.8577 49.0846 23.8535 50.2705 23.8535C52.2085 23.8492 54.1507 23.8492 56.093 23.8535Z" fill="#3D37A6"/>
<path d="M47.5463 145.328C50.0772 145.328 52.6124 145.323 55.1434 145.323C54.9973 145.357 54.8512 145.417 54.7008 145.417C52.462 145.421 50.2233 145.421 47.9846 145.417C47.8385 145.417 47.6924 145.362 47.5463 145.328Z" fill="#903523"/>
<path d="M47.658 162.395C47.7826 162.361 47.9072 162.306 48.0318 162.302C50.0643 162.297 52.0968 162.297 54.1249 162.302C54.271 162.302 54.4128 162.361 54.5589 162.395C52.26 162.395 49.9611 162.395 47.658 162.395Z" fill="#312D76"/>
<path d="M54.7996 38.1783C54.0519 38.2166 53.3042 38.2804 52.5522 38.2846C51.0354 38.2931 49.5185 38.2719 48.0017 38.2634C48.3927 38.2294 48.7881 38.1698 49.1791 38.1656C51.0569 38.1613 52.9261 38.1741 54.7996 38.1783Z" fill="#312D76"/>
<path d="M3.39458 20.2521C3.35591 20.622 3.29145 20.9877 3.28286 21.3576C3.26997 21.9529 3.29145 22.5481 3.30005 23.1477C3.28715 24.1511 3.27426 25.1503 3.26137 26.1538C3.22699 25.9922 3.16684 25.8264 3.16684 25.6648C3.15825 23.9853 3.15824 22.3015 3.17543 20.622C3.17543 20.4945 3.31723 20.3754 3.39458 20.2521Z" fill="#615BCA"/>
<path d="M50.4681 29.1302C49.2994 29.1302 48.1306 29.1259 46.9618 29.1259C47.5376 29.0962 48.1091 29.0451 48.6849 29.0451C49.2779 29.0451 49.8752 29.1004 50.4681 29.1302Z" fill="#312D76"/>
<path d="M49.6475 23.39C50.8162 23.39 51.985 23.39 53.1538 23.3943C52.1311 23.4241 51.1084 23.4623 50.0858 23.4836C49.944 23.4836 49.7936 23.4198 49.6475 23.39Z" fill="#463FBB"/>
<path d="M55.6074 29.1259C54.4773 29.1302 53.3472 29.1345 52.217 29.1345C53.3472 29.1302 54.4773 29.1302 55.6074 29.1259Z" fill="#EF406A"/>
<path d="M86.2235 118.727C86.2794 118.574 86.3352 118.421 86.3868 118.264C86.4169 118.26 86.4512 118.255 86.4813 118.251C86.8552 120.717 87.2376 123.183 87.5985 125.65C87.7146 126.445 87.779 127.244 87.8306 128.048C87.8478 128.324 87.9959 128.719 87.9572 129C84.5712 129.982 80.8952 130.595 77.4061 131.088C74.6732 131.475 71.9274 131.819 69.1859 132.125C67.3038 132.334 65.4088 132.461 63.5182 132.589C61.9326 132.695 60.347 132.763 58.7571 132.823C57.3047 132.878 55.848 132.903 54.3913 132.942C53.012 132.976 51.637 133.061 50.2576 133.04C47.4818 132.997 44.7059 132.929 41.9343 132.806C39.6913 132.708 37.444 132.597 35.2181 132.334C30.9813 131.832 26.7488 131.262 22.5291 130.629C18.9411 130.089 15.4305 129.196 12.0143 127.967C10.794 127.529 9.61662 126.972 8.42206 126.47C8.7873 124.195 9.10099 121.912 9.53498 119.654C9.76702 118.451 10.2225 117.29 10.5319 116.1C10.6694 115.572 10.9659 115.317 11.4729 115.139C14.9363 113.901 18.4985 113.026 22.1123 112.371C24.0588 112.018 26.0226 111.737 27.9734 111.423C28.0464 111.41 28.3885 111.03 28.4572 111C28.8654 111.06 29.8498 112.079 29.9572 112.5C29.7638 112.572 29.6592 113.97 29.4572 114C27.3732 114.281 26.6459 115.305 24.9572 116.5C23.8787 117.261 25.4986 115.754 24.9572 117C24.8197 117.17 24.1291 117.214 23.9572 117.431C24.1635 117.503 24.7853 117.278 24.9572 117.337C26.0143 117.954 22.4947 119.187 23.7108 119.34C23.9858 119.365 26.6822 116.974 26.9572 117C28.4354 117.153 28.479 115.847 29.9572 116C30.1506 116 31.2638 117.333 31.4572 117.337C32.9784 117.295 32.3069 117.707 33.828 117.66C34.0558 117.63 34.9947 117.388 35.2181 117.337C36.3568 117.073 35.3228 117.609 36.4572 117.337C37.2779 116.946 37.1365 116.891 37.9572 116.5C38.1076 116.394 33.7965 115.163 38.4572 116C37.7826 114.737 37.6018 115.703 36.9572 114.5C36.7638 114.143 37.1092 112.306 37.4572 112C38.394 111.167 39.5291 110.842 40.4572 110C41.8967 109.962 45.5177 110.038 46.9572 110C46.0033 111.05 44.4696 112.145 43.5113 113.196C43.5371 113.221 43.5629 113.247 43.593 113.272C44.7188 112.634 45.8489 111.997 46.9747 111.359C49.1017 110.155 51.3834 109.879 53.6823 110.593C54.9542 110.989 56.1058 111.771 57.3133 112.375C57.7903 112.613 58.2758 112.838 58.7571 113.068C58.9591 113.259 59.161 113.455 59.363 113.646C59.5477 114.059 59.8614 114.165 60.304 114.101C61.0302 113.991 61.7779 113.991 62.4912 113.829C63.5225 113.6 64.6998 113.897 65.5592 113.026C65.5764 113.009 65.6323 113.013 65.6667 113.017C66.1694 113.098 66.0835 112.792 66.0405 112.486C65.946 111.822 65.8643 111.159 65.7784 110.496C69.0828 110.857 72.6407 111.193 75.9451 111.55C74.7419 112.826 73.2938 114.131 72.0907 115.407C70.7156 114.509 70.2645 114.565 69.1172 115.789C68.5371 116.406 67.957 117.022 67.3855 117.647C66.5518 118.549 66.6249 119.493 67.5831 120.275C67.2566 120.611 66.93 120.943 66.5261 121.355C67.0503 121.419 67.4456 121.466 67.8366 121.512C69.7617 121.7 71.6868 121.963 73.6161 122.044C74.9783 122.104 76.3533 121.95 77.7197 121.836C79.9542 121.644 82.1285 121.181 84.2426 120.415C85.145 120.097 85.7336 119.484 86.2235 118.727ZM62.7576 126.849C62.7318 126.874 62.6803 126.908 62.6845 126.921C62.706 126.963 62.7447 127.032 62.7748 127.032C63.935 127.01 65.0995 126.981 66.2597 126.951C66.5991 126.874 67.1362 126.895 67.2351 126.7C67.5487 126.092 67.7507 125.412 67.8839 124.74C68.0214 124.055 67.7335 123.558 67.2651 123.383C66.7366 123.188 66.2468 123.354 65.8729 124.021C65.1768 125.258 64.1971 126.168 62.908 126.768C62.8564 126.789 62.8092 126.823 62.7576 126.849ZM58.5001 126.5C58.7794 126.44 59.2208 126.56 59.5001 126.5C55.3406 124.638 52.1553 123.209 48.0001 121.5C47.4801 121.287 46.5759 121.538 46.0001 121.5C44.9129 121.428 44.4755 121.613 43.5001 122C42.95 122.221 43.2622 122.973 43.0001 123.5C42.7637 124.061 42.7364 124.439 42.5001 125C42.3153 125.438 42.1434 125.249 42.5001 125.5C43.4927 126.21 43.8098 126.253 45.0001 126.5C45.3395 126.53 45.9965 124.985 46.5001 126C46.7192 126.017 46.7895 125.953 47.0001 126C47.8466 126.187 48.6536 126.304 49.5001 126.5C50.3036 126.564 50.7008 126.955 51.5001 126.925C53.1974 126.866 54.3156 126.696 56.0001 126.5C56.9798 126.394 57.5289 126.734 58.5001 126.5ZM60.4931 114.862C60.4415 114.935 60.3942 115.003 60.3427 115.075C60.8025 115.479 61.2622 115.891 61.7349 116.283C61.8209 116.355 61.9841 116.385 62.1045 116.372C63.2518 116.24 64.3991 116.095 65.5463 115.951C66.178 115.87 66.5432 115.458 66.4702 114.922C66.4014 114.437 65.8514 114.161 65.2413 114.254C64.4205 114.378 63.5998 114.463 62.7748 114.569C62.0142 114.663 61.2536 114.765 60.4931 114.862Z" fill="#F26486"/>
<path d="M42.059 110.16C41.1351 111.006 40.2155 111.856 39.2788 112.69C38.9307 113 38.9694 113.31 39.1585 113.668C39.803 114.871 40.4433 116.078 41.1179 117.341C40.9675 117.448 40.8171 117.558 40.671 117.664C40.005 116.406 39.3347 115.147 38.6686 113.884C38.2604 113.106 38.3635 112.719 39.0682 112.162C39.5839 111.754 40.1081 111.346 40.5765 110.891C42.8238 108.706 44.1946 106.065 44.6629 102.982C44.7747 102.255 44.809 101.52 44.8821 100.746C43.7992 100.657 43.0444 100.589 41.9572 100.5C41.9228 100.721 41.983 101.262 41.9572 101.5C41.8584 102.444 41.6463 103.073 41.4572 104C41.0275 106.058 40.1717 107.746 38.4572 109C37.6923 109.561 36.7565 110.486 35.9572 111C35.4373 111.336 35.0603 111.366 34.9572 112C34.8971 112.37 35.0373 113.309 34.4572 113.5C34.2553 113.462 33.7185 114.277 33.7185 113.992C33.3446 113.941 33.3396 112.507 32.9572 113C32.7381 113.285 33.4466 113.54 33.3735 113.931C33.3563 114.021 37.3821 114.118 37.3864 114.212C37.3091 114.909 32.0384 116.071 31.3766 115.811C30.7621 115.569 30.0846 114.691 29.4572 114.5C29.0103 114.364 28.4041 113.919 27.9572 114C24.9572 115 22.9572 116.5 20.299 118.175C20.1314 118.115 19.9595 118.06 19.7532 117.988C19.9294 117.771 20.0669 117.601 20.2044 117.426C20.3376 117.316 20.4751 117.214 20.604 117.095C22.817 115.037 25.4339 113.795 28.4203 113.298C29.2324 113.162 29.4473 112.698 29.0047 111.997C28.8972 111.576 28.5922 111.393 28.1839 111.333C27.5566 110.857 26.9378 110.372 26.2976 109.913C26.13 109.794 25.8979 109.718 25.6874 109.709C24.7378 109.675 24.0932 108.888 24.2393 107.944C24.2608 107.8 24.1448 107.604 24.0373 107.468C23.1736 106.358 22.6107 105.108 22.5592 103.718C22.4689 101.32 23.7537 99.6276 25.7261 98.4456C27.6726 97.2763 29.7395 97.2508 31.7891 98.2415C32.6528 98.6582 33.1642 99.364 33.1642 100.35C33.1642 100.593 33.1427 100.903 32.9966 101.061C32.5841 101.511 32.8118 101.89 33.0095 102.306C33.4134 103.161 33.7786 104.028 34.204 104.87C35.1064 106.66 34.7412 108.978 33.2888 110.343C33.2243 110.402 33.1814 110.483 33.0911 110.61C33.3275 110.564 33.4993 110.479 33.6497 110.508C34.7498 110.721 35.5318 110.134 36.3139 109.518C37.0873 108.91 37.9381 108.374 38.6428 107.694C40.0737 106.316 40.83 104.619 40.8945 102.617C40.9203 101.766 41.0749 100.92 41.1824 99.9763C40.8644 99.9763 40.5851 99.9721 40.3058 99.9763C39.7214 99.9891 39.2788 99.6447 39.2573 99.1472C39.2315 98.6284 39.5624 98.3733 40.2198 98.3563C40.5507 98.3478 40.8816 98.2925 41.4101 98.233C40.6238 97.6122 39.9792 97.102 39.339 96.5917C39.1714 96.4599 38.9952 96.3366 38.8448 96.1878C38.5053 95.8604 38.4452 95.4735 38.7331 95.0993C39.0167 94.7251 39.4163 94.6699 39.8245 94.8995C40.1253 95.0695 40.4046 95.2821 40.7956 95.4054C40.6324 95.1716 40.4648 94.9377 40.3015 94.7039C39.9663 94.2106 39.9964 93.9088 40.4519 93.5771C40.8644 93.2752 41.2597 93.3645 41.5992 93.7089C41.7324 93.845 41.8441 94.0023 42.0289 94.2319C42.0418 94.0703 42.0203 93.9768 42.059 93.9215C42.248 93.6621 42.3984 93.3092 42.6605 93.1817C43.0215 93.0031 43.3953 93.1987 43.5887 93.5643C44.1817 94.6869 44.7618 95.8179 45.3333 96.9532C45.6985 97.6802 45.4923 98.4456 45.4751 99.2067C45.4106 101.766 45.2989 104.326 44.1387 106.677C43.5457 107.902 42.7594 109.007 42.059 110.16ZM30.8696 110.993C32.6614 110.704 34.1095 109.024 34.1439 107.171C34.1783 105.181 32.8419 103.688 32.2661 101.928C30.8782 102.349 29.6363 102.838 28.5965 103.722C27.3675 104.764 26.7659 106.078 26.8605 107.694C26.8691 107.834 26.8003 107.974 26.7659 108.115C26.5812 108 26.3878 107.898 26.2159 107.77C25.7948 107.456 25.3608 107.468 25.0128 107.817C24.6948 108.132 24.7292 108.472 24.9612 108.803C25.2448 109.207 25.739 109.233 26.1901 108.922C26.3233 108.829 26.5124 108.808 26.6714 108.748C26.6714 108.901 26.6585 109.05 26.6757 109.203C26.6886 109.339 26.6972 109.496 26.7702 109.598C27.621 110.772 29.4602 111.393 30.8696 110.993ZM26.1128 107.03C26.4737 106.171 26.723 105.261 27.2042 104.505C28.1925 102.948 29.7867 102.179 31.4969 101.613C32.0298 101.439 32.511 101.188 32.5927 100.55C32.6872 99.8232 32.3864 99.2492 31.7977 98.8708C30.5731 98.0799 29.1894 97.9864 27.8101 98.2287C26.3276 98.4881 25.1932 99.33 24.2006 100.47C22.4217 102.506 23.0619 105.704 24.6088 107.23C25.1975 107.154 25.696 107.086 26.1128 107.03ZM44.8133 100.206C44.8735 99.6914 44.9809 99.2024 44.9723 98.7177C44.9594 98.1522 44.9551 97.5399 44.7403 97.0339C44.2977 95.9922 43.7262 95.0015 43.1848 94.0023C43.116 93.8705 42.9055 93.8152 42.7594 93.7259C42.7336 93.896 42.6391 94.0873 42.6906 94.2277C42.9184 94.8187 43.2063 95.3884 43.4383 95.9795C43.4942 96.124 43.4254 96.3196 43.4168 96.4897C43.2578 96.4217 43.0473 96.3962 42.9484 96.2771C42.3898 95.6138 41.8656 94.9165 41.3027 94.2532C41.1953 94.1256 40.9632 94.1001 40.787 94.0278C40.8128 94.2106 40.7827 94.4318 40.8773 94.5721C41.3371 95.2396 41.8398 95.8774 42.3039 96.5407C42.3941 96.6683 42.3769 96.8724 42.407 97.0425C42.2351 97.0169 42.0289 97.0467 41.8957 96.9617C41.191 96.5152 40.5163 96.022 39.8116 95.584C39.6397 95.4777 39.3819 95.5032 39.1628 95.465C39.2616 95.6478 39.3218 95.8774 39.4679 96.0007C40.1812 96.596 40.9331 97.1487 41.6336 97.7568C41.8054 97.9056 41.9257 98.2288 41.8914 98.4456C41.8656 98.6029 41.5648 98.7858 41.3585 98.8325C41.0191 98.9091 40.6495 98.875 40.2972 98.9133C40.1382 98.9303 39.9835 99.0154 39.8245 99.0664C39.962 99.1854 40.0823 99.381 40.2327 99.4065C40.7398 99.4958 41.2554 99.5298 41.7668 99.5809C41.857 99.7637 41.9859 99.9295 42.132 99.9508C43.0215 100.057 43.911 100.125 44.8133 100.206ZM29.5891 111.818C29.9242 112.588 31.0844 112.987 31.9567 112.579C32.5067 112.32 32.7302 111.576 32.4852 111.163C31.4969 111.384 30.5516 111.601 29.5891 111.818ZM29.5891 113.289C29.602 113.37 29.9872 113.419 30.0001 113.5C30.7391 113.793 30.7352 113.698 31.5001 114C31.5001 113.549 31.5001 113.823 31.5001 113.5C30.9672 113.44 30.9985 113.521 30.5001 113.5C30.2465 113.496 29.8383 113.238 29.5891 113.289ZM33.2329 111.227C33.0095 112.141 33.0653 112.213 34.1869 112.554C34.247 112.116 34.3115 111.682 34.3759 111.227C33.9505 111.227 33.5896 111.227 33.2329 111.227Z" fill="#FDECF0"/>
<path d="M65.7826 110.504C65.8686 111.167 65.9502 111.831 66.0447 112.494C66.0877 112.8 66.1737 113.106 65.6709 113.026C65.6365 113.021 65.585 113.013 65.5635 113.034C64.7041 113.906 63.5267 113.608 62.4954 113.838C61.7821 113.999 61.0344 113.999 60.3083 114.11C59.8657 114.178 58.1848 112.912 58 112.5C58.9926 112.385 60.4816 113.115 61.5 113C61.3066 111.371 61.6848 110.543 61.5 109C60.8855 109.064 60.5156 108.936 60 109C58.4832 109.187 57.5211 109.809 56 110C55.8711 109.817 55.3452 109.003 55.2163 108.82C57.3132 108.578 59.4102 108.344 61.5028 108.081C61.6532 108.059 61.8724 107.83 61.8981 107.672C62.1259 106.393 62.2849 105.1 62.5212 103.82C62.6716 103.025 63.0411 102.834 63.8533 102.885C64.4334 102.923 64.6826 103.114 64.7556 103.748C65.0092 105.942 65.3486 108.127 65.6623 110.313C65.6752 110.381 65.744 110.44 65.7826 110.504Z" fill="#FDECF0"/>
<path d="M55.2163 108.82C55.3452 109.003 56.9572 108 55.603 109.369C56.6557 110.606 59.9044 111.263 60.9572 112.5C60.4759 112.27 60.4341 117.238 59.9572 117C58.7497 116.396 58.229 117.9 56.9571 117.5C54.6539 116.781 50.0841 113.297 47.9571 114.5C46.8313 115.138 45.0829 116.362 43.9571 117C43.817 117.219 40.8093 111.219 42.4571 111.5C43.411 110.45 44.4988 111.55 45.4571 110.5C46.5743 109.271 48.659 107.626 49.7204 106.354C50.6357 105.261 52.1396 105.236 53.0334 106.456C53.5576 107.171 54.185 107.808 54.7737 108.472C54.8983 108.608 55.0702 108.706 55.2163 108.82Z" fill="#F26486"/>
<path d="M51.9936 99.5341C51.9936 99.8615 51.9808 100.185 51.9979 100.512C52.0194 100.916 51.8089 101.192 51.4393 101.141C51.1772 101.103 50.7647 100.839 50.7432 100.64C50.6616 99.904 50.6788 99.1472 50.726 98.4031C50.7518 98.0332 51.0612 97.8589 51.4436 97.8971C51.8046 97.9311 52.0022 98.1225 51.9936 98.5009C51.9807 98.8453 51.9893 99.1897 51.9936 99.5341C51.9893 99.5341 51.9893 99.5341 51.9936 99.5341Z" fill="#EF406A"/>
<path d="M51.9936 103.369C51.9936 103.505 51.985 103.637 51.9936 103.773C52.0194 104.186 51.7745 104.445 51.4135 104.386C51.1557 104.343 50.842 104.092 50.726 103.85C50.6057 103.599 50.6744 103.246 50.6916 102.944C50.7131 102.515 50.9494 102.268 51.4006 102.285C51.8346 102.302 52.0194 102.549 51.9893 102.97C51.9807 103.102 51.9893 103.238 51.9936 103.369C51.9893 103.369 51.9893 103.369 51.9936 103.369Z" fill="#EF406A"/>
<path d="M42.0632 54.2295C41.2425 54.1147 40.4089 54.0552 39.6054 53.8766C37.9123 53.5024 36.2279 53.0772 34.5521 52.6435C34.2642 52.567 33.9978 52.3629 33.7528 52.1801C33.1427 51.7251 33.1384 51.1596 33.7743 50.7302C34.1697 50.4623 34.6122 50.2029 35.0677 50.1009C36.9283 49.6714 38.7889 49.2292 40.671 48.9316C45.5782 48.1535 50.5326 48.2938 55.4742 48.3661C57.6313 48.3958 59.7841 48.7062 61.9369 48.9018C64.0037 49.0889 66.0405 49.4376 67.987 50.1859C68.4468 50.3602 68.8765 50.6451 69.2632 50.9512C69.6543 51.2574 69.607 51.6486 69.2589 51.9972C68.5542 52.6988 67.6347 53.0007 66.7108 53.175C64.5924 53.579 62.4525 53.8894 60.3212 54.2338C60.0376 54.2805 59.7497 54.3103 59.4618 54.3443C59.5907 54.2805 59.7196 54.221 59.9946 54.0892C59.5134 53.8809 59.1481 53.6257 58.7528 53.5705C56.8879 53.2983 55.0187 52.9667 53.1366 52.8774C51.1299 52.7796 49.1017 52.8476 47.095 52.9879C45.6985 53.0857 44.3149 53.3961 42.9398 53.6725C42.6261 53.7363 42.3554 54.0382 42.0632 54.2295Z" fill="#F45279"/>
<path d="M42.0632 54.2295C42.3554 54.0382 42.6261 53.7363 42.9441 53.6725C44.3192 53.3962 45.7028 53.0858 47.0993 52.988C49.106 52.8477 51.1299 52.7796 53.1409 52.8774C55.0187 52.971 56.8879 53.3026 58.7571 53.5705C59.1524 53.6258 59.5176 53.8809 59.9989 54.0892C59.7239 54.221 59.595 54.2806 59.4661 54.3444C56.3679 54.4592 53.2741 54.6675 50.176 54.659C47.6665 54.6547 45.1571 54.3869 42.6476 54.2381C42.45 54.2295 42.2566 54.2338 42.0632 54.2295Z" fill="#FDECF0"/>
<path d="M44.9767 126.925C43.7864 126.679 42.6821 126.249 41.6895 125.539C41.3328 125.284 41.1309 125.012 41.3156 124.574C41.552 124.013 41.7883 123.451 42.0246 122.89C42.7938 122.584 43.748 121.84 44.5 121.5C45.845 120.896 47.1593 121.426 48.5 122C50.7559 122.974 53.2398 123.539 55.5 124.5C56.9954 125.134 58.0954 126.151 59.5865 126.793C58.6196 127.027 57.6614 127.363 56.6774 127.474C54.993 127.669 53.2914 127.759 51.594 127.822C50.7948 127.852 49.987 127.708 49.1834 127.644C49.1061 127.567 49.0945 127.543 49 127.5C48.4371 127.253 47.6809 127.236 47.1567 126.925C46.3145 126.432 45.6943 126.428 44.9767 126.925Z" fill="#F26486"/>
<path d="M58.7657 113.077C57.713 111.839 56.6602 110.606 55.6074 109.369C57.1243 109.178 58.6411 108.982 60.1622 108.795C60.6822 108.731 61.2021 108.684 61.8123 108.616C61.9971 110.156 62.1818 111.686 62.3752 113.315C61.3568 113.43 60.3642 113.544 59.3716 113.655C59.1653 113.464 58.9634 113.268 58.7657 113.077Z" fill="#FDECF0"/>
<path d="M34.3331 113.111C34.9132 112.915 34.7413 112.354 34.8015 111.984C34.9046 111.35 35.1968 110.963 35.7167 110.627C36.516 110.113 37.2722 109.539 38.0414 108.978C39.7559 107.723 40.8688 106.069 41.2985 104.007C41.4919 103.084 41.5005 102.119 41.595 101.175C41.6208 100.941 41.6681 100.708 41.7024 100.487C42.7896 100.576 43.808 100.657 44.8865 100.746C44.8135 101.52 44.7791 102.255 44.6674 102.982C44.1947 106.065 42.824 108.706 40.5809 110.891C40.1126 111.35 39.5883 111.758 39.0727 112.162C38.368 112.719 38.2648 113.106 38.6731 113.884C39.3391 115.147 40.0094 116.406 40.6755 117.664C39.8547 118.056 38.7779 118.609 37.9572 119C37.6435 118.634 37.2708 118.366 36.9572 118C35.9775 116.882 34.9326 115.623 33.9572 114.5C33.5532 114.041 33.9378 113.31 34.3331 113.111Z" fill="#FDECF0"/>
<path d="M20.2991 118.179C22.4304 115.9 25.0559 114.488 28.1282 113.914C28.5751 113.829 29.0864 113.952 29.5376 114.089C30.165 114.276 30.7623 114.573 31.3767 114.816C32.0385 115.075 32.3092 114.913 32.3865 114.216C32.7733 114.399 34.4141 113.892 34.5 114.5C34.732 116.107 33.8905 118.141 34.1182 119.744C32.5971 119.786 31.0759 119.829 29.5548 119.875C29.4345 119.633 29.0603 119.247 28.9572 119C28.3169 117.427 27.4138 117.684 25.9572 118.5C25.2825 118.878 24.6017 119.079 23.9572 119.5C22.7411 119.347 21.3561 118.8 20.2991 118.179Z" fill="#F26486"/>
<path d="M34.1182 119.744C33.8905 118.136 33.667 116.529 33.435 114.926C33.3491 114.322 32.7733 114.399 32.3865 114.216C32.3822 114.123 32.3565 114.025 32.3736 113.931C32.4467 113.54 32.4166 113.064 32.6358 112.783C33.0182 112.29 33.3448 112.941 33.7186 112.992C33.9249 113.021 34.1268 113.068 34.3288 113.111C33.9335 113.31 33.9292 113.918 34.3288 114.382C35.3042 115.504 36.2882 116.618 37.2679 117.741C37.5859 118.102 37.8953 118.472 38.2047 118.842C37.0703 119.114 35.9359 119.387 34.7971 119.654C34.5823 119.701 34.3503 119.714 34.1182 119.744Z" fill="#F26486"/>
<path d="M59.595 126.798C58.104 126.151 56.6215 125.501 55.1262 124.867C52.8616 123.906 50.5885 122.975 48.3326 122.001C46.9962 121.423 45.6856 121.368 44.3407 121.972C43.5844 122.312 42.8024 122.588 42.0332 122.894C42.2953 122.367 42.7207 122.053 43.2707 121.831C44.2419 121.44 45.1829 120.943 46.2743 121.019C46.8501 121.058 47.4646 121.092 47.9845 121.304C52.1397 123.013 56.282 124.761 60.4415 126.628C60.1536 126.683 59.8743 126.742 59.595 126.798Z" fill="#F26486"/>
<path d="M59 127.785C59.1098 127.72 59.2105 127.655 59.3294 127.599C62.0748 126.283 64.1613 124.294 65.6438 121.569C66.44 120.103 67.4832 119.739 68.6089 120.169C69.6063 120.551 70.2195 121.643 69.9266 123.146C69.6429 124.621 69.2037 126.114 68.5448 127.449C68.3343 127.879 67.1813 127.832 66.4675 128C65.6072 127.991 64.747 128 63.8868 127.972C62.2487 127.925 60.6289 127.851 59 127.785Z" fill="#F26486"/>
<path d="M60.4931 114.862C61.2536 114.765 62.0099 114.667 62.7705 114.569C63.5912 114.463 64.4162 114.378 65.237 114.254C65.8471 114.161 66.3971 114.437 66.4659 114.922C66.5432 115.458 66.178 115.87 65.542 115.951C64.3947 116.096 63.2474 116.24 62.1001 116.372C61.9798 116.385 61.8208 116.355 61.7306 116.283C61.2579 115.891 60.8025 115.479 60.3384 115.075C60.3942 115.003 60.4458 114.93 60.4931 114.862Z" fill="#F26486"/>
<path d="M29.0047 112.005C29.4473 112.702 29.2368 113.17 28.4203 113.306C25.4339 113.799 22.817 115.045 20.6041 117.103C20.4795 117.222 20.3377 117.324 20.2045 117.435C20.7459 116.189 21.7256 115.322 22.8042 114.561C24.4929 113.366 26.332 112.503 28.416 112.218C28.6223 112.192 28.8114 112.077 29.0047 112.005Z" fill="#F26486"/>
<path d="M72.9372 115.377C73.0704 115.509 73.1651 115.921 73.2468 116.079C73.3327 116.253 72.5763 116.219 72.6106 116.423C72.3915 116.423 72.1594 116.47 71.9532 116.414C71.7813 116.368 71.7985 116.976 71.6481 116.865C71.0336 116.27 70.5481 115.488 69.9981 116.079C69.3363 116.784 69.0828 117.856 68.4254 118.566C67.871 119.165 67.5101 119.178 68.1718 119.663C68.3437 119.816 68.5672 119.939 68.6746 120.126C68.7605 120.271 68.7691 120.535 68.6875 120.671C68.6359 120.76 68.3308 120.79 68.189 120.73C67.9656 120.632 67.7851 120.441 67.5831 120.288C66.6249 119.506 65.5979 118.409 66.9214 117.503C67.4929 116.882 68.275 116.21 68.8551 115.59C70.0066 114.365 71.5622 114.476 72.9372 115.377Z" fill="#F26486"/>
<path d="M28.9746 119.876C27.4965 119.722 26.014 119.574 24.5358 119.421C25.1847 119.042 25.812 118.621 26.4824 118.294C27.2257 117.932 28.0035 118.213 28.4375 118.919C28.6309 119.229 28.7985 119.557 28.9746 119.876Z" fill="#F26486"/>
<path d="M28.9746 119.876C28.7984 119.557 28.6308 119.233 28.4375 118.919C28.0035 118.213 27.2257 117.932 26.4823 118.294C25.8077 118.621 25.1803 119.042 24.5358 119.421C24.2608 119.395 23.9858 119.37 23.7108 119.344C24.3553 118.919 24.9784 118.455 25.653 118.081C27.1097 117.265 28.5621 117.588 29.2023 119.157C29.3011 119.404 29.4387 119.637 29.559 119.88C29.3656 119.876 29.1679 119.876 28.9746 119.876Z" fill="#F26486"/>
<path d="M44.9767 126.925C45.69 126.428 46.4076 126.194 47.2541 126.696C47.7783 127.006 48.3885 127.172 48.9514 127.418C49.0459 127.461 49.1104 127.567 49.1877 127.648C48.3455 127.448 47.5033 127.24 46.6568 127.057C46.4463 127.01 46.2185 127.036 45.9994 127.019C45.6599 126.989 45.3204 126.959 44.9767 126.925Z" fill="#F26486"/>
<path d="M62.7576 126.849C63.5182 126.878 64.3021 126.823 65.0626 126.849C65.4665 126.861 65.8515 126.947 66.2554 126.951C65.0952 126.981 63.9307 127.006 62.7705 127.032C62.7405 127.032 62.7018 126.964 62.6803 126.921C62.6803 126.912 62.7319 126.874 62.7576 126.849Z" fill="#F26486"/>
<path d="M25.9572 109C25.5403 109.055 25.0887 107.423 24.5 107.5C22.9531 105.974 22.2211 102.537 24 100.5C24.9969 99.3605 26.5176 98.2594 28 98C29.3794 97.7576 30.7754 97.7091 32 98.5C32.5887 98.8827 33.0946 99.7772 33 100.5C32.9184 101.138 32.0328 101.826 31.5 102C29.7898 102.566 29.9455 104.444 28.9572 106C28.4759 106.757 26.3224 108.137 25.9572 109Z" fill="#FDECF0"/>
<path d="M26.7616 108.115C26.796 107.974 26.8647 107.83 26.8561 107.694C26.7616 106.078 27.3675 104.764 28.5921 103.722C29.632 102.838 30.8738 102.349 32.2617 101.928C32.8375 103.693 34.1782 105.181 34.1395 107.171C34.1052 109.024 32.6571 110.704 30.8652 110.993C30.2851 110.861 29.6793 110.802 29.1335 110.585C27.9862 110.126 27.2515 109.229 26.7616 108.115ZM32.4572 108C32.4271 108.497 32.5403 108.466 32.9572 108.5C33.3912 108.534 32.9743 108.417 32.9572 108C32.94 107.566 33.4212 107.521 32.9572 107.5C32.4974 107.474 32.5173 107.634 32.4572 108ZM32.4572 106C32.122 105.417 32.0555 105.335 31.7289 104.825C31.6645 104.723 31.599 104.551 31.4572 104.5C31.4486 104.653 31.2777 104.79 31.3336 104.913C31.4797 105.223 31.7724 105.207 31.9572 105.5C32.1333 105.785 32.2966 106.241 31.9572 106.5C31.8798 106.56 31.9786 106.868 31.9572 107C32.1854 107.012 32.0727 107.06 32.1414 106.996C32.3477 106.788 32.2423 106.289 32.4572 106ZM29.9572 106C29.8626 106.004 30.0474 105.996 29.9572 106C30.0861 105.787 29.9529 105.717 29.9572 105.5C29.9657 105.122 29.8997 105.44 29.4572 105.5C29.4271 105.351 29.2595 105.526 29.4572 105.5C29.5173 105.793 29.7767 105.732 29.9572 106ZM32.9572 104C32.5446 103.668 32.7129 103.595 32.425 103.488C32.4572 103.5 31.9743 103.804 31.9572 104C31.9271 104.37 32.0189 104.521 32.4572 104.5C32.672 104.491 32.5661 104.264 32.9572 104Z" fill="#FDECF0"/>
<path d="M44.8134 100.206C43.911 100.125 43.0215 100.057 42.1363 99.9509C41.9902 99.9339 41.8613 99.7638 41.7711 99.5809C41.2598 99.5257 40.7398 99.4959 40.2371 99.4066C40.0867 99.3811 39.9621 99.1855 39.8288 99.0665C39.9878 99.0154 40.1382 98.9304 40.3015 98.9134C40.6539 98.8751 41.0191 98.9134 41.3629 98.8326C41.5691 98.7858 41.8699 98.603 41.8957 98.4457C41.9301 98.2288 41.8098 97.9014 41.6379 97.7568C40.9375 97.1488 40.1855 96.5961 39.4722 96.0008C39.3218 95.8775 39.2659 95.6436 39.1671 95.465C39.3863 95.4991 39.6441 95.4735 39.816 95.5841C40.525 96.0263 41.1996 96.5153 41.9 96.9617C42.0332 97.0468 42.2395 97.017 42.4113 97.0425C42.3813 96.8724 42.3985 96.6683 42.3082 96.5408C41.8441 95.8775 41.3414 95.2397 40.8816 94.5721C40.7871 94.4361 40.8215 94.2107 40.7914 94.0279C40.9676 94.1002 41.1996 94.1257 41.307 94.2532C41.8699 94.9165 42.3942 95.6096 42.9528 96.2772C43.0516 96.3962 43.2622 96.4217 43.4211 96.4898C43.434 96.3197 43.5028 96.1241 43.4426 95.9795C43.2106 95.3885 42.9227 94.8187 42.6949 94.2277C42.6434 94.0874 42.7379 93.8961 42.7637 93.726C42.9098 93.8153 43.1204 93.8748 43.1891 94.0024C43.7305 95.0016 44.302 95.9923 44.7446 97.034C44.9595 97.54 44.9638 98.1523 44.9767 98.7178C44.9853 99.2025 44.8735 99.6915 44.8134 100.206Z" fill="#FDECF0"/>
<path d="M26.7617 108.115C27.2473 109.224 27.982 110.126 29.1379 110.585C29.6837 110.802 30.2895 110.861 30.8696 110.993C29.4602 111.389 27.6211 110.768 26.7746 109.599C26.7015 109.496 26.6929 109.339 26.6801 109.203C26.6629 109.054 26.6758 108.901 26.6758 108.748C26.5125 108.803 26.3277 108.825 26.1945 108.922C25.7476 109.233 25.2492 109.203 24.9656 108.803C24.7292 108.472 24.6991 108.132 25.0171 107.817C25.3652 107.468 25.7992 107.456 26.2203 107.77C26.3836 107.898 26.5769 108 26.7617 108.115Z" fill="#FDECF0"/>
<path d="M29.5891 111.818C30.5516 111.601 31.497 111.384 32.4853 111.163C32.7302 111.58 32.5068 112.324 31.9568 112.579C31.0888 112.987 29.9243 112.588 29.5891 111.818Z" fill="#F26486"/>
<path d="M29.4731 113.234C29.7223 113.183 29.9758 113.077 30.2251 113.085C30.7235 113.102 31.2177 113.183 31.7505 113.242C31.7505 113.566 31.7505 113.923 31.7505 114.373C30.9899 114.067 30.2508 113.774 29.5118 113.481C29.4946 113.4 29.4817 113.315 29.4731 113.234Z" fill="#F26486"/>
<path d="M33.233 111.227C33.5896 111.227 33.9506 111.227 34.376 111.227C34.3115 111.682 34.2514 112.116 34.1869 112.554C33.0611 112.213 33.0095 112.137 33.233 111.227Z" fill="#F26486"/>
<path d="M86.2236 118.727C85.7294 119.484 85.145 120.092 84.247 120.42C82.1328 121.189 80.1916 122.813 77.9572 123C76.5907 123.115 74.8193 123.56 73.4572 123.5C71.5278 123.415 69.7661 121.7 67.841 121.517C68.2621 121.551 64.5721 117.358 67.4572 118C68.6302 116.703 68.2497 117.271 69.4571 116C71.3994 113.955 76.3104 113.132 78.2656 111.095C79.1507 111.176 79.6277 111.886 80.2594 112.358C81.007 113.06 82.2181 113.794 82.9572 114.5C84.199 115.686 84.9732 116.835 86.2107 118.026C86.215 118.264 86.2193 118.498 86.2236 118.727Z" fill="#F26486"/>
<path d="M78.2655 111.104C76.3061 113.136 74.3381 115.16 72.3958 117.21C71.1927 118.477 70.0196 119.773 68.8422 121.07C68.5629 121.376 68.2621 121.559 67.841 121.525C67.4457 121.478 67.0504 121.432 66.5261 121.368C66.93 120.956 67.2394 120.173 67.566 119.841C67.7637 119.995 67.9656 120.637 68.1891 120.73C68.3309 120.79 68.6317 120.76 68.6875 120.671C68.7692 120.53 68.7563 120.271 68.6746 120.126C68.5629 119.939 67.7551 119.357 67.5832 119.204C68.6918 118.013 69.6801 116.993 70.7887 115.802C70.9391 115.917 71.7857 116.372 71.9532 116.419C72.1552 116.474 72.2884 116.015 72.5075 116.015C72.4689 115.815 72.5763 116.006 72.4904 115.828C72.4087 115.666 72.0907 115.399 71.9532 115.267C73.1564 113.992 74.4971 112.868 75.7002 111.593C76.7702 110.619 77.0881 110.559 78.2655 111.104Z" fill="#F26486"/>
<path d="M86.2107 118.034C84.9732 116.844 83.7357 115.653 82.4938 114.467C81.7548 113.761 81.0028 113.068 80.2594 112.367C81.6731 112.651 83.0911 112.936 84.5048 113.217C84.6724 113.251 84.8443 113.281 85.0162 113.31C85.1881 113.379 85.3599 113.447 85.5318 113.515C85.4932 113.685 85.3943 113.863 85.4287 114.016C85.6951 115.203 85.9873 116.38 86.258 117.562C86.2924 117.707 86.2322 117.877 86.2107 118.034Z" fill="#F26486"/>
<path d="M68.1719 119.654C67.5059 119.17 67.4629 118.796 68.0216 118.192C68.679 117.482 69.3364 116.776 69.9982 116.07C70.5525 115.479 70.8834 115.483 71.4978 116.079C70.3892 117.273 69.2806 118.464 68.1719 119.654Z" fill="#F26486"/>
<path d="M32.0169 107.97C32.0771 107.609 32.3306 107.354 32.7904 107.375C33.2545 107.396 33.4865 107.689 33.5037 108.123C33.5166 108.54 33.1213 108.863 32.6873 108.829C32.2747 108.799 31.9868 108.468 32.0169 107.97Z" fill="#FDECF0"/>
<path d="M32.7173 106.244C32.5025 106.533 32.3478 106.788 32.1415 106.992C32.0728 107.06 31.8708 106.992 31.729 106.984C31.7505 106.852 31.7247 106.66 31.8021 106.601C32.1415 106.342 32.0384 106.082 31.8579 105.802C31.6732 105.508 31.4798 105.219 31.3337 104.909C31.2778 104.785 31.3423 104.607 31.3509 104.454C31.4927 104.505 31.7032 104.513 31.7677 104.611C32.0943 105.125 32.3822 105.661 32.7173 106.244Z" fill="#FDECF0"/>
<path d="M29.6321 106.342C29.4516 106.074 29.1852 105.819 29.1293 105.525C29.0993 105.376 29.4215 105.019 29.6192 104.994C30.0618 104.93 30.2809 105.304 30.2723 105.682C30.2681 105.899 30.036 106.112 29.9071 106.325C29.8169 106.329 29.7223 106.337 29.6321 106.342Z" fill="#FDECF0"/>
<path d="M33.3576 104.199C32.9666 104.462 32.7646 104.709 32.5497 104.722C32.1114 104.743 31.888 104.373 31.9181 104.003C31.9353 103.807 32.322 103.454 32.4251 103.493C32.713 103.595 32.9451 103.867 33.3576 104.199Z" fill="#FDECF0"/>
<ellipse cx="49.0296" cy="115.992" rx="37" ry="7.00778" transform="rotate(-1.49791 49.0296 115.992)" fill="#F26486"/>
</svg>
