<svg width="34" height="34" viewBox="0 0 34 34" fill="none" xmlns="http://www.w3.org/2000/svg">
<path fill-rule="evenodd" clip-rule="evenodd" d="M31.4785 18.7574C31.4785 19.8305 31.3457 20.9025 31.0987 21.9543C32.3198 22.6031 33.1512 23.8717 33.1512 25.3275C33.1512 27.4404 31.4004 29.1601 29.2481 29.1601C27.0958 29.1601 25.345 27.4404 25.345 25.3275C25.345 23.2147 27.0958 21.4949 29.2481 21.4949C29.5208 21.4949 29.7867 21.5228 30.0438 21.5754C30.2518 20.6468 30.3633 19.7024 30.3633 18.7574C30.3633 14.1605 27.9791 9.97528 23.9856 7.56076C23.7236 7.40198 23.6416 7.06526 23.8033 6.80738C23.9644 6.55005 24.3068 6.46956 24.5705 6.62834C28.8963 9.24326 31.4785 13.7777 31.4785 18.7574ZM26.46 25.3274C26.46 26.8369 27.7107 28.065 29.2479 28.065C30.7852 28.065 32.0359 26.8369 32.0359 25.3274C32.0359 23.8179 30.7852 22.5898 29.2479 22.5898C27.7107 22.5898 26.46 23.8179 26.46 25.3274Z" fill="#EF406A"/>
<path d="M31.0987 21.9543L30.612 21.84L30.5239 22.2151L30.8641 22.3958L31.0987 21.9543ZM30.0438 21.5754L29.9436 22.0653L30.4244 22.1636L30.5317 21.6847L30.0438 21.5754ZM23.9856 7.56076L23.7265 7.98839L23.7269 7.98863L23.9856 7.56076ZM23.8033 6.80738L24.2269 7.073L24.2271 7.07275L23.8033 6.80738ZM24.5705 6.62834L24.8292 6.20045L24.8284 6.19998L24.5705 6.62834ZM31.5855 22.0686C31.8407 20.9821 31.9785 19.8717 31.9785 18.7574H30.9785C30.9785 19.7893 30.8508 20.8229 30.612 21.84L31.5855 22.0686ZM33.6512 25.3275C33.6512 23.6754 32.7075 22.2429 31.3333 21.5127L30.8641 22.3958C31.9322 22.9633 32.6512 24.0679 32.6512 25.3275H33.6512ZM29.2481 29.6601C31.6679 29.6601 33.6512 27.725 33.6512 25.3275H32.6512C32.6512 27.1557 31.1328 28.6601 29.2481 28.6601V29.6601ZM24.845 25.3275C24.845 27.725 26.8283 29.6601 29.2481 29.6601V28.6601C27.3634 28.6601 25.845 27.1557 25.845 25.3275H24.845ZM29.2481 20.9949C26.8283 20.9949 24.845 22.93 24.845 25.3275H25.845C25.845 23.4993 27.3634 21.9949 29.2481 21.9949V20.9949ZM30.144 21.0855C29.8545 21.0264 29.555 20.9949 29.2481 20.9949V21.9949C29.4865 21.9949 29.7189 22.0193 29.9436 22.0653L30.144 21.0855ZM29.8633 18.7574C29.8633 19.663 29.7564 20.5708 29.5559 21.4661L30.5317 21.6847C30.7471 20.7228 30.8633 19.7417 30.8633 18.7574H29.8633ZM23.7269 7.98863C27.5734 10.3143 29.8633 14.3388 29.8633 18.7574H30.8633C30.8633 13.9822 28.3847 9.63626 24.2443 7.13288L23.7269 7.98863ZM23.3797 6.54176C23.0673 7.04003 23.2297 7.68736 23.7265 7.98839L24.2447 7.13312C24.2303 7.12437 24.2239 7.1135 24.2215 7.10342C24.2191 7.09356 24.2201 7.08381 24.2269 7.073L23.3797 6.54176ZM24.8284 6.19998C24.335 5.90293 23.6879 6.04963 23.3795 6.54201L24.2271 7.07275C24.241 7.05047 24.2786 7.0362 24.3127 7.05671L24.8284 6.19998ZM31.9785 18.7574C31.9785 13.5995 29.302 8.90426 24.8292 6.20045L24.3119 7.05624C28.4906 9.58225 30.9785 13.956 30.9785 18.7574H31.9785ZM29.2479 27.565C27.9782 27.565 26.96 26.5522 26.96 25.3274H25.96C25.96 27.1216 27.4432 28.565 29.2479 28.565V27.565ZM31.5359 25.3274C31.5359 26.5522 30.5177 27.565 29.2479 27.565V28.565C31.0527 28.565 32.5359 27.1216 32.5359 25.3274H31.5359ZM29.2479 23.0898C30.5177 23.0898 31.5359 24.1026 31.5359 25.3274H32.5359C32.5359 23.5332 31.0527 22.0898 29.2479 22.0898V23.0898ZM26.96 25.3274C26.96 24.1026 27.9782 23.0898 29.2479 23.0898V22.0898C27.4432 22.0898 25.96 23.5332 25.96 25.3274H26.96Z" fill="#EF406A"/>
<path fill-rule="evenodd" clip-rule="evenodd" d="M17.029 31.9028C18.7817 31.9028 20.4868 31.5671 22.098 30.9055C22.3799 30.7897 22.7038 30.9225 22.8204 31.2017C22.937 31.482 22.8027 31.8029 22.5208 31.9187C20.7753 32.6362 18.9276 32.9999 17.029 32.9999C13.1566 32.9999 9.43455 31.4288 6.73782 28.6799C6.18344 28.9849 5.5467 29.1599 4.86906 29.1599C2.73555 29.1599 1 27.4369 1 25.32C1 23.203 2.73555 21.48 4.86906 21.48C7.00257 21.48 8.73812 23.203 8.73812 25.32C8.73812 26.3683 8.31197 27.3184 7.62328 28.0123C10.105 30.4902 13.4998 31.9028 17.029 31.9028ZM4.86796 22.5771C3.3441 22.5771 2.10435 23.8076 2.10435 25.32C2.10435 26.8324 3.3441 28.0628 4.86796 28.0628C6.39182 28.0628 7.63157 26.8324 7.63157 25.32C7.63157 23.8076 6.39182 22.5771 4.86796 22.5771Z" fill="#EF406A"/>
<path d="M22.098 30.9055L22.2879 31.368L22.2879 31.368L22.098 30.9055ZM22.8204 31.2017L23.282 31.0096L23.2818 31.009L22.8204 31.2017ZM22.5208 31.9187L22.3309 31.4562L22.3307 31.4562L22.5208 31.9187ZM6.73782 28.6799L7.09474 28.3298L6.82912 28.059L6.4968 28.2419L6.73782 28.6799ZM7.62328 28.0123L7.26839 27.6601L6.91724 28.0139L7.27 28.3662L7.62328 28.0123ZM21.9081 30.443C20.3575 31.0797 18.7169 31.4028 17.029 31.4028V32.4028C18.8464 32.4028 20.6161 32.0545 22.2879 31.368L21.9081 30.443ZM23.2818 31.009C23.0579 30.4729 22.4411 30.2241 21.9081 30.443L22.2879 31.368C22.3186 31.3554 22.3497 31.3721 22.359 31.3944L23.2818 31.009ZM22.7107 32.3812C23.2467 32.1611 23.506 31.5479 23.282 31.0096L22.3588 31.3938C22.3681 31.4161 22.3587 31.4447 22.3309 31.4562L22.7107 32.3812ZM17.029 33.4999C18.9924 33.4999 20.9047 33.1236 22.7109 32.3811L22.3307 31.4562C20.6459 32.1488 18.8628 32.4999 17.029 32.4999V33.4999ZM6.3809 29.0301C9.17142 31.8746 13.022 33.4999 17.029 33.4999V32.4999C13.2912 32.4999 9.69769 30.9831 7.09474 28.3298L6.3809 29.0301ZM4.86906 29.6599C5.63385 29.6599 6.35318 29.4622 6.97884 29.118L6.4968 28.2419C6.0137 28.5077 5.45955 28.6599 4.86906 28.6599V29.6599ZM0.5 25.32C0.5 27.7165 2.46292 29.6599 4.86906 29.6599V28.6599C3.00818 28.6599 1.5 27.1572 1.5 25.32H0.5ZM4.86906 20.98C2.46292 20.98 0.5 22.9234 0.5 25.32H1.5C1.5 23.4827 3.00818 21.98 4.86906 21.98V20.98ZM9.23812 25.32C9.23812 22.9234 7.2752 20.98 4.86906 20.98V21.98C6.72995 21.98 8.23812 23.4827 8.23812 25.32H9.23812ZM7.97817 28.3645C8.75497 27.5818 9.23812 26.5069 9.23812 25.32H8.23812C8.23812 26.2296 7.86897 27.055 7.26839 27.6601L7.97817 28.3645ZM17.029 31.4028C13.6326 31.4028 10.3648 30.043 7.97656 27.6585L7.27 28.3662C9.84525 30.9374 13.367 32.4028 17.029 32.4028V31.4028ZM2.60435 25.32C2.60435 24.0873 3.61668 23.0771 4.86796 23.0771V22.0771C3.07152 22.0771 1.60435 23.5279 1.60435 25.32H2.60435ZM4.86796 27.5628C3.61668 27.5628 2.60435 26.5527 2.60435 25.32H1.60435C1.60435 27.1121 3.07152 28.5628 4.86796 28.5628V27.5628ZM7.13157 25.32C7.13157 26.5527 6.11924 27.5628 4.86796 27.5628V28.5628C6.6644 28.5628 8.13157 27.1121 8.13157 25.32H7.13157ZM4.86796 23.0771C6.11924 23.0771 7.13157 24.0873 7.13157 25.32H8.13157C8.13157 23.5279 6.6644 22.0771 4.86796 22.0771V23.0771Z" fill="#EF406A"/>
<path fill-rule="evenodd" clip-rule="evenodd" d="M3.27199 18.0666C3.25911 18.0666 3.24568 18.066 3.23224 18.0649C2.92381 18.0442 2.6915 17.7823 2.71334 17.4816C3.14884 11.4534 7.38576 6.42461 13.3087 4.81341C13.3165 2.70961 15.0709 1 17.2266 1C19.3873 1 21.145 2.71726 21.145 4.82708C21.145 6.93689 19.3873 8.65415 17.2266 8.65415C15.4493 8.65415 13.9474 7.49182 13.4694 5.90522C8.07652 7.43277 4.22864 12.0422 3.83008 17.5581C3.80881 17.8468 3.56363 18.0666 3.27199 18.0666ZM20.026 4.82689C20.026 3.31957 18.7704 2.09326 17.2271 2.09326C15.6838 2.09326 14.4282 3.31957 14.4282 4.82689C14.4282 6.33421 15.6838 7.56051 17.2271 7.56051C18.7704 7.56051 20.026 6.33421 20.026 4.82689Z" fill="#EF406A"/>
<path d="M3.23224 18.0649L3.27279 17.5665L3.26585 17.5661L3.23224 18.0649ZM2.71334 17.4816L3.21202 17.5178L3.21204 17.5176L2.71334 17.4816ZM13.3087 4.81341L13.44 5.29588L13.8073 5.19595L13.8087 4.81527L13.3087 4.81341ZM13.4694 5.90522L13.9481 5.76097L13.8062 5.29013L13.3331 5.42415L13.4694 5.90522ZM3.83008 17.5581L4.32873 17.5949L4.32878 17.5942L3.83008 17.5581ZM3.1917 18.5633C3.21827 18.5654 3.24523 18.5666 3.27199 18.5666V17.5666L3.27279 17.5666L3.1917 18.5633ZM2.21465 17.4454C2.172 18.0329 2.62414 18.5251 3.19864 18.5638L3.26585 17.5661C3.22348 17.5632 3.21101 17.5317 3.21202 17.5178L2.21465 17.4454ZM13.1775 4.33094C7.05674 5.99594 2.66595 11.1984 2.21463 17.4456L3.21204 17.5176C3.63172 11.7084 7.71477 6.85328 13.44 5.29588L13.1775 4.33094ZM17.2266 0.5C14.8063 0.5 12.8176 2.42161 12.8087 4.81155L13.8087 4.81527C13.8155 2.99761 15.3354 1.5 17.2266 1.5V0.5ZM21.645 4.82708C21.645 2.43012 19.6523 0.5 17.2266 0.5V1.5C19.1223 1.5 20.645 3.00441 20.645 4.82708H21.645ZM17.2266 9.15415C19.6523 9.15415 21.645 7.22404 21.645 4.82708H20.645C20.645 6.64974 19.1223 8.15415 17.2266 8.15415V9.15415ZM12.9906 6.04946C13.5322 7.84695 15.2284 9.15415 17.2266 9.15415V8.15415C15.6702 8.15415 14.3626 7.13668 13.9481 5.76097L12.9906 6.04946ZM4.32878 17.5942C4.71166 12.2953 8.40814 7.8585 13.6056 6.38629L13.3331 5.42415C7.74489 7.00703 3.74562 11.7892 3.33138 17.5221L4.32878 17.5942ZM3.27199 18.5666C3.81436 18.5666 4.2874 18.1557 4.32873 17.5949L3.33143 17.5214C3.33069 17.5315 3.32667 17.541 3.3166 17.5502C3.30604 17.5597 3.29082 17.5666 3.27199 17.5666V18.5666ZM17.2271 2.59326C18.5054 2.59326 19.526 3.60676 19.526 4.82689H20.526C20.526 3.03237 19.0353 1.59326 17.2271 1.59326V2.59326ZM14.9282 4.82689C14.9282 3.60676 15.9488 2.59326 17.2271 2.59326V1.59326C15.4188 1.59326 13.9282 3.03237 13.9282 4.82689H14.9282ZM17.2271 7.06051C15.9488 7.06051 14.9282 6.04702 14.9282 4.82689H13.9282C13.9282 6.6214 15.4188 8.06051 17.2271 8.06051V7.06051ZM19.526 4.82689C19.526 6.04702 18.5054 7.06051 17.2271 7.06051V8.06051C19.0353 8.06051 20.526 6.6214 20.526 4.82689H19.526Z" fill="#EF406A"/>
</svg>
