<svg width="39" height="26" viewBox="0 0 39 26" fill="none" xmlns="http://www.w3.org/2000/svg">
<path d="M1.625 1.33331H37.375V24.6666H1.625V1.33331ZM3.25 7.99998C4.54293 7.99998 5.78291 7.4732 6.69715 6.53551C7.61138 5.59783 8.125 4.32606 8.125 2.99998L3.25 7.99998ZM3.25 18C4.54293 18 5.78291 18.5268 6.69715 19.4644C7.61138 20.4021 8.125 21.6739 8.125 23L3.25 18ZM35.75 7.99998C34.4571 7.99998 33.2171 7.4732 32.3029 6.53551C31.3886 5.59783 30.875 4.32606 30.875 2.99998L35.75 7.99998ZM35.75 18C34.4571 18 33.2171 18.5268 32.3029 19.4644C31.3886 20.4021 30.875 21.6739 30.875 23L35.75 18ZM19.5 19.6666C22.1926 19.6666 24.375 16.6833 24.375 13C24.375 9.31665 22.1926 6.33331 19.5 6.33331C16.8074 6.33331 14.625 9.31665 14.625 13C14.625 16.6833 16.8074 19.6666 19.5 19.6666Z" stroke="#EF406A" stroke-width="2"/>
</svg>
