<svg width="31" height="30" viewBox="0 0 31 30" fill="none" xmlns="http://www.w3.org/2000/svg">
<path d="M28.8708 7.13333V7.34411L29.0509 7.45368C29.9062 7.97418 30.4956 8.90726 30.4956 10V20C30.4956 21.0927 29.9062 22.0258 29.0509 22.5463L28.8708 22.6559V22.8667V26.6667C28.8708 28.302 27.5675 29.625 25.9963 29.625H3.24953C1.6633 29.625 0.375 28.3032 0.375 26.6667V3.33333C0.375 1.69681 1.6633 0.375 3.24953 0.375H25.9963C27.5675 0.375 28.8708 1.69805 28.8708 3.33333V7.13333ZM27.996 10V9.625H27.621H16.2477H15.8727V10V20V20.375H16.2477H27.621H27.996V20V10ZM2.87453 26.6667V27.0417H3.24953H25.9963H26.3713V26.6667V23.3333V22.9583H25.9963H16.2477C14.6765 22.9583 13.3731 21.6353 13.3731 20V10C13.3731 8.36471 14.6765 7.04167 16.2477 7.04167H25.9963H26.3713V6.66667V3.33333V2.95833H25.9963H3.24953H2.87453V3.33333V26.6667Z" fill="#EF406A" stroke="#F1F1F1" stroke-width="0.75"/>
<path d="M23.1844 15C23.1844 16.1827 22.2522 17.125 21.1222 17.125C19.9923 17.125 19.0601 16.1827 19.0601 15C19.0601 13.8173 19.9923 12.875 21.1222 12.875C22.2522 12.875 23.1844 13.8173 23.1844 15Z" fill="#EF406A" stroke="white" stroke-width="0.75"/>
</svg>
